<svg xmlns="http://www.w3.org/2000/svg" xmlns:xlink="http://www.w3.org/1999/xlink" version="1.1" x="0px" y="0px" viewBox="0 0 100 100" enable-background="new 0 0 100 100" xml:space="preserve"><path d="M51.717,85.5H22.768c-0.547,0-0.992-0.449-0.992-1v-69c0-0.551,0.445-1,0.992-1h28.949c1.104,0,2-0.896,2-2s-0.896-2-2-2  H22.768c-2.753,0-4.992,2.243-4.992,5v69c0,2.757,2.239,5,4.992,5h28.949c1.104,0,2-0.896,2-2S52.821,85.5,51.717,85.5z   M81.639,48.586L64.49,31.438c-0.781-0.781-2.047-0.781-2.828,0c-0.781,0.781-0.781,2.047,0,2.828L75.396,48H36.4  c-1.104,0-2,0.896-2,2s0.896,2,2,2h38.996L61.662,65.733c-0.781,0.781-0.781,2.047,0,2.828c0.391,0.391,0.902,0.586,1.414,0.586  s1.023-0.195,1.414-0.586l17.148-17.147c0.375-0.375,0.586-0.884,0.586-1.414S82.014,48.961,81.639,48.586z"/></svg>