<svg xmlns="http://www.w3.org/2000/svg" viewBox="0 0 170.5 150"><rect width="170.5" height="150" style="fill:none"/><path d="M66.68,69.25C55.77,67.88,45.9,77,35.33,74.61,22.54,71.77,4.61,60.75,3.38,46.37,2.87,40.29,4.65,34.23,7.2,28.68c3.16-6.89,7.61-13.31,13.62-17.94S34.5,3.41,42,4.18c6.58.68,12.69,3.9,19.26,4.64,8.09.92,15.69-2,22.91-5.29C90,.92,96.6,1.27,100.7,7.18c2.22,3.2,2.79,7.68,6,9.86,2.39,1.61,5.64,1.42,8.3.3s4.9-3,7.2-4.76c4.88-3.7,10.49-6.89,16.61-7.12s12.71,3.3,14.28,9.22c1.09,4.1-.33,8.5.4,12.68,1.3,7.43,9,12.76,9.44,20.29C163.3,54,158,59.54,152.09,61.88s-12.47,2.32-18.83,2.87-13,1.9-17.68,6.28c-3.38,3.19-5.42,7.79-9.34,10.3-6.09,3.88-14.21,1.29-20.38-2.46S73.84,70.15,66.68,69.25Z" transform="translate(0)" style="fill:#d8e5f3"/><path d="M67.13,142.47c-14.6-11.56,38.28-15.76,39.81-24S76.41,110,76.41,106.07c0-5.24,43.22-5.4,46.22-16s-19.07-8.46-19.07-8.46L53.61,81c-10.81,13.75,23.7,8.66,23.7,14.29,0,6.86-29.33,6.17-29.33,11.59,0,6.88,30.07,2.84,29.92,10.77s-39.66,11.64-26.6,24.83C57.71,149,74.07,148,67.13,142.47Z" transform="translate(0)" style="fill:#d8e5f3"/><path d="M107.88,30.27a.41.41,0,0,1,0-.19,21.43,21.43,0,0,1,.47-2.85.36.36,0,0,1,.43-.26.36.36,0,0,1,.26.43,18.41,18.41,0,0,0-.45,2.74.36.36,0,0,1-.39.32A.37.37,0,0,1,107.88,30.27Zm1.32-5.49a.36.36,0,0,1,0-.29,20.58,20.58,0,0,1,1.24-2.6.35.35,0,1,1,.61.35,20.51,20.51,0,0,0-1.19,2.51.36.36,0,0,1-.46.2A.32.32,0,0,1,109.2,24.78ZM112,19.86a.37.37,0,0,1,0-.38,25.64,25.64,0,0,1,1.85-2.2.35.35,0,1,1,.51.49,22.67,22.67,0,0,0-1.79,2.13.36.36,0,0,1-.5.08A.53.53,0,0,1,112,19.86Zm3.89-4.1a.37.37,0,0,1,.09-.44,22.65,22.65,0,0,1,2.33-1.69.36.36,0,0,1,.38.6,24.07,24.07,0,0,0-2.26,1.64.36.36,0,0,1-.5,0A.21.21,0,0,0,115.85,15.76Zm27.64,42.77a.42.42,0,0,1,0-.1.36.36,0,0,1,.29-.41l2.78-.52a.35.35,0,0,1,.41.28.35.35,0,0,1-.27.42c-1,.2-2,.38-2.8.51A.35.35,0,0,1,143.49,58.53Zm-22.87-45.8v0a.37.37,0,0,1,.17-.47,23.3,23.3,0,0,1,2.68-1.06.35.35,0,0,1,.44.23.35.35,0,0,1-.23.45,20.94,20.94,0,0,0-2.58,1A.36.36,0,0,1,120.62,12.73Zm17.43,25.63a8.1,8.1,0,0,1-.84-2.66.35.35,0,0,1,.3-.4.35.35,0,0,1,.4.3,7.47,7.47,0,0,0,.83,2.56.34.34,0,0,1-.14.48.36.36,0,0,1-.48-.14A.91.91,0,0,0,138.05,38.36Zm1.89,2.28a.36.36,0,0,1,.53-.45,4.94,4.94,0,0,0,2.41,1,.35.35,0,0,1,.3.4.34.34,0,0,1-.39.3A5.57,5.57,0,0,1,140,40.75.26.26,0,0,1,139.94,40.64ZM149,57.42l0-.08a.36.36,0,0,1,.26-.43c1-.23,1.87-.47,2.72-.72a.35.35,0,1,1,.2.67c-.86.26-1.76.5-2.75.74A.36.36,0,0,1,149,57.42ZM137.45,33a.33.33,0,0,1,0-.26,8.34,8.34,0,0,1,1.32-2.63.35.35,0,0,1,.5-.07.34.34,0,0,1,.07.49A8.06,8.06,0,0,0,138.1,33a.36.36,0,0,1-.44.24A.37.37,0,0,1,137.45,33ZM126,11a.2.2,0,0,1,0-.11.34.34,0,0,1,.28-.4,20.08,20.08,0,0,1,2.87-.29.36.36,0,0,1,0,.71,20,20,0,0,0-2.77.27A.35.35,0,0,1,126,11Zm19.3,30.37s0,0,0,0a.35.35,0,0,1,.21-.46,6.68,6.68,0,0,0,.78-.35,7.25,7.25,0,0,0,1.5-1.05.35.35,0,0,1,.5,0,.36.36,0,0,1,0,.5,8.3,8.3,0,0,1-1.65,1.15,7.47,7.47,0,0,1-.87.39A.37.37,0,0,1,145.3,41.38Zm9.16,14.39,0,0a.36.36,0,0,1,.2-.46c.9-.35,1.76-.74,2.55-1.14a.35.35,0,0,1,.48.15h0a.36.36,0,0,1-.15.48c-.82.42-1.7.81-2.62,1.17A.36.36,0,0,1,154.46,55.77ZM140.73,28.52a.37.37,0,0,1,.11-.45,10.67,10.67,0,0,1,1.45-.9,10,10,0,0,1,1.1-.51.36.36,0,0,1,.46.2.36.36,0,0,1-.2.46c-.35.14-.7.3-1,.47a10.38,10.38,0,0,0-1.36.85.36.36,0,0,1-.5-.08Zm-9.09-17.65a.34.34,0,0,1,0-.2.36.36,0,0,1,.4-.31,21.31,21.31,0,0,1,2.82.56.36.36,0,0,1,.25.44.35.35,0,0,1-.43.25,20,20,0,0,0-2.73-.55A.34.34,0,0,1,131.64,10.87Zm17.79,26.81a.38.38,0,0,1,0-.33,9.72,9.72,0,0,0,.93-2.56.35.35,0,0,1,.69.15,10.81,10.81,0,0,1-1,2.75.36.36,0,0,1-.63,0ZM137.09,12.36a.32.32,0,0,1,0-.3.35.35,0,0,1,.46-.19,21.28,21.28,0,0,1,2.57,1.29.36.36,0,0,1,.13.49.37.37,0,0,1-.49.12,21.45,21.45,0,0,0-2.49-1.25A.37.37,0,0,1,137.09,12.36Zm22.38,40.81a.36.36,0,0,1,.12-.46l.37-.26A15.52,15.52,0,0,0,161.74,51a.35.35,0,0,1,.49.51A18.19,18.19,0,0,1,160.37,53l-.38.27a.36.36,0,0,1-.5-.1S159.48,53.18,159.47,53.17ZM146,26.43a.49.49,0,0,1,0-.11.35.35,0,0,1,.29-.4h0a15.19,15.19,0,0,1,2.87-.08.35.35,0,0,1,.33.38.36.36,0,0,1-.38.33,13.74,13.74,0,0,0-2.73.08A.37.37,0,0,1,146,26.43Zm4.76,5.79a.33.33,0,0,1,0-.17,16.38,16.38,0,0,0-.06-1.7c0-.35-.07-.71-.11-1.07a.35.35,0,0,1,.3-.4.36.36,0,0,1,.4.3c.05.37.09.75.12,1.12.05.6.06,1.19.06,1.76a.36.36,0,0,1-.36.35A.35.35,0,0,1,150.71,32.22Zm-8.74-17a.36.36,0,0,1,.53-.45,24.37,24.37,0,0,1,2.17,1.88.36.36,0,1,1-.5.51,22.63,22.63,0,0,0-2.1-1.82A.35.35,0,0,1,142,15.21Zm4,3.95a.36.36,0,0,1,.59-.39,23.75,23.75,0,0,1,1.66,2.35.37.37,0,0,1-.12.49.36.36,0,0,1-.49-.12,23.41,23.41,0,0,0-1.6-2.28A.1.1,0,0,1,146,19.16Zm3.93,7.47,0-.07A18.66,18.66,0,0,0,149,24a.34.34,0,0,1,.18-.46.36.36,0,0,1,.47.17,21.54,21.54,0,0,1,1,2.71.34.34,0,0,1-.24.43A.36.36,0,0,1,149.94,26.63Zm1.62.15a.35.35,0,0,1,0-.25.36.36,0,0,1,.43-.26,23.69,23.69,0,0,1,2.75.84.35.35,0,0,1,.2.46.34.34,0,0,1-.45.2,23.62,23.62,0,0,0-2.67-.81A.35.35,0,0,1,151.56,26.78Zm12,22.49a.35.35,0,0,1,0-.37A16.07,16.07,0,0,0,165,46.55a.36.36,0,0,1,.48-.16.36.36,0,0,1,.16.48,17.52,17.52,0,0,1-1.53,2.45.35.35,0,0,1-.5.07A.29.29,0,0,1,163.55,49.27Zm-6.68-20.55a.34.34,0,0,1,0-.31.37.37,0,0,1,.48-.17l.11.06c.85.41,1.66.86,2.4,1.31a.36.36,0,0,1-.37.61c-.72-.45-1.51-.88-2.34-1.29l-.11-.05A.35.35,0,0,1,156.87,28.72Zm9.21,15.52a.39.39,0,0,1,0-.26,11.81,11.81,0,0,0,.45-2.71.36.36,0,0,1,.37-.34.37.37,0,0,1,.34.37,13.12,13.12,0,0,1-.47,2.87.36.36,0,0,1-.66.07Zm-4.41-12.53a.37.37,0,0,1,0-.39.36.36,0,0,1,.5-.05,17.28,17.28,0,0,1,2.08,2,.36.36,0,0,1-.54.47,15.18,15.18,0,0,0-2-1.92A.31.31,0,0,1,161.67,31.71Zm4.63,6.93a.16.16,0,0,1,0-.09,9.49,9.49,0,0,0-.3-1,10.49,10.49,0,0,0-.63-1.47l0,0h0a.35.35,0,0,1,.14-.47.35.35,0,0,1,.48.14l0,.05a11.94,11.94,0,0,1,.67,1.57A11,11,0,0,1,167,38.4a.35.35,0,0,1-.27.42A.34.34,0,0,1,166.3,38.64Z" transform="translate(0)" style="fill:#8abae7"/><path d="M149.89,145.71a.26.26,0,0,1-.26-.26v-4a.27.27,0,0,1,.53,0v4A.27.27,0,0,1,149.89,145.71Z" transform="translate(0)"/><path d="M151.9,143.71h-4a.27.27,0,0,1,0-.53h4a.27.27,0,0,1,0,.53Z" transform="translate(0)"/><path d="M40.29,7.87a.27.27,0,0,1-.18-.08L38,5.68a.28.28,0,0,1,0-.38l2.12-2.11a.27.27,0,0,1,.37,0L42.59,5.3a.27.27,0,0,1,0,.38L40.48,7.79A.27.27,0,0,1,40.29,7.87ZM38.55,5.49l1.74,1.74L42,5.49,40.29,3.75Z" transform="translate(0)"/><path d="M62.47,118.25a.27.27,0,0,1-.3-.23L62,116.48a.26.26,0,0,1,.23-.29.25.25,0,0,1,.29.23l.2,1.53A.28.28,0,0,1,62.47,118.25Z" transform="translate(0)"/><path d="M63,122.28a.26.26,0,0,1-.29-.23l-.19-1.53a.26.26,0,0,1,.22-.3.28.28,0,0,1,.3.23L63.2,122A.26.26,0,0,1,63,122.28Z" transform="translate(0)"/><path d="M65.41,119.15l-1.54.19a.26.26,0,0,1-.29-.23.25.25,0,0,1,.23-.29l1.53-.2a.28.28,0,0,1,.3.23A.27.27,0,0,1,65.41,119.15Z" transform="translate(0)"/><path d="M61.37,119.66l-1.53.19a.27.27,0,0,1-.3-.23.28.28,0,0,1,.23-.3l1.54-.19a.27.27,0,0,1,.29.23A.26.26,0,0,1,61.37,119.66Z" transform="translate(0)"/><path d="M96,11.13a.26.26,0,0,1-.26-.26V9.32a.27.27,0,0,1,.53,0v1.55A.27.27,0,0,1,96,11.13Z" transform="translate(0)"/><path d="M96,15.2a.27.27,0,0,1-.26-.27V13.39a.27.27,0,1,1,.53,0v1.54A.27.27,0,0,1,96,15.2Z" transform="translate(0)"/><path d="M98.81,12.39H97.26a.27.27,0,0,1,0-.53h1.55a.27.27,0,0,1,0,.53Z" transform="translate(0)"/><path d="M94.74,12.39H93.2a.27.27,0,1,1,0-.53h1.54a.27.27,0,1,1,0,.53Z" transform="translate(0)"/><path d="M151,122.52a6.2,6.2,0,1,0-6.2,6.2A6.2,6.2,0,0,0,151,122.52Z" transform="translate(0)" style="fill:#d8e5f3"/><path d="M154.57,121.27h-9.35A.26.26,0,0,1,145,121v-9.35a.27.27,0,0,1,.27-.27h9.35a.27.27,0,0,1,.27.27V121A.26.26,0,0,1,154.57,121.27Zm-9.09-.53h8.83v-8.82h-8.83Z" transform="translate(0)"/><rect x="129.97" y="134.89" width="3.15" height="3.15" style="fill:#f57a3e"/><path d="M141.92,99.56a1.54,1.54,0,1,0-1.54,1.54A1.54,1.54,0,0,0,141.92,99.56Z" transform="translate(0)" style="fill:#4666c9"/><rect x="52.95" y="121.42" width="1.28" height="1.28" transform="translate(-14.8 7.63) rotate(-7.16)" style="fill:#f57a3e"/><polygon points="84.56 15.09 7.32 15.09 7.32 82.21 142.94 82.21 142.94 54.72 118.63 54.72 118.63 46.9 91.55 46.9 91.55 39.19 84.56 39.19 84.56 31.23 93.62 31.23 93.62 23.4 84.56 23.4 84.56 15.09" style="fill:#d8e5f3"/><path d="M142.94,82.47H7.32a.26.26,0,0,1-.26-.26V15.09a.27.27,0,0,1,.26-.27H84.55a.27.27,0,1,1,0,.53h-77V81.94H142.67V55h-24a.26.26,0,0,1-.26-.26V47.16H91.55a.27.27,0,0,1-.27-.27V39.46H84.55a.27.27,0,0,1-.26-.27v-8a.27.27,0,0,1,.08-.19.24.24,0,0,1,.18-.07h8.81v-7.3H84.55a.27.27,0,0,1,0-.53h9.07a.26.26,0,0,1,.26.26v7.83a.24.24,0,0,1-.26.26h-8.8v7.44h6.73a.26.26,0,0,1,.26.26v7.44h26.82a.27.27,0,0,1,.27.26v7.57h24a.26.26,0,0,1,.26.26V82.21A.26.26,0,0,1,142.94,82.47Z" transform="translate(0)"/><path d="M84.55,20.27H19.43a6.32,6.32,0,0,1-6.32,6.32V70.7A6.32,6.32,0,0,1,19.43,77h111.4a6.32,6.32,0,0,1,6.32-6.32v-16H118.63V46.89H91.55v-7.7h-7v-8h9.07V23.4H84.55Z" transform="translate(0)" style="fill:#4666c9"/><path d="M130.83,77.29H19.43a.27.27,0,0,1-.27-.27,6.05,6.05,0,0,0-6.05-6,.27.27,0,0,1-.27-.27V26.59a.27.27,0,0,1,.27-.26,6.06,6.06,0,0,0,6.05-6.06.27.27,0,0,1,.27-.26H84.55a.27.27,0,1,1,0,.53H19.69a6.59,6.59,0,0,1-6.32,6.31V70.44a6.61,6.61,0,0,1,6.32,6.32H130.58a6.59,6.59,0,0,1,6.31-6.32V55H118.63a.26.26,0,0,1-.26-.26V47.16H91.55a.27.27,0,0,1-.27-.27V39.46H84.55a.27.27,0,0,1-.26-.27v-8a.27.27,0,0,1,.08-.19.24.24,0,0,1,.18-.07h8.81v-7.3H84.55a.27.27,0,0,1,0-.53h9.07a.26.26,0,0,1,.26.26v7.83a.24.24,0,0,1-.26.26h-8.8v7.44h6.73a.26.26,0,0,1,.26.26v7.44h26.82a.27.27,0,0,1,.27.26v7.57h18.25a.26.26,0,0,1,.27.26v16a.27.27,0,0,1-.27.27,6.06,6.06,0,0,0-6.05,6A.27.27,0,0,1,130.83,77.29Z" transform="translate(0)"/><path d="M91.55,46.89v-7.7h-7v-8h4.88a22.53,22.53,0,1,0,8.24,17.42c0-.59,0-1.18-.07-1.76Z" transform="translate(0)" style="fill:#d8e5f3"/><path d="M75.13,67.15a18.51,18.51,0,1,1,4.65-36.42.27.27,0,0,1-.13.52A18,18,0,1,0,91,57a.27.27,0,1,1,.47.25A18.48,18.48,0,0,1,75.13,67.15Z" transform="translate(0)" style="fill:#fff"/><path d="M128.79,48.91H106.24a.27.27,0,0,1,0-.53h22.55a.27.27,0,0,1,0,.53Z" transform="translate(0)"/><rect x="118.85" y="46.89" width="14.27" height="7.83" style="fill:#d8e5f3"/><path d="M133.12,55H118.85a.26.26,0,0,1-.26-.26V46.89a.26.26,0,0,1,.26-.26h14.27a.26.26,0,0,1,.26.26v7.83A.25.25,0,0,1,133.12,55Zm-14-.52h13.74v-7.3H119.12Z" transform="translate(0)"/><path d="M130.87,53.86H121.1a1.35,1.35,0,0,0-1.35-1.36V49.11a1.35,1.35,0,0,0,1.35-1.36h9.77a1.36,1.36,0,0,0,1.36,1.36V52.5A1.36,1.36,0,0,0,130.87,53.86Z" transform="translate(0)" style="fill:#8abae7"/><path d="M128.15,50.81A2.16,2.16,0,1,0,126,53,2.16,2.16,0,0,0,128.15,50.81Z" transform="translate(0)" style="fill:#d8e5f3"/><rect x="129.34" y="50.38" width="1.76" height="0.86" style="fill:#d8e5f3"/><rect x="120.92" y="50.38" width="1.76" height="0.86" style="fill:#d8e5f3"/><rect x="104.58" y="46.89" width="14.27" height="7.83" style="fill:#d8e5f3"/><path d="M118.85,55H104.58a.26.26,0,0,1-.26-.26V46.89a.26.26,0,0,1,.26-.26h14.27a.27.27,0,0,1,.27.26v7.83A.26.26,0,0,1,118.85,55Zm-14-.52h13.74v-7.3H104.85Z" transform="translate(0)"/><path d="M116.6,53.86h-9.77a1.35,1.35,0,0,0-1.35-1.36V49.11a1.35,1.35,0,0,0,1.35-1.36h9.77A1.36,1.36,0,0,0,118,49.11V52.5A1.36,1.36,0,0,0,116.6,53.86Z" transform="translate(0)" style="fill:#8abae7"/><path d="M113.88,50.81A2.16,2.16,0,1,0,111.72,53,2.16,2.16,0,0,0,113.88,50.81Z" transform="translate(0)" style="fill:#d8e5f3"/><rect x="115.08" y="50.38" width="1.76" height="0.86" style="fill:#d8e5f3"/><rect x="106.66" y="50.38" width="1.76" height="0.86" style="fill:#d8e5f3"/><rect x="90.31" y="46.89" width="14.27" height="7.83" style="fill:#d8e5f3"/><path d="M104.58,55H90.31a.26.26,0,0,1-.26-.26V46.89a.26.26,0,0,1,.26-.26h14.27a.27.27,0,0,1,.27.26v7.83A.26.26,0,0,1,104.58,55Zm-14-.52h13.74v-7.3H90.58Z" transform="translate(0)"/><path d="M102.33,53.86H92.57a1.36,1.36,0,0,0-1.36-1.36V49.11a1.36,1.36,0,0,0,1.36-1.36h9.76a1.36,1.36,0,0,0,1.36,1.36V52.5A1.36,1.36,0,0,0,102.33,53.86Z" transform="translate(0)" style="fill:#8abae7"/><path d="M113.79,62.81a.26.26,0,0,1-.26-.26V55H99.79v7.57a.27.27,0,0,1-.27.26h0a.26.26,0,0,1-.26-.26V54.72a.26.26,0,0,1,.26-.26h14.27a.26.26,0,0,1,.27.26v7.83A.27.27,0,0,1,113.79,62.81Z" transform="translate(0)"/><path d="M128.06,62.81H113.79a.26.26,0,0,1-.26-.26V54.72a.25.25,0,0,1,.26-.26h14.27a.26.26,0,0,1,.26.26v7.83a.24.24,0,0,1-.07.18A.27.27,0,0,1,128.06,62.81Zm-14-.53h13.73V55H114.06Z" transform="translate(0)"/><path d="M142.91,62.81H128.15a.27.27,0,0,1-.27-.26V54.72a.26.26,0,0,1,.27-.26h14.76a.26.26,0,0,1,.19.07.27.27,0,0,1,.08.19v7.83A.27.27,0,0,1,142.91,62.81Zm-14.5-.53h14.24V55H128.41Z" transform="translate(0)"/><path d="M91.55,47.16a.27.27,0,0,1-.27-.27V39.46H84.55a.27.27,0,0,1-.26-.27v-8a.27.27,0,0,1,.08-.19.24.24,0,0,1,.18-.07h8.81v-7.3H84.55a.27.27,0,0,1,0-.53h9.07a.26.26,0,0,1,.26.26v7.83a.24.24,0,0,1-.26.26h-8.8v7.44h6.73a.26.26,0,0,1,.26.26v7.7A.27.27,0,0,1,91.55,47.16Z" transform="translate(0)"/><path d="M106.66,62.81H96a.27.27,0,0,1,0-.53h10.66a.27.27,0,0,1,0,.53Z" transform="translate(0)"/><path d="M90.31,55H83.54a.26.26,0,1,1,0-.52h6.77a.26.26,0,1,1,0,.52Z" transform="translate(0)"/><path d="M90.31,47.16H84.2a.27.27,0,0,1,0-.53h6.11a.27.27,0,1,1,0,.53Z" transform="translate(0)"/><path d="M85.23,59.87A.27.27,0,0,1,85,59.6V54.72a.27.27,0,0,1,.53,0V59.6A.27.27,0,0,1,85.23,59.87Z" transform="translate(0)"/><path d="M84.55,39.46H80.07a.27.27,0,0,1-.26-.27.26.26,0,0,1,.26-.26h4.48a.26.26,0,0,1,.27.26A.27.27,0,0,1,84.55,39.46Z" transform="translate(0)"/><path d="M84.55,31.49H81.17a.26.26,0,1,1,0-.52h3.38a.26.26,0,1,1,0,.52Z" transform="translate(0)"/><path d="M80.07,27.76a.27.27,0,0,1-.26-.27V23.4a.26.26,0,0,1,.26-.26h4.48a.27.27,0,1,1,0,.53H80.34v3.82A.27.27,0,0,1,80.07,27.76Z" transform="translate(0)"/><circle cx="75.13" cy="48.65" r="6.04" style="fill:#fff"/><rect x="100.29" y="39.63" width="24.28" height="12.02" transform="translate(131.25 -74.24) rotate(76.83)" style="fill:#d8e5f3"/><path d="M121.1,56.2h0L109.38,59a.13.13,0,0,1-.16-.1l-5.53-23.64a.11.11,0,0,1,.09-.15l11.7-2.74a.11.11,0,0,1,.1,0,.16.16,0,0,1,.06.08l5.53,23.65A.11.11,0,0,1,121.1,56.2Zm-11.66,2.47L120.89,56,115.42,32.6,104,35.28Z" transform="translate(0)"/><path d="M109.4,55l-3.83-16.34a2.7,2.7,0,0,0,2-3.26l4.62-1.08a2.71,2.71,0,0,0,3.25,2l3.83,16.34a2.7,2.7,0,0,0-2,3.26L112.66,57A2.73,2.73,0,0,0,109.4,55Z" transform="translate(0)" style="fill:#8abae7"/><path d="M113.35,49.56a4,4,0,1,0-4.85-3A4,4,0,0,0,113.35,49.56Z" transform="translate(0)" style="fill:#d8e5f3"/><path d="M113.85,48.72a3.31,3.31,0,0,1-.65.22,3.39,3.39,0,0,1-3.65-5.1,3.3,3.3,0,0,1,2.11-1.51,3.39,3.39,0,0,1,2.19,6.39Zm-2.73-5.93A3,3,0,0,0,109.77,44a3.14,3.14,0,0,0,3.37,4.71,3,3,0,0,0,.6-.21,3.13,3.13,0,0,0,1.74-3.56,3.07,3.07,0,0,0-1.4-2,3.11,3.11,0,0,0-2.36-.39A3,3,0,0,0,111.12,42.79Z" transform="translate(0)"/><path d="M113.7,51.06l.92,3.93Z" transform="translate(0)" style="fill:#d8e5f3"/><rect x="112.81" y="52.36" width="2.7" height="1.32" transform="translate(139.77 -70.22) rotate(76.83)" style="fill:#d8e5f3"/><rect x="109.45" y="38.02" width="2.7" height="1.32" transform="translate(123.22 -78.02) rotate(76.83)" style="fill:#d8e5f3"/><path d="M111.32,40.76h0a.11.11,0,0,1-.15-.09l-.92-3.93a.12.12,0,0,1,.09-.16.13.13,0,0,1,.16.1l.92,3.93A.13.13,0,0,1,111.32,40.76Z" transform="translate(0)"/><rect x="107.48" y="42.2" width="24.28" height="12.02" transform="matrix(-0.26, 0.97, -0.97, -0.26, 196.81, -55.11)" style="fill:#d8e5f3"/><path d="M122.32,61.61h0l-11.62-3.07a.13.13,0,0,1-.09-.16l6.21-23.48a.13.13,0,0,1,.16-.09l11.61,3.07a.1.1,0,0,1,.08.06.12.12,0,0,1,0,.1l-6.21,23.47A.12.12,0,0,1,122.32,61.61Zm-11.46-3.29,11.37,3,6.14-23.22L117,35.1Z" transform="translate(0)"/><path d="M112.56,55l4.29-16.22a2.72,2.72,0,0,0,3.32-1.93l4.58,1.21a2.7,2.7,0,0,0,1.92,3.31l-4.29,16.23a2.71,2.71,0,0,0-3.31,1.93l-4.58-1.21A2.72,2.72,0,0,0,112.56,55Z" transform="translate(0)" style="fill:#8abae7"/><path d="M118.59,52.11a4,4,0,1,0-2.87-4.93A4,4,0,0,0,118.59,52.11Z" transform="translate(0)" style="fill:#d8e5f3"/><path d="M119.43,51.6a3.11,3.11,0,0,1-.68-.11,3.39,3.39,0,0,1-.84-6.22,3.4,3.4,0,1,1,1.52,6.33Zm.36-6.52a3.13,3.13,0,0,0-1,6.16,3.21,3.21,0,0,0,.62.1,3.14,3.14,0,0,0,2.89-4.71,3.11,3.11,0,0,0-1.91-1.45A2.76,2.76,0,0,0,119.79,45.08Z" transform="translate(0)"/><path d="M118.19,53.59l-1,3.91Z" transform="translate(0)" style="fill:#d8e5f3"/><rect x="116.33" y="54.88" width="2.7" height="1.32" transform="matrix(-0.26, 0.97, -0.97, -0.26, 201.46, -44.02)" style="fill:#d8e5f3"/><rect x="120.09" y="40.64" width="2.7" height="1.32" transform="translate(192.42 -65.54) rotate(104.81)" style="fill:#d8e5f3"/><path d="M120.92,43.39h0a.13.13,0,0,1-.09-.16l1-3.9a.13.13,0,0,1,.16-.09.14.14,0,0,1,.1.16l-1,3.9A.13.13,0,0,1,120.92,43.39Z" transform="translate(0)"/><path d="M78.32,67.57c1.43,4,4.76,6.38,7.42,5.41s3.68-5,2.24-8.91-4.75-6.38-7.42-5.41S76.89,63.61,78.32,67.57Z" transform="translate(0)" style="fill:#fff"/><path d="M81.44,72.3a9.85,9.85,0,0,1-3.32-4.66c-1.48-4.06-.41-8.18,2.36-9.19a4.7,4.7,0,0,1,4.38.89A9.93,9.93,0,0,1,88.19,64c1.47,4.06.4,8.18-2.37,9.19a3.88,3.88,0,0,1-1.31.22A5.24,5.24,0,0,1,81.44,72.3Zm-.81-13.44c-2.55.93-3.5,4.8-2.11,8.64A9.53,9.53,0,0,0,81.7,72a4.25,4.25,0,0,0,4,.83c2.55-.92,3.5-4.8,2.11-8.63a9.56,9.56,0,0,0-3.17-4.46,4.88,4.88,0,0,0-2.82-1A3.49,3.49,0,0,0,80.63,58.86Z" transform="translate(0)"/><path d="M77.5,67.06c.71,3,3,5,5.2,4.47s3.34-3.36,2.63-6.34-3-5-5.21-4.47S76.78,64.08,77.5,67.06Z" transform="translate(0)" style="fill:#4666c9"/><path d="M81.88,64.85c1.45,1.78,3.45,2.55,4.45,1.72s.65-2.93-.81-4.71-3.45-2.54-4.46-1.72S80.42,63.08,81.88,64.85Z" transform="translate(0)" style="fill:#4666c9"/><path d="M84.37,67.34a1.73,1.73,0,1,0-.22-2.75A2,2,0,0,0,84.37,67.34Z" transform="translate(0)" style="fill:#fff"/><path d="M86.14,68.44a1.63,1.63,0,0,0,1.08-.39.22.22,0,0,0,0-.31.21.21,0,0,0-.3,0,1.26,1.26,0,0,1-1.12.25,2.4,2.4,0,0,1-1.27-.77,1.77,1.77,0,0,1-.24-2.44,1.24,1.24,0,0,1,1.11-.25,2.37,2.37,0,0,1,1.28.77.22.22,0,0,0,.31,0,.21.21,0,0,0,0-.3,2.73,2.73,0,0,0-1.51-.91,1.67,1.67,0,0,0-1.49.34,2.21,2.21,0,0,0,.2,3,2.76,2.76,0,0,0,1.52.91A2,2,0,0,0,86.14,68.44Z" transform="translate(0)"/><path d="M77.31,64.77C71,60.57,79.07,51.1,83.94,58.6,83.94,58.6,82.85,62.28,77.31,64.77Z" transform="translate(0)"/><path d="M74.57,64.26c-3,1.56-1.59,3.53,1.65,2.88,6.63-1.32,9.66-7.37,9.17-10.34-.46-2.71-2.51-1.76-3.51,0A17.93,17.93,0,0,1,74.57,64.26Z" transform="translate(0)"/><path d="M77.31,65a.16.16,0,0,0,.09,0c5.71-2.68,6-6.67,6-6.84a.22.22,0,0,0-.44,0s-.26,3.91-5.71,6.47a.22.22,0,0,0-.11.29A.23.23,0,0,0,77.31,65Z" transform="translate(0)" style="fill:#fff"/><path d="M109.74,57.78a3.43,3.43,0,1,1,3.42,3.43A3.42,3.42,0,0,1,109.74,57.78Z" transform="translate(0)" style="fill:#fff"/><path d="M109.52,57.78a3.64,3.64,0,1,1,3.64,3.65A3.65,3.65,0,0,1,109.52,57.78Zm.44,0a3.21,3.21,0,1,0,3.2-3.2A3.21,3.21,0,0,0,110,57.78Z" transform="translate(0)"/><path d="M77.69,76.2C75.14,78.63,71.29,86,71,88.61s9.43,12.73,9.43,12.73S82.79,101,83.83,97l-5.3-8.92s4.33-5.88,4.85-8.47S81.21,72.84,77.69,76.2Z" transform="translate(0)" style="fill:#f57a3e"/><polygon points="80.4 94.94 70.66 145.56 67.46 148.02 77.79 148.02 78.37 145.69 80.4 145.69 89.51 104.92 97.69 145.99 99.43 145.99 100.01 148.02 110.74 148.02 107.73 145.6 97.27 94.07 80.4 94.94" style="fill:#8abae7"/><polygon points="70.66 145.56 67.46 148.02 77.79 148.02 78.37 145.69 70.66 145.56"/><polygon points="99.43 145.99 100.01 148.02 110.74 148.02 107.73 145.6 99.43 145.99"/><path d="M79.66,72.16c-.26,1.53,1.82,3.16,4.63,3.63s5.31-.39,5.56-1.93S88,70.7,85.22,70.23,79.91,70.62,79.66,72.16Z" transform="translate(0)" style="fill:#f57a3e"/><path d="M80.4,94.94s-2-.49-2.32-1.36-1.23-16.39-.39-17.38c2.13-2.52,10.34-4.59,14.83-3.46,1,.26,5.91,18.9,5.91,19.87s-1.16,1.46-1.16,1.46Z" transform="translate(0)" style="fill:#f57a3e"/><path d="M78.88,75.42a.19.19,0,0,0,.1,0A23.35,23.35,0,0,1,89.1,72.65a.22.22,0,0,0,.22-.22.21.21,0,0,0-.22-.21A23.74,23.74,0,0,0,78.77,75a.21.21,0,0,0-.08.29A.21.21,0,0,0,78.88,75.42Z" transform="translate(0)"/><path d="M90.87,72.43l10.63-3.21,7.56-10.85s2.71-.46,5.94,3.42c0,0-5.1,12.67-7.75,14.47S99.1,79.5,94,80.79,86.22,73.36,90.87,72.43Z" transform="translate(0)" style="fill:#f57a3e"/><path d="M80.23,95.16h.18a.22.22,0,0,0,.21-.23.23.23,0,0,0-.23-.21,2,2,0,0,1-2.18-1.64l-.65-11.24a.21.21,0,0,0-.22-.2.22.22,0,0,0-.21.23l.65,11.25v0A2.38,2.38,0,0,0,80.23,95.16Z" transform="translate(0)"/><path d="M20.7,63.6l12.23-4.41,7-6.26,3.69,3.15s-6.1,9-7.26,9.83-12.8,3.88-12.8,3.88Z" transform="translate(0)" style="fill:#8abae7"/><path d="M38,49.11A11.29,11.29,0,1,1,48.11,61.48,11.29,11.29,0,0,1,38,49.11Z" transform="translate(0)" style="fill:#fff"/><path d="M48.25,60.09a9.9,9.9,0,1,1,1,0C48.93,60.14,48.59,60.12,48.25,60.09ZM39.89,49.3A9.4,9.4,0,0,0,48.3,59.61a7.72,7.72,0,0,0,1,0,9.4,9.4,0,0,0,1-18.76,7.72,7.72,0,0,0-1,0A9.43,9.43,0,0,0,39.89,49.3Z" transform="translate(0)"/><path d="M55.64,49c0,2.63-2.87,4.77-6.41,4.77S42.81,51.63,42.81,49s2.87-4.77,6.42-4.77S55.64,46.37,55.64,49Z" transform="translate(0)" style="fill:#f57a3e"/><path d="M55,51.59c0,2.37-2.58,4.29-5.77,4.29S43.45,54,43.45,51.59,46,47.3,49.23,47.3,55,49.22,55,51.59Z" transform="translate(0)" style="fill:#f57a3e"/><path d="M45.65,55a0,0,0,0,1,0,0l-.29-2.15a.07.07,0,0,1,0-.05,0,0,0,0,1,0,0L45.7,55a0,0,0,0,1,0,0Z" transform="translate(0)" style="fill:#fff"/><path d="M45.26,54.75a.05.05,0,0,1,0,0l-.38-2.2s0,0,0,0,0,0,.05,0l.38,2.21a0,0,0,0,1,0,0Z" transform="translate(0)" style="fill:#fff"/><polygon points="42.85 49.54 43.55 52.38 54.9 52.38 55.6 49.54 42.85 49.54" style="fill:#f57a3e"/><path d="M55.64,49c0,2.63-2.87,4.77-6.41,4.77S42.81,51.63,42.81,49s2.87-4.77,6.42-4.77S55.64,46.37,55.64,49Z" transform="translate(0)" style="fill:#f57a3e"/><path d="M43.29,47.19c.53.5,1.86.46,3.22-.14,1.54-.69,2.53-1.84,2.2-2.58a.6.6,0,0,0-.14-.21A6.52,6.52,0,0,0,43.29,47.19Z" transform="translate(0)" style="fill:#fff"/><ellipse cx="44.21" cy="48.34" rx="0.92" ry="0.5" style="fill:#fff"/><path d="M49.23,53.81c-3.57,0-6.47-2.16-6.47-4.81a0,0,0,0,1,.05,0,0,0,0,0,1,0,0c0,2.6,2.86,4.72,6.38,4.72S55.6,51.6,55.6,49a0,0,0,0,1,0,0,0,0,0,0,1,0,0C55.69,51.65,52.79,53.81,49.23,53.81Z" transform="translate(0)"/><path d="M45.07,51.31s0,0,0,0a3.29,3.29,0,0,1-1.24-2.46c0-2.14,2.44-3.88,5.43-3.88a6.35,6.35,0,0,1,4.32,1.53s0,0,0,.06a.06.06,0,0,1-.07,0,6.2,6.2,0,0,0-4.25-1.51c-2.94,0-5.34,1.7-5.34,3.79a3.18,3.18,0,0,0,1.21,2.39s0,.05,0,.06S45.08,51.31,45.07,51.31Z" transform="translate(0)"/><path d="M49.23,52.71A6.42,6.42,0,0,1,45,51.3a0,0,0,0,1,0-.06,0,0,0,0,1,.07,0,6.3,6.3,0,0,0,4.13,1.39c2.94,0,5.33-1.7,5.33-3.78a3.1,3.1,0,0,0-1.08-2.28.09.09,0,0,1,0-.07,0,0,0,0,1,.07,0,3.21,3.21,0,0,1,1.1,2.35C54.65,51,52.22,52.71,49.23,52.71Z" transform="translate(0)" style="fill:#fff"/><path d="M49,52h0l-.55,0a0,0,0,0,1,0,0,0,0,0,0,1,0,0l.54,0s0,0,0,0A0,0,0,0,1,49,52Zm.54,0a0,0,0,0,1,0,0s0,0,0,0l.53,0s0,0,0,0a0,0,0,0,1,0,0l-.55,0Zm-1.61-.12h0l-.53-.13a0,0,0,0,1,0-.06,0,0,0,0,1,0,0l.52.13s0,0,0,0A0,0,0,0,1,47.93,51.86Zm2.68,0a0,0,0,0,1,0,0s0,0,0,0c.18,0,.36-.08.52-.13a0,0,0,0,1,.06,0,0,0,0,0,1,0,.05,4.58,4.58,0,0,1-.53.14Zm-3.72-.29h0a4.52,4.52,0,0,1-.5-.23s0,0,0-.06a0,0,0,0,1,.06,0,4.23,4.23,0,0,0,.48.23,0,0,0,0,1,0,.06Zm4.76,0a.05.05,0,0,1,0,0s0-.05,0-.05a3.58,3.58,0,0,0,.48-.24,0,0,0,0,1,.06,0,0,0,0,0,1,0,.06,4.59,4.59,0,0,1-.5.24Zm-5.72-.47h0a5.12,5.12,0,0,1-.44-.34s0-.05,0-.06a0,0,0,0,1,.06,0A2.88,2.88,0,0,0,46,51s0,0,0,.06A0,0,0,0,1,45.93,51.05Zm6.66,0s0,0,0,0,0,0,0-.06a2.74,2.74,0,0,0,.41-.34.06.06,0,0,1,.07,0,0,0,0,0,1,0,.06,3.71,3.71,0,0,1-.42.35Zm-7.46-.67a0,0,0,0,1,0,0,2.71,2.71,0,0,1-.3-.45,0,0,0,0,1,0-.06,0,0,0,0,1,.06,0,3,3,0,0,0,.29.44,0,0,0,0,1,0,.06Zm8.25-.07h0s0,0,0-.06a2.39,2.39,0,0,0,.28-.45,0,0,0,0,1,.06,0s0,0,0,.06a1.87,1.87,0,0,1-.29.46S53.39,50.26,53.38,50.26Zm-8.76-.88s0,0,0,0a2.54,2.54,0,0,1-.09-.54,0,0,0,0,1,0-.05,0,0,0,0,1,0,0,2.45,2.45,0,0,0,.09.53.05.05,0,0,1,0,.05Zm9.23-.08h0a0,0,0,0,1,0-.06,2.31,2.31,0,0,0,.06-.52.91.91,0,0,0,0-.17,0,0,0,0,1,.09,0,1.09,1.09,0,0,1,0,.18,2,2,0,0,1-.07.54A0,0,0,0,1,53.85,49.3Zm-9.27-1h0a0,0,0,0,1,0-.05,2.43,2.43,0,0,1,.17-.52,0,0,0,0,1,.06,0,0,0,0,0,1,0,.06,2.5,2.5,0,0,0-.16.51A.05.05,0,0,1,44.58,48.31Zm9.22-.25s0,0,0,0a2.3,2.3,0,0,0-.22-.48.06.06,0,0,1,0-.07,0,0,0,0,1,.06,0,2.5,2.5,0,0,1,.23.5.06.06,0,0,1,0,.06ZM45,47.33h0a0,0,0,0,1,0-.07,2.71,2.71,0,0,1,.36-.41s0,0,.06,0a0,0,0,0,1,0,.06,4.17,4.17,0,0,0-.35.4S45,47.33,45,47.33Zm8.25-.2,0,0a3.34,3.34,0,0,0-.38-.37s0-.05,0-.07a0,0,0,0,1,.06,0,2.82,2.82,0,0,1,.39.38,0,0,0,0,1,0,.07Zm-7.48-.56h0a.06.06,0,0,1,0-.07l.46-.3a0,0,0,0,1,.06,0,0,0,0,0,1,0,.06,4.78,4.78,0,0,0-.44.29Zm6.66-.15h0a4.39,4.39,0,0,0-.47-.27,0,0,0,1,1,0-.08,4.15,4.15,0,0,1,.47.27s0,0,0,.06A0,0,0,0,1,52.45,46.42ZM46.73,46s0,0,0,0a0,0,0,0,1,0-.06c.16-.07.33-.13.51-.19,0,0,.05,0,.06,0a.07.07,0,0,1,0,.06,4.4,4.4,0,0,0-.51.18Zm4.75-.1h0L51,45.77s0,0,0-.05,0,0,0,0l.52.17s0,0,0,.06A.05.05,0,0,1,51.48,45.94Zm-3.73-.24s0,0,0,0,0-.05,0-.05a5.12,5.12,0,0,1,.54-.1s0,0,0,0,0,0,0,0l-.53.09Zm2.69-.05h0a4.51,4.51,0,0,0-.53-.07.07.07,0,0,1,0,0s0-.05,0,0a5,5,0,0,1,.54.07,0,0,0,1,1,0,.09Zm-1.61-.1s0,0,0,0a.07.07,0,0,1,0,0h.55s0,0,0,0a0,0,0,0,1,0,0Z" transform="translate(0)"/><path d="M44.63,54.23s0,0-.05,0L44,51.78a0,0,0,0,1,0-.05,0,0,0,0,1,.06,0l.62,2.41s0,0,0,0Z" transform="translate(0)"/><path d="M53.9,54.16h0a.05.05,0,0,1,0,0L54.19,52a0,0,0,0,1,.05,0,0,0,0,0,1,0,.05l-.34,2.13A0,0,0,0,1,53.9,54.16Z" transform="translate(0)"/><path d="M51,55.71a0,0,0,0,1-.05,0V53.58a0,0,0,0,1,.05,0,0,0,0,0,1,0,0v2.09A0,0,0,0,1,51,55.71Z" transform="translate(0)"/><path d="M50.33,50.43h0l-3.93-2.86s0,0,0-.06a0,0,0,0,1,.06,0l3.91,2.83,1.6-1.07s0,0,.06,0a0,0,0,0,1,0,.06l-1.63,1.09Z" transform="translate(0)"/><path d="M50.41,48.2h0l-2.26-1.65-.43.22a0,0,0,0,1-.06,0,0,0,0,0,1,0-.06l.45-.23a0,0,0,0,1,0,0l2.29,1.67a0,0,0,0,1,0,.06A0,0,0,0,1,50.41,48.2Z" transform="translate(0)" style="fill:#fff"/><path d="M52.6,55.12h0s0,0,0,0l.17-2.1a0,0,0,0,1,.09,0l-.17,2.1A0,0,0,0,1,52.6,55.12Z" transform="translate(0)"/><path d="M47.12,55.63a.07.07,0,0,1,0,0l-.25-2.15a0,0,0,0,1,0,0s0,0,0,0l.25,2.15s0,.05,0,.05Z" transform="translate(0)"/><path d="M49.23,55.92a0,0,0,0,1,0,0V53.77a0,0,0,0,1,0-.05,0,0,0,0,1,0,.05v2.11A0,0,0,0,1,49.23,55.92Z" transform="translate(0)"/><path d="M48.77,55.91a0,0,0,0,1,0,0l-.13-2.12a0,0,0,0,1,0,0,0,0,0,0,1,0,0l.13,2.12a0,0,0,0,1,0,0Z" transform="translate(0)"/><path d="M53.9,56.3l-2,2.91L54.76,62s3.54-1.1,4.65-6.05L57.19,54l-2.34,3.24Z" transform="translate(0)" style="fill:#fff"/><path d="M53.9,56.3a8.68,8.68,0,0,0-2,2.91Z" transform="translate(0)" style="fill:#fff"/><path d="M51.94,59.44a.23.23,0,0,0,.22-.15,8.37,8.37,0,0,1,1.91-2.81.25.25,0,0,0,0-.34.23.23,0,0,0-.33,0,8.72,8.72,0,0,0-2,3,.24.24,0,0,0,.14.31Z" transform="translate(0)"/><path d="M57.19,54l-2.34,3.24Z" transform="translate(0)" style="fill:#fff"/><path d="M54.85,57.46a.25.25,0,0,0,.19-.09l2.34-3.24a.24.24,0,0,0-.05-.33.25.25,0,0,0-.34.05l-2.34,3.24a.24.24,0,0,0,.06.33A.23.23,0,0,0,54.85,57.46Z" transform="translate(0)"/><path d="M54.76,62.23a.19.19,0,0,0,.1,0A8.41,8.41,0,0,0,59.65,56a.24.24,0,0,0-.21-.26.23.23,0,0,0-.26.21h0a8.06,8.06,0,0,1-4.53,5.85.24.24,0,0,0-.11.32A.25.25,0,0,0,54.76,62.23Z" transform="translate(0)"/><path d="M58.62,55.47a7.63,7.63,0,0,1-1.74,3.47Z" transform="translate(0)" style="fill:#fff"/><path d="M56.88,59.17a.27.27,0,0,0,.17-.06,7.75,7.75,0,0,0,1.8-3.59.23.23,0,1,0-.46-.09,7.6,7.6,0,0,1-1.67,3.34.23.23,0,0,0,0,.33A.23.23,0,0,0,56.88,59.17Z" transform="translate(0)"/><path d="M57.87,54.59a9.48,9.48,0,0,1-2,3.4Z" transform="translate(0)" style="fill:#fff"/><path d="M55.9,58.23a.23.23,0,0,0,.17-.07,9.78,9.78,0,0,0,2-3.49.24.24,0,0,0-.16-.3.24.24,0,0,0-.3.15,9.36,9.36,0,0,1-1.9,3.3.24.24,0,0,0,0,.34A.28.28,0,0,0,55.9,58.23Z" transform="translate(0)"/><path d="M19.75,56.3c1,3.48,3.54,5.8,5.73,5.18s3.2-3.92,2.23-7.4S24.17,48.29,22,48.9,18.78,52.83,19.75,56.3Z" transform="translate(0)" style="fill:#fff"/><path d="M19.52,56.37a9,9,0,0,1-.08-4.91,3.8,3.8,0,0,1,2.47-2.79c2.32-.65,5,1.75,6,5.35s-.07,7-2.39,7.69a3,3,0,0,1-.78.11C22.65,61.82,20.41,59.57,19.52,56.37ZM22,49.13A3.32,3.32,0,0,0,19.9,51.6,8.44,8.44,0,0,0,20,56.24h0c.83,3,2.87,5.1,4.77,5.1a2.52,2.52,0,0,0,.67-.09c2.07-.57,3-3.76,2.06-7.11-.84-3-2.88-5.1-4.78-5.1A2.57,2.57,0,0,0,22,49.13Z" transform="translate(0)"/><path d="M18.72,54.49c0,2.6,1.71,4.72,3.82,4.72s3.83-2.12,3.83-4.72-1.71-4.71-3.83-4.71S18.72,51.89,18.72,54.49Z" transform="translate(0)" style="fill:#f57a3e"/><path d="M18.5,52.89c.62,1.82,2.93,2.69,5.16,1.93S27.2,52,26.58,50.16s-2.92-2.68-5.15-1.93S17.89,51.07,18.5,52.89Z" transform="translate(0)" style="fill:#f57a3e"/><path d="M20.59,62.28c-.43,1.63,1.43,3.54,4.17,4.26s5.3,0,5.73-1.63-1.43-3.54-4.17-4.26S21,60.66,20.59,62.28Z" transform="translate(0)" style="fill:#fff"/><path d="M24.7,66.77a7.37,7.37,0,0,1-3.38-1.85,2.53,2.53,0,0,1,1.2-4.56,7.46,7.46,0,0,1,3.86.06,7.43,7.43,0,0,1,3.38,1.85,2.54,2.54,0,0,1-1.2,4.57,6.33,6.33,0,0,1-1.72.22A8,8,0,0,1,24.7,66.77Zm-2.05-6a2.4,2.4,0,0,0-1.83,1.54h0a2.39,2.39,0,0,0,.84,2.24,6.94,6.94,0,0,0,3.16,1.72,7,7,0,0,0,3.6.07,2.4,2.4,0,0,0,1.84-1.53,2.38,2.38,0,0,0-.84-2.24,6.91,6.91,0,0,0-3.16-1.73,8,8,0,0,0-2-.27A6.24,6.24,0,0,0,22.65,60.81Z" transform="translate(0)"/><polygon points="17.51 88.22 9.53 141.56 17.51 141.56 27.15 101.06 35.23 141.56 44.77 141.56 37.77 88.01 17.51 88.22"/><path d="M27.15,101.3h.05a.24.24,0,0,0,.19-.28l-.73-3.47a.25.25,0,0,0-.29-.18.24.24,0,0,0-.18.28l.73,3.47A.24.24,0,0,0,27.15,101.3Z" transform="translate(0)" style="fill:#fff"/><path d="M44.77,141.56c.48,1.86,4.75,2.14,5.52,4.29H44.77l-4.53-.77.29.77H37.38l-.56-4.29Z" transform="translate(0)" style="fill:#4666c9"/><path d="M17.48,141.56c.48,1.86,4.75,2.14,5.52,4.29H17.48l-3.85-.77-.4.77H10.08l1-4.29Z" transform="translate(0)" style="fill:#4666c9"/><path d="M55.34,62.66s-6.09,7-8.49,9.21c-2.58,2.37-11.62-.6-11.62-.6L37.76,88s-11.14,3.77-20.25.21c0,0-.39-23.54,1.56-24.92,1.2-.85,7.44-1.31,13.26-.77,3.62.34,10.59,3.67,10.59,3.67l8.21-7.26S52.68,59.48,55.34,62.66Z" transform="translate(0)" style="fill:#8abae7"/><path d="M35.23,71.51a.23.23,0,0,0,.22-.15.24.24,0,0,0-.13-.31l-2.26-.92a.24.24,0,0,0-.31.14.24.24,0,0,0,.13.31l2.26.91Z" transform="translate(0)"/><path d="M38,64.34a.26.26,0,0,0,.22-.13.24.24,0,0,0-.1-.32,17.93,17.93,0,0,0-8.6-1.79.24.24,0,0,0-.22.26.22.22,0,0,0,.25.22,17.85,17.85,0,0,1,8.34,1.73Z" transform="translate(0)"/><path d="M24.63,56.45c.49.94,1.44,1.41,2.11,1.06a1.71,1.71,0,0,0,.31-2.34c-.49-.94-1.44-1.41-2.11-1.06A1.72,1.72,0,0,0,24.63,56.45Z" transform="translate(0)" style="fill:#fff"/><path d="M26.26,57.86a1.2,1.2,0,0,0,.59-.14.24.24,0,0,0-.22-.42c-.55.29-1.36-.14-1.79-1a2.1,2.1,0,0,1-.26-1.24,1,1,0,0,1,.47-.78c.56-.29,1.36.14,1.79,1a.24.24,0,0,0,.33.1.23.23,0,0,0,.09-.32,2,2,0,0,0-2.43-1.16A1.43,1.43,0,0,0,24.11,55a2.54,2.54,0,0,0,.31,1.54A2.23,2.23,0,0,0,26.26,57.86Z" transform="translate(0)"/><path d="M142,16.53a8.25,8.25,0,1,0-7.37,9A8.24,8.24,0,0,0,142,16.53Z" transform="translate(0)" style="fill:#fff"/><path d="M133.76,24.61a7.25,7.25,0,1,1,7.21-8h0a7.26,7.26,0,0,1-6.47,8Zm0-14.1a5.37,5.37,0,0,0-.7,0,6.85,6.85,0,1,0,7.51,6.12h0A6.86,6.86,0,0,0,133.77,10.51Z" transform="translate(0)"/><path d="M133,10.55a.19.19,0,0,1-.19-.18l-.12-1.2A.18.18,0,0,1,132.9,9a.19.19,0,0,1,.22.17l.12,1.2a.21.21,0,0,1-.17.22Z" transform="translate(0)"/><path d="M140.78,16.85a.2.2,0,0,1-.2-.18.2.2,0,0,1,.18-.22l1.19-.12a.2.2,0,1,1,0,.39l-1.19.12Z" transform="translate(0)"/><path d="M128.49,23.91a.2.2,0,0,1-.14-.06.2.2,0,0,1,0-.28l.83-.87a.2.2,0,0,1,.29.27l-.83.88A.2.2,0,0,1,128.49,23.91Z" transform="translate(0)"/><path d="M126.91,15.87h0l-1.16-.31a.2.2,0,0,1-.14-.24.2.2,0,0,1,.25-.14l1.16.31a.2.2,0,0,1-.06.39Z" transform="translate(0)"/><rect x="135.75" y="12.06" width="1.46" height="9.57" style="fill:#f57a3e"/><path d="M137.21,21.66h-1.46a0,0,0,0,1,0,0V12.06l0,0h1.46a0,0,0,0,1,0,0v9.57S137.22,21.66,137.21,21.66Zm-1.44-.05h1.41V12.09h-1.41Z" transform="translate(0)" style="fill:#f57a3e"/><rect x="133.66" y="14.32" width="1.46" height="7.31" style="fill:#f57a3e"/><path d="M135.12,21.66h-1.46a0,0,0,0,1,0,0V14.32l0,0h1.46l0,0v7.31S135.13,21.66,135.12,21.66Zm-1.44-.05h1.41V14.35h-1.41Z" transform="translate(0)" style="fill:#f57a3e"/><rect x="131.57" y="16.09" width="1.46" height="5.54" style="fill:#f57a3e"/><path d="M133,21.66h-1.46a0,0,0,0,1,0,0V16.09a0,0,0,0,1,0,0H133s0,0,0,0v5.54S133,21.66,133,21.66Zm-1.44-.05H133v-5.5h-1.41Z" transform="translate(0)" style="fill:#f57a3e"/><rect x="129.48" y="18.99" width="1.46" height="2.64" style="fill:#f57a3e"/><path d="M130.94,21.66h-1.46a0,0,0,0,1,0,0V19s0,0,0,0h1.46l0,0v2.64S131,21.66,130.94,21.66Zm-1.44-.05h1.41V19H129.5Z" transform="translate(0)" style="fill:#f57a3e"/><path d="M136.07,14.7a.11.11,0,0,1-.11-.11v-2.1a.2.2,0,0,1,.2-.2h.35a.11.11,0,0,1,.11.11.14.14,0,0,1-.09.14.61.61,0,0,0-.35.54v1.51A.1.1,0,0,1,136.07,14.7Zm.09-2.36a.15.15,0,0,0-.15.15v2.1a.06.06,0,0,0,.06.06.05.05,0,0,0,.06-.06V13.08a.64.64,0,0,1,.38-.58.11.11,0,0,0,.06-.1.06.06,0,0,0-.06-.06Z" transform="translate(0)" style="fill:#f57a3e"/><path d="M136.08,15.09a.13.13,0,1,1,.13-.13A.13.13,0,0,1,136.08,15.09Zm0-.21A.08.08,0,0,0,136,15a.07.07,0,0,0,.08.08.08.08,0,0,0,.08-.08A.09.09,0,0,0,136.08,14.88Z" transform="translate(0)" style="fill:#f57a3e"/><path d="M134,16.36a.11.11,0,0,1-.11-.11V14.69a.2.2,0,0,1,.2-.19h.35a.11.11,0,0,1,.11.11.16.16,0,0,1-.09.14.61.61,0,0,0-.35.54v1A.11.11,0,0,1,134,16.36Zm.09-1.81a.15.15,0,0,0-.15.14v1.56a.06.06,0,0,0,.06.06.06.06,0,0,0,.06-.06v-1a.64.64,0,0,1,.38-.58.11.11,0,0,0,.06-.1.06.06,0,0,0-.06-.06Z" transform="translate(0)" style="fill:#f57a3e"/><path d="M134,16.75a.13.13,0,0,1,0-.26.13.13,0,1,1,0,.26Zm0-.21a.08.08,0,0,0-.08.08.09.09,0,0,0,.08.08.08.08,0,0,0,.08-.08A.07.07,0,0,0,134,16.54Z" transform="translate(0)" style="fill:#f57a3e"/><path d="M131.87,17.42a.11.11,0,0,1-.11-.11v-.86a.2.2,0,0,1,.2-.2h.35a.11.11,0,0,1,.11.11.16.16,0,0,1-.09.15A.58.58,0,0,0,132,17v.27A.1.1,0,0,1,131.87,17.42ZM132,16.3a.15.15,0,0,0-.15.15v.86a.06.06,0,0,0,.06.06.06.06,0,0,0,.06-.06V17a.64.64,0,0,1,.38-.58.11.11,0,0,0,.06-.1.06.06,0,0,0-.06-.06Z" transform="translate(0)" style="fill:#f57a3e"/><path d="M131.88,17.81a.13.13,0,1,1,.13-.13A.13.13,0,0,1,131.88,17.81Zm0-.21a.08.08,0,0,0,0,.16.08.08,0,1,0,0-.16Z" transform="translate(0)" style="fill:#f57a3e"/><path d="M164.27,52.83a8.25,8.25,0,1,0-7.37,9.05A8.25,8.25,0,0,0,164.27,52.83Z" transform="translate(0)" style="fill:#fff"/><path d="M156.05,60.92a7.25,7.25,0,1,1,7.22-8h0a7.24,7.24,0,0,1-6.47,8A6.28,6.28,0,0,1,156.05,60.92Zm0-14.1c-.24,0-.47,0-.7,0a6.86,6.86,0,0,0,1.39,13.64A6.87,6.87,0,0,0,162.88,53h0A6.86,6.86,0,0,0,156.07,46.82Z" transform="translate(0)"/><path d="M155.34,46.85a.19.19,0,0,1-.19-.18L155,45.48a.19.19,0,0,1,.17-.22.2.2,0,0,1,.22.18l.12,1.19a.2.2,0,0,1-.17.22Z" transform="translate(0)"/><path d="M163.08,53.15a.2.2,0,0,1-.2-.18.19.19,0,0,1,.18-.21l1.19-.13a.2.2,0,0,1,0,.4l-1.19.12Z" transform="translate(0)"/><path d="M150.79,60.22a.2.2,0,0,1-.14-.06.2.2,0,0,1,0-.28l.83-.87a.19.19,0,0,1,.28,0,.2.2,0,0,1,0,.28l-.83.87A.17.17,0,0,1,150.79,60.22Z" transform="translate(0)"/><path d="M159.8,51.07a1.2,1.2,0,1,0-1.19,1.19A1.19,1.19,0,0,0,159.8,51.07Z" transform="translate(0)" style="fill:#8abae7"/><path d="M157.75,52.11h1.72a1.26,1.26,0,0,1,1.26,1.26v2.87a0,0,0,0,1,0,0h-4.24a0,0,0,0,1,0,0V53.37A1.26,1.26,0,0,1,157.75,52.11Z" style="fill:#8abae7"/><path d="M155.14,51.07a1.2,1.2,0,1,0-2.39,0,1.2,1.2,0,0,0,2.39,0Z" transform="translate(0)" style="fill:#8abae7"/><path d="M156.06,56.24h-4.24v-2a2.12,2.12,0,0,1,2.12-2.12h0a2.12,2.12,0,0,1,2.12,2.12Z" transform="translate(0)" style="fill:#8abae7"/><path d="M157.26,53.06a1.2,1.2,0,1,0-2.39,0,1.2,1.2,0,0,0,2.39,0Z" transform="translate(0)" style="fill:#4666c9"/><path d="M158.18,58.23h-4.24v-2a2.12,2.12,0,0,1,2.12-2.12h0a2.12,2.12,0,0,1,2.12,2.12Z" transform="translate(0)" style="fill:#4666c9"/><path d="M164.27,54.72h0l-1.19-.12a.21.21,0,0,1-.18-.22.2.2,0,0,1,.22-.18l1.19.13a.2.2,0,0,1,.18.22A.2.2,0,0,1,164.27,54.72Z" transform="translate(0)"/></svg>