<?xml version="1.0" encoding="utf-8"?>
<!-- Generator: Adobe Illustrator 21.0.0, SVG Export Plug-In . SVG Version: 6.00 Build 0)  -->
<svg version="1.1" id="Layer_1" xmlns="http://www.w3.org/2000/svg" xmlns:xlink="http://www.w3.org/1999/xlink" x="0px" y="0px"
	 viewBox="0 0 3600 1884" style="enable-background:new 0 0 3600 1884;" xml:space="preserve">
<style type="text/css">
	.st0{fill:#ECE6DA;}
	.st1{fill:#D9AB91;}
	.st2{fill:#E4DBCA;}
	.st3{fill:#F5D1BC;}
	.st4{fill:#9A4D36;}
	.st5{fill:#674E50;}
	.st6{fill:#828392;}
	.st7{fill:#C4AE98;}
	.st8{fill:#2D334A;}
	.st9{fill:#88AEBC;}
	.st10{fill:#BFD3DB;}
	.st11{fill:#D5E3E8;}
	.st12{fill:#ADC7D1;}
	.st13{fill:#FFFFFF;}
	.st14{fill:#A7C3CC;}
	.st15{fill:#AD6F5C;}
	.st16{fill:#735B5E;}
	.st17{fill:#F7F5F2;}
	.st18{fill:#654C4E;}
	.st19{fill:#80839E;}
	.st20{fill:#F0EAE5;}
	.st21{fill:#563A3D;}
	.st22{fill:#42475C;}
	.st23{fill:#555A6C;}
	.st24{fill:#A76450;}
	.st25{fill:#B67F6E;}
	.st26{fill:#DED1C5;}
	.st27{fill:#685F6A;}
	.st28{fill:#AF7D61;}
	.st29{fill:#DB957F;}
	.st30{fill:#3B3E54;}
	.st31{fill:#F8DCBA;}
	.st32{fill:#F4CA96;}
	.st33{fill:#F1B770;}
	.st34{fill:#F5CCB5;}
	.st35{fill:#8AB0BD;}
	.st36{fill:#D9AD93;}
	.st37{fill:#5D6274;}
	.st38{fill:#EBC2AB;}
	.st39{fill:#464B60;}
	.st40{fill:#EBCCB9;}
	.st41{fill:#F2D2B8;}
	.st42{fill:#9597A3;}
	.st43{fill:#ADAEB7;}
	.st44{fill:#FADFCF;}
</style>
<g>
	<path class="st0" d="M2615.91,593.31c-71.58,0-140.82,9.93-206.46,28.44c-168.78-217.32-432.57-357.21-729.06-357.21
		c-439.77,0-807.61,307.68-900.12,719.49c-12.09-2.53-24.62-3.88-37.46-3.88c-100.37,0-181.73,81.36-181.73,181.73
		c0,12.47,1.26,24.64,3.65,36.41c-199.77,51.34-347.39,232.66-347.39,448.45c0,86.73,23.85,167.88,65.34,237.27h2872.92
		c135.09-136.92,218.49-324.96,218.49-532.5C3374.1,932.76,3034.65,593.31,2615.91,593.31z"/>
	<path class="st1" d="M674.02,1667.09c-10.82,10.38-17.45,22.14-20.26,27.76c-0.29-0.33-0.57-0.66-0.86-1
		c-7.42-8.54-16.04-17.99-25.74-27.87c4.63-3.63,15.28-12.8,23.5-26.12c10.82-17.51,13.35-35.57,13.35-35.57
		s-15.01,10.34-25.83,27.86c-7.96,12.88-11.43,26.05-12.71,32.12c-8.07-8.16-16.88-16.61-26.36-25.09
		c3.62-4.82,11.41-16.29,15.9-31.07c5.98-19.7,3.81-37.8,3.81-37.8s-11.87,13.84-17.85,33.54c-4.18,13.76-4.38,26.74-4.12,33.31
		c-9.51-8.42-19.69-16.85-30.47-25.05c2.84-5.29,8.81-17.84,10.99-33.16c2.91-20.38-2-37.94-2-37.94s-9.62,15.49-12.52,35.87
		c-2,14.04-0.29,26.74,0.96,33.28c-7.3-5.48-14.88-10.85-22.71-16.04c0.62-6.02,1.38-19.83-2.37-34.77
		c-5.01-19.97-16.19-34.37-16.19-34.37s-3.05,17.97,1.96,37.94c3.05,12.13,8.37,22.2,12.08,28.24c-5.53-3.57-11.18-7.03-16.96-10.38
		c-4.71-5.29-12.83-13.31-23.59-19.75c-17.67-10.56-35.76-12.83-35.76-12.83s10.56,14.86,28.23,25.42
		c10.65,6.36,21.44,9.71,28.34,11.37c5.97,3.46,11.82,7.05,17.53,10.74c-6.67,0.56-19.29,2.35-32.2,8.03
		c-18.84,8.29-31.17,21.73-31.17,21.73s18.23,0,37.07-8.29c14.31-6.3,24.85-15.55,29.1-19.65c7.88,5.18,15.5,10.56,22.84,16.05
		c-5.79,2.19-18.29,7.64-29.81,17.5c-15.65,13.38-23.56,29.8-23.56,29.8s17.45-5.27,33.1-18.65c11.89-10.17,19.31-22.08,22.19-27.22
		c11.1,8.38,21.56,17.02,31.32,25.65c-6.03,1.71-18.83,6.03-31.06,14.75c-16.77,11.95-26.1,27.61-26.1,27.61s17.85-3.71,34.62-15.65
		c12.63-9,21.04-20.1,24.42-25.03c9.59,8.55,18.48,17.07,26.63,25.31c-6.17,1.52-18.98,5.39-31.39,13.57
		c-17.19,11.33-27.08,26.65-27.08,26.65s17.97-3.06,35.16-14.39c12.78-8.43,21.52-19.05,25.17-23.95
		c9.57,9.75,18.07,19.07,25.4,27.5c0.37,0.42,0.73,0.84,1.09,1.26c-3.91,1.33-18.66,6.83-32.09,18.32
		c-15.65,13.38-23.56,29.8-23.56,29.8s17.45-5.27,33.1-18.65c13.44-11.49,21.17-25.21,23.08-28.86
		c29.93,34.71,46.73,61.78,46.9,62.06l4.29-2.65c-0.17-0.27-16.78-27.05-46.36-61.53c5.67-2.53,17.8-8.68,28.71-19.15
		c14.85-14.25,21.82-31.1,21.82-31.1S688.87,1652.84,674.02,1667.09z"/>
	<g>
		<path class="st2" d="M1276.25,737.18c0,0-10.86-38.88,13.2-81.75c24.05-42.87-9.58-68.13-30.27-55.93
			S1222.29,660.99,1276.25,737.18z"/>
		<path class="st2" d="M1307.72,769.39c0,0,16.44-36.87,62.31-54.55c45.87-17.68,36.08-58.59,12.36-62.38
			C1358.66,648.67,1314.76,676.3,1307.72,769.39z"/>
		<path class="st2" d="M1303.04,772.87c0,0-39.86-6.37-79.72,22.39s-68.78-1.78-59-23.73S1221.22,727.91,1303.04,772.87z"/>
		<path class="st2" d="M1347.1,845.79c0,0-39.86-6.37-79.72,22.39c-39.87,28.76-68.78-1.78-59-23.73
			C1218.15,822.51,1265.27,800.83,1347.1,845.79z"/>
		<path class="st2" d="M1369.66,921.34c0,0-39.86-6.37-79.72,22.39c-39.87,28.76-68.78-1.78-59-23.73
			C1240.71,898.06,1287.83,876.38,1369.66,921.34z"/>
		<path class="st2" d="M1393.55,1016.04c0,0-39.86-6.37-79.72,22.39c-39.87,28.76-68.78-1.78-59-23.73
			S1311.72,971.08,1393.55,1016.04z"/>
		<path class="st2" d="M1346.59,845.22c0,0,16.44-36.87,62.31-54.55c45.87-17.68,36.08-58.59,12.36-62.38
			C1397.53,724.5,1353.63,752.13,1346.59,845.22z"/>
		<path class="st2" d="M1375.32,928.7c0,0,16.44-36.87,62.31-54.55c45.87-17.68,36.08-58.59,12.36-62.38
			C1426.26,807.97,1382.35,835.6,1375.32,928.7z"/>
		<path class="st2" d="M1396.56,1014.7c0,0,16.44-36.87,62.31-54.55c45.87-17.68,36.08-58.59,12.36-62.38
			C1447.5,893.97,1403.59,921.6,1396.56,1014.7z"/>
		<g>
			<path class="st2" d="M1420.42,1255.01l-8.34-1.23c0.28-30.15-0.44-63.97-2.97-100.04c-2.9-41.27-8.41-88.44-18.37-138.01
				c-0.09-0.45-0.18-0.9-0.28-1.35c-6.16-30.5-14.02-61.89-23.98-93.37c-0.17-0.55-0.35-1.11-0.52-1.66
				c-7.91-24.81-17.12-49.65-27.85-74.14c-0.78-1.78-1.57-3.56-2.37-5.33c-10.24-22.86-21.82-45.38-34.91-67.25
				c-0.28-0.46-0.56-0.93-0.84-1.39c-7.63-12.68-15.79-25.14-24.48-37.31c-2.91-4.06-5.87-8.11-8.9-12.11
				c-1.4-1.84-1.03-4.45,0.8-5.84c1.85-1.4,4.45-1.03,5.85,0.81c0.19,0.25,0.38,0.51,0.57,0.76c12.31,16.34,23.62,33.23,33.97,50.53
				c0.11,0.17,0.2,0.33,0.3,0.49c14.65,24.5,27.43,49.8,38.56,75.45c0.08,0.17,0.15,0.35,0.23,0.53
				c11.22,25.9,20.78,52.17,28.9,78.35c0.31,1,0.62,2.01,0.92,3.01c8.3,27.07,15.06,54.04,20.57,80.37c0.35,1.66,0.7,3.32,1.04,4.97
				c10.41,51.07,16.13,99.68,19.1,142.11C1420.01,1190.04,1420.73,1224.41,1420.42,1255.01z"/>
		</g>
	</g>
	<g>
		<path class="st2" d="M1034.78,951.86c0,0-17.3-22.77-12.66-57.28c4.64-34.52-24.1-42.37-34.54-28.93
			C977.14,879.1,979.35,915.78,1034.78,951.86z"/>
		<path class="st2" d="M1063.92,964.86c0,0,1.2-28.57,26.79-52.19c25.59-23.62,8.46-48-8.16-44.31
			C1065.94,872.05,1044.24,901.71,1063.92,964.86z"/>
		<path class="st2" d="M1061.75,968.38c0,0-27.91,6.21-46.65,35.57c-18.74,29.35-45.76,16.79-45.05-0.22
			C970.75,986.72,996.12,960.14,1061.75,968.38z"/>
		<path class="st2" d="M1109.8,1004.89c0,0-27.91,6.21-46.65,35.57c-18.74,29.35-45.76,16.79-45.05-0.22
			C1018.8,1023.23,1044.18,996.65,1109.8,1004.89z"/>
		<path class="st2" d="M1144.39,1048.75c0,0-27.91,6.21-46.65,35.57c-18.74,29.35-45.76,16.79-45.05-0.22
			C1053.39,1067.09,1078.76,1040.51,1144.39,1048.75z"/>
		<path class="st2" d="M1184.85,1104.88c0,0-27.91,6.21-46.65,35.57c-18.74,29.35-45.76,16.79-45.05-0.22
			C1093.85,1123.22,1119.22,1096.64,1184.85,1104.88z"/>
		<path class="st2" d="M1109.32,1004.65c0,0,1.2-28.57,26.79-52.19c25.59-23.62,8.46-48-8.16-44.31
			C1111.34,911.84,1089.64,941.5,1109.32,1004.65z"/>
		<path class="st2" d="M1150.04,1052.12c0,0,1.2-28.57,26.79-52.19c25.59-23.62,8.46-48-8.16-44.31
			C1152.06,959.31,1130.36,988.97,1150.04,1052.12z"/>
		<path class="st2" d="M1186.49,1103.21c0,0,1.2-28.57,26.79-52.19c25.59-23.62,8.46-48-8.16-44.31
			C1188.5,1010.4,1166.81,1040.06,1186.49,1103.21z"/>
		<g>
			<path class="st2" d="M1264.96,1255.24l-5.81,1.37c-7.69-19.93-17-42.01-28.08-65.11c-12.69-26.42-28.63-56.04-48.14-86.09
				c-0.18-0.27-0.35-0.54-0.54-0.82c-12.02-18.48-25.39-37.1-40.18-55.23c-0.26-0.32-0.52-0.64-0.78-0.96
				c-11.69-14.27-24.24-28.23-37.7-41.56c-0.98-0.97-1.96-1.93-2.96-2.89c-12.71-12.38-26.22-24.19-40.55-35.17
				c-0.3-0.23-0.61-0.46-0.91-0.7c-8.34-6.36-16.96-12.43-25.86-18.18c-2.97-1.92-5.98-3.81-9.02-5.65c-1.4-0.84-1.84-2.66-1-4.06
				c0.85-1.4,2.66-1.84,4.06-1c0.19,0.12,0.39,0.23,0.58,0.35c12.38,7.54,24.23,15.72,35.57,24.4c0.11,0.08,0.22,0.16,0.33,0.25
				c16.05,12.31,31.07,25.63,45.1,39.62c0.1,0.09,0.19,0.19,0.29,0.29c14.16,14.13,27.31,28.93,39.49,44.05
				c0.47,0.58,0.94,1.16,1.4,1.74c12.53,15.66,24.03,31.65,34.54,47.56c0.67,1,1.33,2,1.98,3c20.19,30.92,36.66,61.43,49.69,88.6
				C1247.72,1212.56,1257.17,1235.01,1264.96,1255.24z"/>
		</g>
	</g>
	<path class="st1" d="M841.64,1524.49c-22.99,6.87-41.01,18.75-49.11,24.7c-0.17-0.68-0.33-1.37-0.5-2.05
		c-4.32-17.58-9.68-37.32-16.26-58.48c9.24-1.78,31.09-7.04,52.53-19.99c28.19-17.02,44.98-40.86,44.98-40.86
		s-28.92,3.75-57.11,20.77c-20.74,12.52-35.29,28.72-41.55,36.41c-5.52-17.52-11.88-35.97-19.17-54.97
		c8.67-4.21,28.15-14.84,45.33-32.59c22.9-23.66,33.04-51.01,33.04-51.01s-27,11.02-49.91,34.68c-16,16.53-25.76,34.85-30.2,44.39
		c-7.38-18.93-15.7-38.36-25.05-57.91c7.9-5.46,25.57-18.95,39.87-39.15c19.03-26.88,24.87-55.45,24.87-55.45s-25,15.01-44.03,41.89
		c-13.11,18.52-19.96,37.84-22.96,48.07c-6.39-13.14-13.24-26.31-20.59-39.41c5.28-8.11,16.46-27.21,22.04-51.2
		c7.46-32.08,2.07-60.74,2.07-60.74s-17.48,23.35-24.93,55.42c-4.53,19.49-4.32,37.71-3.45,49.01
		c-5.27-9.12-10.77-18.18-16.54-27.16c-2.83-10.97-8.52-28.32-19.13-45.34c-17.43-27.94-41.51-44.38-41.51-44.38
		s4.17,28.86,21.6,56.81c10.5,16.84,23.41,29.49,32.02,36.89c5.98,9.28,11.66,18.66,17.1,28.1c-9.9-4.07-29.17-10.75-51.7-12.1
		c-32.87-1.97-60.22,8.14-60.22,8.14s25.95,13.32,58.82,15.29c24.96,1.5,46.73-3.97,55.77-6.69c7.43,13.13,14.33,26.35,20.78,39.54
		c-9.83-1.11-31.6-2.49-55.21,3.11c-32.04,7.61-55.31,25.19-55.31,25.19s28.69,5.25,60.73-2.35c24.34-5.78,43.61-17.31,51.47-22.52
		c9.67,20.04,18.24,39.98,25.82,59.39c-9.83-1.98-31.21-5.18-54.98-1.72c-32.59,4.75-57.31,20.21-57.31,20.21s28.11,7.77,60.7,3.02
		c24.54-3.57,44.62-13.23,53.04-17.77c7.39,19.18,13.83,37.8,19.4,55.48c-9.88-2.34-30.95-6.2-54.59-3.63
		c-32.74,3.57-58.01,18.13-58.01,18.13s27.81,8.78,60.55,5.21c24.34-2.65,44.55-11.38,53.31-15.68
		c6.48,20.87,11.78,40.34,16.05,57.7c0.21,0.87,0.42,1.73,0.63,2.59c-6.54-0.97-31.55-3.91-59.06,2.62
		c-32.04,7.61-55.31,25.19-55.31,25.19s28.69,5.25,60.73-2.35c27.52-6.53,48.54-20.41,53.94-24.21
		c17.22,71.27,21.35,122.07,21.39,122.58l8.04-0.63c-0.04-0.51-4.11-50.76-21.01-121.43c9.93,0.54,31.67,0.65,54.85-6.27
		c31.55-9.43,53.77-28.31,53.77-28.31S873.19,1515.06,841.64,1524.49z"/>
	<g>
		<g>
			<path class="st3" d="M2860.74,1504.92c-4.41-2.94-7.92-3.66-11.77-1.46c-4.22,2.42-5.6,7.85-3.04,11.98l71.33,115.29
				c1.12,1.82,3.49,2.42,5.34,1.36c1.86-1.06,2.54-3.4,1.54-5.29l-2.74-5.18C2881.93,1537.35,2875.46,1516.3,2860.74,1504.92z"/>
			<path class="st3" d="M2921.1,1621.91c0,0,9.73,3.97,9.08,5.73c-0.65,1.76-25.13,35.32-28.36,36.52s-0.01-7.59-0.01-7.59
				s8.02-18.62,14.12-28.17C2915.92,1628.4,2920.63,1621.54,2921.1,1621.91z"/>
			<path class="st4" d="M2907.22,1642.44c4.15-2.19,9.57-7,14.61-13.32c1.61-2.02,3.06-4.05,4.33-6.01c3.2,1.86,6.68,4.34,5.74,5.85
				c-1.67,2.68-28.73,38.81-30.53,37.71C2897.81,1664.51,2902.27,1652.58,2907.22,1642.44z"/>
			<path class="st3" d="M2975.12,1493.95c13.95-8.28,13.79-17.18,11.72-22.67c-0.05-0.4-0.11-0.8-0.22-1.2
				c-1.24-4.7-6.12-7.44-10.78-6.05l-129.85,38.95c-2.05,0.61-3.24,2.74-2.7,4.81c0.18,0.69,0.54,1.29,1.01,1.77
				c2.79,4.17,7.69,6.54,12.79,6.03C2883.64,1512.91,2956.97,1504.71,2975.12,1493.95z"/>
			<path class="st5" d="M2979.15,1494.28c0,0-28.01,13.93-104.13,24.43c0,0,5.81-4.18,44.54,91.38l-16.14,4.52l-61.08-99.16
				c0,0-6.38-11.81,3.67-15.04s102.26-31.68,102.26-31.68l26.69,5.15L2979.15,1494.28z"/>
			<path class="st3" d="M3005.71,1597.83c-3.02-4.36-6.01-6.33-10.4-5.7c-4.81,0.69-8.1,5.23-7.24,10.01l23.75,133.47
				c0.37,2.1,2.35,3.53,4.47,3.23c2.12-0.3,3.61-2.23,3.38-4.35l-0.63-5.82C3013.44,1635.79,3015.18,1613.84,3005.71,1597.83z"/>
			<path class="st3" d="M3020.06,1735.13c0,0,2.96,10.08,1.19,10.67c-1.78,0.59-43.28,2.37-46.24,0.59
				c-2.96-1.78,5.93-4.74,5.93-4.74s19.56-5.34,30.83-6.52C3011.76,1735.13,3020.06,1734.54,3020.06,1735.13z"/>
			<path class="st4" d="M2995.35,1737.08c4.3,1.89,11.44,3.12,19.53,3.12c2.59,0,5.07-0.13,7.4-0.36c0.54,3.66,0.78,7.93-1,8.13
				c-3.13,0.36-48.25,1.73-48.52-0.36C2972.24,1743.48,2984.34,1739.54,2995.35,1737.08z"/>
			<path class="st3" d="M3002.84,1476.41c-5.59-15.23-14.36-16.7-20.14-15.66c-0.4-0.03-0.81-0.04-1.22-0.01
				c-4.85,0.36-8.44,4.66-7.92,9.49l14.54,134.79c0.23,2.13,2.1,3.69,4.23,3.53c0.71-0.05,1.37-0.29,1.92-0.67
				c4.61-1.98,7.83-6.36,8.26-11.47C3004.75,1569.82,3010.11,1496.22,3002.84,1476.41z"/>
			<path class="st5" d="M3009.68,1468.51c0,0,4.13,47.58-3.16,122c0,0,18.1,19.92,15.29,122.01l-15.29,2.2
				c0,0-22.57-110.86-23.15-117.45s-18.28-128.75-18.28-128.75H3009.68z"/>
			<path class="st6" d="M2963.62,1315.81c0,0-6.5,9.93-10.96,34.08c-4.47,24.15-0.71,74.23-7.28,91c0,0,8.8,5.43,18.25,7.19
				l7.83-82.31L2963.62,1315.81z"/>
			<path class="st3" d="M2887.88,1313.74c-3.08-0.87-5.58-3.13-6.76-6.11c-3.02-7.64-8.22-22.25-5.86-26.73
				c3.24-6.16,16.5,16.76,14.38,33.33L2887.88,1313.74z"/>
			<g>
				<path class="st6" d="M2891.11,1309.45c9.22,16.64,23.79,55.72,25.32,67.68c1.27,9.92-4.78,10.54-5.02,10.65
					c-2.81,1.23-8.01-1.29-9.19-4.74l-19.65-70.45L2891.11,1309.45z"/>
			</g>
			<path class="st6" d="M2967.89,1311.95c9.24-6.26,13.56,2.26,13.78,2.45c2.57,2.15,1.74,8.63-1.12,11.54l-67.14,61.62
				c-0.98,1.1-2.83-0.5-3.96-1.45c-0.38-0.32-0.65-0.71-0.81-1.14c-1.78-2.96-1.31-7.5,0.5-10.53
				C2918.59,1358.68,2955.88,1320.1,2967.89,1311.95z"/>
			<g>
				<path class="st7" d="M3013.39,1479.09c1.68,0.54,0.87-34-3.13-58.72c0.9-21.43-4.84-72.57-9.74-88.06
					c-6.16-19.46-15.87-30.12-32.07-22.34c-5.1,2.45-9.93,16.78-12.08,32.02c-2.15,15.24-5.17,12.18,3.21,34.52
					c2.98,7.94-4.52,61.74-8.22,75.96c-1.07,4.09-2.62,17.98-4.65,22.3c2.97,2.12,5.76,3.67,9.02,4.85
					C2978.07,1487.73,2991.02,1471.86,3013.39,1479.09z"/>
			</g>
			<path class="st6" d="M2985.48,1339.81c-5.55-8.6,2.7-13.17,2.88-13.39c2.14-2.57,8.24-2.09,10.88,0.52l55.57,61.7
				c1,0.89-0.59,2.75-1.53,3.88c-0.31,0.38-0.7,0.66-1.12,0.83c-2.88,1.85-7.16,1.62-9.95,0.02
				C3027.69,1385.04,2992.7,1350.99,2985.48,1339.81z"/>
			<path class="st8" d="M2972.26,1297.43c0.9,3.43,4.28,5.62,7.77,5.01c5.66-1,18-6.04,22.67-14.7
				c10.33-19.17-5.87-36.87-23.48-33.99c-12.63,2.07-14.77,10.94-14.52,13.58C2964.88,1269.29,2969.76,1287.95,2972.26,1297.43z"/>
			<path class="st3" d="M2987.29,1283.84l-16.39-2.4c-0.33,2.24-3.09,23.64-2.64,31.77c0.48,2.52,4.54,3.86,9.05,3
				c4.06-0.78,7.08-3.08,7.3-5.37l0.02,0C2984.35,1305.95,2986.14,1291.68,2987.29,1283.84z"/>
			<path class="st3" d="M2983.04,1288.56c-7.78,10.76-21.58,14.07-28.16,9.32c-6.58-4.75-3.44-15.77,4.34-26.53
				c7.78-10.76,17.07-12.39,23.65-7.64C2989.45,1268.47,2990.82,1277.8,2983.04,1288.56z"/>
			<path class="st8" d="M2974.68,1258.4c0,0-4.36,17.24,7.86,29.42c6.29,6.28,14.29-4.54,14.29-4.54l-2.25-14.8
				c0,0-3.88-7.65-8.76-9.3C2985.4,1259.05,2974.68,1258.4,2974.68,1258.4z"/>
			<path class="st8" d="M2965.1,1265.01c0,0,15.42,1.31,19.5-2.39c4.08-3.7-2.97-6.26-2.97-6.26S2971.38,1255.55,2965.1,1265.01z"/>
			<path class="st8" d="M2989.53,1322.05c0,0-15.15-17.28-1.52-35.11c13.63-17.83,36.15-10.32,40.98,3.94
				c5.36,15.83-2.78,25.36-9.45,29.71C3012.87,1324.95,2997.2,1326.87,2989.53,1322.05z"/>
			<path class="st3" d="M2987.76,1294.86c-2.26,2.4-7.54,3.23-9.28,1.59s-0.34-3.99,1.92-6.4c2.26-2.4,5.79-3.32,7.52-1.69
				C2989.66,1290.01,2990.02,1292.46,2987.76,1294.86z"/>
			<path class="st6" d="M2984.98,1307.41c0,0,3.8,5.89-2.21,13.41c-6,7.52-9.26,9.37-9.26,9.37s9.8,33.72,6.33,49.96
				c-3.48,16.24-8.28,60.85-6.33,79.46c0,0,40.86,11.25,43.54,8.45c0,0-8.31-90.71-7.73-97.96
				C3009.9,1362.86,3001.65,1316.81,2984.98,1307.41z"/>
			<g>
				<path class="st9" d="M3134.21,1643.01c-56.99-58.53-135.09-114.37-202.15-162.52c21.18-30.17,39.29-61.06,58.8-92.19
					c79.81,48.66,155.66,99.22,231.03,154.69C3193.96,1580.38,3168.52,1611.04,3134.21,1643.01z"/>
				<path class="st10" d="M2938.65,1479.5c19.34-27.65,35.86-55.98,53.77-84.43c76.4,47.54,149.97,95.41,222.61,148.86
					c-25.73,34.44-49.19,62.88-80.77,92.31C3083.45,1580.93,3001.13,1523.4,2938.65,1479.5z"/>
				<path class="st9" d="M3144.47,1617.52c20.61-17.45,37.55-42.16,53.88-63.72c-5.01-4.56-5.78-8.94-2.35-14.83
					c-61.8-44.36-125.06-91.58-191.43-128.58c-4.21,5.28-8.67,5.99-14.72,3.21c-11.25,19.24-23.08,38.11-35.79,56.43
					c4.92,4.45,5.99,8.59,2.79,14.52c47.08,37.83,138.49,89.43,171.26,133.75C3133.65,1614.07,3138.65,1613.41,3144.47,1617.52z"/>
				<path class="st11" d="M3123.49,1548.05c-5.84,7.58-13.55,12.85-22.66,16.13c-19.19,6.91-39.7,0.72-56.74-11.04
					s-28.66-28.06-27.76-48.58c0.43-9.76,2.9-17.92,8.29-25.78c5.39-7.85,11.76-13.09,21.03-16.93c19.49-8.07,42.94-3.75,60.04,8.32
					c17.11,12.07,28.86,31.65,27.58,52.57C3132.66,1532.66,3129.33,1540.47,3123.49,1548.05z"/>
				<path class="st12" d="M3130.11,1552.64c5.41-6.89,15.42-8.91,22.73-3.79c7.32,5.12,8.52,14.73,3.03,21.69
					s-16.04,9.02-23.35,3.74C3125.22,1568.99,3124.7,1559.52,3130.11,1552.64z"/>
				<path class="st12" d="M2988.55,1453.19c4.67-7.25,14.28-8.04,21.35-3.37c7.08,4.67,9.82,14.4,4.87,21.77
					c-4.95,7.37-14.57,8.13-21.29,3.09C2986.77,1469.64,2983.88,1460.44,2988.55,1453.19z"/>
				<g>
					<path class="st9" d="M3061.53,1539.74c-1.98,2.4-3.55,4.55-5.36,6.87c-2.93-2.01-5.87-4.01-8.78-6.05
						c1.64-2.19,3.29-4.38,4.96-6.55c-5.35-4.41-10.11-9.54-12.96-15.94c4.27-2.37,8.32-4.85,12.77-7.1
						c1.71,5.2,7.83,11.34,11.24,14.12c2.96,2.41,6.48,3.61,7.69,1.94c4.42-6.13-23.66-17.3-11.38-35.55
						c5.32-7.9,17.48-8.95,25.97-3.32c2.02-2.75,3.39-5.02,5.16-7.58c3.02,2.16,6.08,4.27,9.13,6.4c-1.63,2.42-3.27,4.84-4.92,7.25
						c4.2,3.66,7.74,7.61,10.38,12.54c-4.18,2.73-8.18,5.55-12.52,8.15c-1.58-4-7.2-9.13-9.71-11.19c-2.83-2.32-6.78-3.45-8.01-1.51
						c-4.32,6.78,24.39,16.4,11.4,33.51C3081.16,1542.91,3069.75,1543.93,3061.53,1539.74z"/>
				</g>
			</g>
			<path class="st3" d="M3009.84,1452.78c-2.89-1.38-6.26-1.32-9.11,0.14c-7.31,3.76-20.84,11.33-22.02,16.25
				c-1.62,6.77,23.46-1.74,32.77-15.61L3009.84,1452.78z"/>
			<g>
				<path class="st6" d="M3003.39,1451.47c7.42-17.51,29.21-53.08,37.69-61.65c7.03-7.11,11.25-2.74,11.48-2.61
					c2.7,1.46,3.92,7.1,1.94,10.16l-43.37,58.89L3003.39,1451.47z"/>
			</g>
		</g>
	</g>
	<g>
		<path class="st13" d="M1157.45,713.48c50.9,0,93.82,34.14,107.13,80.76h-214.25C1063.63,747.61,1106.55,713.48,1157.45,713.48z"/>
		<path class="st13" d="M635.3,675.27c74.97,0,138.2,50.28,157.8,118.97H477.49C497.09,725.55,560.32,675.27,635.3,675.27z"/>
		<path class="st13" d="M1125.04,794.24c-24.2-83.73-120.09-146.27-234.71-146.27s-210.51,62.54-234.71,146.27H1125.04z"/>
	</g>
	<g>
		<path class="st13" d="M2967.8,802.18c41.31,0,76.14,27.7,86.94,65.54h-173.88C2891.66,829.88,2926.49,802.18,2967.8,802.18z"/>
		<path class="st13" d="M2544.03,771.17c60.85,0,112.16,40.81,128.07,96.55h-256.14C2431.87,811.98,2483.18,771.17,2544.03,771.17z"
			/>
		<path class="st13" d="M2941.49,867.72c-19.64-67.95-97.46-118.71-190.48-118.71c-93.02,0-170.85,50.76-190.48,118.71H2941.49z"/>
	</g>
	<g>
		<path class="st14" d="M1571.15,488.55c16.26,0,29.98,10.91,34.23,25.81h-68.46C1541.17,499.46,1554.89,488.55,1571.15,488.55z"/>
		<path class="st14" d="M1404.3,476.34c23.96,0,44.16,16.07,50.43,38.02h-100.85C1360.14,492.41,1380.34,476.34,1404.3,476.34z"/>
		<path class="st14" d="M1560.79,514.36c-7.73-26.76-38.37-46.74-75-46.74c-36.63,0-67.27,19.98-75,46.74H1560.79z"/>
	</g>
	<g>
		<path class="st15" d="M1886.77,379.65c11.3,0,20.83,7.58,23.79,17.93h-47.58C1865.94,387.23,1875.47,379.65,1886.77,379.65z"/>
		<path class="st15" d="M1770.82,371.16c16.65,0,30.69,11.17,35.04,26.42h-70.09C1740.13,382.33,1754.17,371.16,1770.82,371.16z"/>
		<path class="st15" d="M1879.57,397.58c-5.37-18.59-26.67-32.48-52.12-32.48c-25.45,0-46.75,13.89-52.12,32.48H1879.57z"/>
	</g>
	<g>
		<path class="st16" d="M2781.26,865.15c17.14,0,31.59,11.5,36.08,27.2h-72.15C2749.66,876.65,2764.12,865.15,2781.26,865.15z"/>
		<path class="st16" d="M2605.42,852.29c25.25,0,46.54,16.93,53.14,40.06h-106.29C2558.87,869.22,2580.17,852.29,2605.42,852.29z"/>
		<path class="st16" d="M2770.34,892.35c-8.15-28.2-40.44-49.26-79.04-49.26c-38.6,0-70.89,21.06-79.04,49.26H2770.34z"/>
	</g>
	<g>
		<path class="st14" d="M958.21,785.76c21.66,0,39.92,14.52,45.58,34.36h-91.16C918.29,800.28,936.55,785.76,958.21,785.76z"/>
		<path class="st14" d="M736.04,769.5c31.9,0,58.8,21.39,67.14,50.62H668.9C677.24,790.9,704.14,769.5,736.04,769.5z"/>
		<path class="st14" d="M944.42,820.12c-10.3-35.63-51.09-62.23-99.86-62.23c-48.77,0-89.57,26.61-99.86,62.23H944.42z"/>
	</g>
	<g>
		<rect x="1432.3" y="834.73" class="st17" width="735.4" height="390.92"/>
		<rect x="1423.38" y="674.65" class="st18" width="753.24" height="200.54"/>
		<g>
			<rect x="1483.77" y="674.65" class="st14" width="4.21" height="200.54"/>
			<rect x="1546.6" y="674.65" class="st14" width="4.21" height="200.54"/>
			<rect x="1609.42" y="674.65" class="st14" width="4.21" height="200.54"/>
			<rect x="1672.25" y="674.65" class="st14" width="4.21" height="200.54"/>
			<rect x="1735.07" y="674.65" class="st14" width="4.21" height="200.54"/>
			<rect x="1797.9" y="674.65" class="st19" width="4.21" height="200.54"/>
			<rect x="1860.72" y="674.65" class="st14" width="4.21" height="200.54"/>
			<rect x="1923.55" y="674.65" class="st14" width="4.21" height="200.54"/>
			<rect x="1986.37" y="674.65" class="st14" width="4.21" height="200.54"/>
			<rect x="2049.19" y="674.65" class="st14" width="4.21" height="200.54"/>
			<rect x="2112.02" y="674.65" class="st14" width="4.21" height="200.54"/>
		</g>
		<polygon class="st20" points="1949.64,1225.66 1650.36,1225.66 1650.36,861.63 1800,654.77 1949.64,861.63 		"/>
		<polygon class="st21" points="1800,618.3 1650.36,825.16 1650.36,861.63 1800,654.77 1949.64,861.63 1949.64,825.16 		"/>
		<rect x="1674.05" y="1199.65" class="st22" width="251.91" height="26.01"/>
		<rect x="1703.94" y="1173.64" class="st23" width="192.12" height="26.01"/>
		<rect x="1731.38" y="951.43" class="st24" width="137.25" height="222.21"/>
		<rect x="1751.12" y="969.76" class="st25" width="97.76" height="47.47"/>
		<rect x="1751.12" y="1111.81" class="st25" width="97.76" height="47.47"/>
		<rect x="1751.12" y="1030.19" class="st25" width="97.76" height="67.26"/>
		<g>
			<rect x="1991.81" y="930.81" class="st22" width="124.6" height="172.86"/>
			<g>
				<g>
					<rect x="2005.76" y="945.37" class="st14" width="41.93" height="65.82"/>
					<rect x="2060.53" y="945.37" class="st14" width="41.93" height="65.82"/>
				</g>
				<g>
					<rect x="2005.76" y="1023.29" class="st14" width="41.93" height="65.82"/>
					<rect x="2060.53" y="1023.29" class="st14" width="41.93" height="65.82"/>
				</g>
			</g>
		</g>
		<g>
			<rect x="1473.43" y="930.81" class="st22" width="124.6" height="172.86"/>
			<g>
				<g>
					<rect x="1487.38" y="945.37" class="st14" width="41.93" height="65.82"/>
					<rect x="1542.15" y="945.37" class="st14" width="41.93" height="65.82"/>
				</g>
				<g>
					<rect x="1487.38" y="1023.29" class="st14" width="41.93" height="65.82"/>
					<rect x="1542.15" y="1023.29" class="st14" width="41.93" height="65.82"/>
				</g>
			</g>
		</g>
		<g>
			<rect x="1747.29" y="774.92" class="st22" width="105.41" height="146.24"/>
			<g>
				<g>
					<rect x="1759.1" y="787.24" class="st14" width="35.47" height="55.68"/>
					<rect x="1805.43" y="787.24" class="st14" width="35.47" height="55.68"/>
				</g>
				<g>
					<rect x="1759.1" y="853.16" class="st14" width="35.47" height="55.68"/>
					<rect x="1805.43" y="853.16" class="st14" width="35.47" height="55.68"/>
				</g>
			</g>
		</g>
		<path class="st9" d="M1857.77,1069.72h-24.17c-1.63,0-2.95-1.32-2.95-2.95l0,0c0-1.63,1.32-2.95,2.95-2.95h24.17
			c1.63,0,2.95,1.32,2.95,2.95l0,0C1860.72,1068.4,1859.4,1069.72,1857.77,1069.72z"/>
	</g>
	<rect x="1290.12" y="1225.66" class="st26" width="1019.76" height="135.85"/>
	<rect x="1096.76" y="1356" class="st26" width="1406.47" height="135.85"/>
	<rect x="920.92" y="1486.34" class="st26" width="1758.15" height="135.85"/>
	<rect x="742.63" y="1616.69" class="st26" width="2114.74" height="135.85"/>
	<rect x="570.4" y="1748.15" class="st26" width="2459.19" height="135.85"/>
	<g>
		<path class="st27" d="M2714,1326.53c0,0-13.14-1.49-13.07-4.01l13.07-57.25l7.74-46.97l6.77,39.33L2714,1326.53z"/>
		<path class="st28" d="M2717.89,1602.28c0,0,3.1,10.56,1.24,11.18c-1.86,0.62-45.33,2.48-48.44,0.62c-3.1-1.86,6.21-4.97,6.21-4.97
			s20.49-5.59,32.29-6.83C2709.2,1602.28,2717.89,1601.66,2717.89,1602.28z"/>
		<path class="st28" d="M2723.91,1458.83c-2.48-4.97-5.3-7.45-9.94-7.45c-5.09,0-9.17,4.22-9,9.31l4.84,141.93
			c0.08,2.24,1.91,4.01,4.15,4.01c2.24,0,4.08-1.77,4.15-4.01l0.21-6.13C2726.3,1499.34,2731.36,1476.84,2723.91,1458.83z"/>
		<path class="st29" d="M2738.52,1333.26c-3.54-16.62-12.42-19.44-18.56-19.23c-0.41-0.09-0.83-0.16-1.27-0.19
			c-5.08-0.35-9.44,3.58-9.61,8.67l-4.9,141.92c-0.08,2.24,1.63,4.13,3.87,4.29c0.75,0.05,1.46-0.1,2.09-0.41
			c5.07-1.37,9.07-5.43,10.27-10.67C2726.66,1430.4,2743.12,1354.88,2738.52,1333.26z"/>
		<path class="st30" d="M2692.01,1604.32c4.5,1.98,11.98,3.27,20.45,3.27c2.71,0,5.31-0.13,7.75-0.38c0.56,3.83,0.81,8.31-1.05,8.52
			c-3.28,0.38-50.55,1.81-50.82-0.38C2667.8,1611.03,2680.48,1606.89,2692.01,1604.32z"/>
		<path class="st28" d="M2792.93,1602.28c0,0,3.1,10.56,1.24,11.18c-1.86,0.62-45.33,2.48-48.44,0.62c-3.1-1.86,6.21-4.97,6.21-4.97
			s20.49-5.59,32.29-6.83C2784.24,1602.28,2792.93,1601.66,2792.93,1602.28z"/>
		<path class="st28" d="M2785.11,1458.43c-2.91-4.73-5.94-6.95-10.56-6.54c-5.07,0.45-8.76,5.01-8.14,10.07l17.37,140.94
			c0.27,2.22,2.26,3.83,4.49,3.63c2.23-0.2,3.9-2.13,3.78-4.36l-0.33-6.13C2791.07,1498.57,2794.13,1475.71,2785.11,1458.43z"/>
		<path class="st29" d="M2771.95,1330.69c-7.1-15.44-16.38-16.24-22.33-14.68c-0.42,0-0.85,0.03-1.28,0.1
			c-5.03,0.77-8.42,5.57-7.48,10.57l26.37,139.54c0.42,2.2,2.5,3.68,4.71,3.34c0.74-0.11,1.4-0.42,1.95-0.86
			c4.65-2.45,7.65-7.29,7.68-12.66C2781.7,1428.06,2781.18,1350.76,2771.95,1330.69z"/>
		<path class="st30" d="M2767.05,1604.32c4.5,1.98,11.98,3.27,20.45,3.27c2.71,0,5.31-0.13,7.75-0.38c0.56,3.83,0.81,8.31-1.05,8.52
			c-3.28,0.38-50.55,1.81-50.82-0.38C2742.84,1611.03,2755.52,1606.89,2767.05,1604.32z"/>
		<path class="st30" d="M2774.11,1324.49c0,0,14.7,66.32,11.03,128.11c0,0,4.17,5.39,6.93,17.23c0,0-42.16,15.76-90.86,15.3
			c0,0-0.61-17.84,0-36.26s7.87-126.37,7.87-126.37L2774.11,1324.49z"/>
		<path class="st28" d="M2661.69,1162.77c3.25-0.83,5.92-3.14,7.23-6.23c3.35-7.93,9.16-23.1,6.8-27.85
			c-3.25-6.53-17.7,17.14-15.88,34.55L2661.69,1162.77z"/>
		<g>
			<path class="st27" d="M2668.31,1157.59c4.52,19.4,8.02,62.96,6.13,75.45c-1.56,10.36-7.83,9.26-8.1,9.3
				c-3.18,0.43-7.7-3.59-7.91-7.41l0.37-76.61L2668.31,1157.59z"/>
		</g>
		<path class="st27" d="M2725.57,1160.21c9.37-7,14.3,1.72,14.54,1.9c2.79,2.12,2.24,8.95-0.62,12.13l-67.32,67.69
			c-0.98,1.19-2.98-0.39-4.21-1.32c-0.41-0.31-0.71-0.72-0.9-1.16c-2-3.01-1.73-7.79,0.02-11.04
			C2676.22,1211.47,2713.39,1169.31,2725.57,1160.21z"/>
		<g>
			<path class="st9" d="M2775.42,1334.08c1.76,0.57,0.91-35.62-3.28-61.51c0.94-22.45-5.07-76.02-10.21-92.24
				c-6.45-20.38-16.63-31.55-33.59-23.4c-5.34,2.57-10.4,17.58-12.66,33.55c-2.25,15.97-5.42,12.76,3.36,36.16
				c3.12,8.32-4.73,64.67-8.61,79.57c-1.12,4.28-2.74,18.84-4.87,23.35c3.11,2.23,6.04,3.84,9.45,5.08
				C2738.42,1343.13,2751.99,1326.5,2775.42,1334.08z"/>
		</g>
		<path class="st8" d="M2741.84,1149.99c0,0,21.49-8.39,22.42-24.47c1.26-21.6-24.95-35.5-38.09-22.1
			c-8.9,9.08-8.71,16.05-7.38,18.32C2720.13,1124.01,2741.84,1149.99,2741.84,1149.99z"/>
		<path class="st28" d="M2746.56,1129.56l-17.31-1.22c-0.17,2.37-1.37,24.93-0.27,33.39c0.7,2.6,5.04,3.68,9.69,2.42
			c4.18-1.13,7.15-3.77,7.21-6.18l0.02,0C2745.24,1152.89,2745.98,1137.84,2746.56,1129.56z"/>
		<path class="st28" d="M2745.34,1132.08c-2.62,13.66-14.27,22.91-22.62,21.31s-10.24-13.45-7.62-27.11
			c2.62-13.66,10.73-19.32,19.08-17.71C2742.53,1110.16,2747.96,1118.42,2745.34,1132.08z"/>
		<path class="st8" d="M2724.06,1107.14c0,0,3.49,18.29,20.48,24.46c8.75,3.18,11.56-10.63,11.56-10.63l-8.68-13.06
			c0,0-7.07-5.54-12.43-4.95C2734.52,1103.01,2724.06,1107.14,2724.06,1107.14z"/>
		<path class="st8" d="M2717.88,1117.66c0,0,15.22-5.58,17.46-10.9c2.24-5.32-5.59-4.63-5.59-4.63S2719.66,1105.89,2717.88,1117.66z
			"/>
		<path class="st8" d="M2757.98,1111.17c0,0-18.21-13.96-6.07-30.95s33.32-10.69,38.24,2.43c5.46,14.57-1.82,23.67-7.89,27.92
			C2776.18,1114.82,2765.26,1115.42,2757.98,1111.17z"/>
		<path class="st28" d="M2752.07,1137.09c-1.36,3.18-6.25,5.9-8.55,4.91c-2.3-0.98-1.78-3.8-0.42-6.98
			c1.36-3.18,4.49-5.36,6.79-4.37S2753.43,1133.91,2752.07,1137.09z"/>
		<path class="st27" d="M2752.64,1159.48c0,0-6.32,9.94-20.03,12.66c0,0,14.86,132.12,10.61,148.01c0,0,28.24,0.39,34.27,2.36
			c0,0-3.77-87.48-6.22-103.82C2768.8,1202.37,2763.01,1171.32,2752.64,1159.48z"/>
		<g>
			<path class="st31" d="M2818.35,1328.21c-0.32,1.59-0.69,3.16-1.13,4.68c-1.65,6.04-4.02,11.69-7.02,16.89
				c-1.6,2.8-3.38,5.47-5.34,8c-3.89,5.06-8.43,9.53-13.44,13.36c-2.56,1.95-5.23,3.72-8.03,5.31c-5.29,3.01-10.96,5.37-16.9,6.97
				c-3.07,0.84-6.24,1.48-9.44,1.88c-6.17,0.82-12.53,0.83-18.94-0.06c-1.58-0.19-3.16-0.47-4.75-0.79
				c-1.59-0.32-3.16-0.69-4.68-1.13c-6.04-1.65-11.69-4.02-16.89-7.02c-2.8-1.6-5.47-3.38-8-5.34c-5.06-3.89-9.53-8.43-13.36-13.44
				c-1.95-2.56-3.72-5.23-5.31-8.03c-3.01-5.29-5.37-10.96-6.97-16.9c-0.84-3.07-1.48-6.24-1.88-9.44
				c-0.82-6.17-0.83-12.53,0.06-18.94c0.19-1.58,0.47-3.16,0.79-4.75s0.69-3.16,1.13-4.68c1.65-6.04,4.02-11.69,7.02-16.89
				c1.6-2.8,3.38-5.47,5.34-8c3.89-5.06,8.43-9.53,13.44-13.36c2.56-1.95,5.23-3.72,8.03-5.31c5.29-3.01,10.96-5.37,16.9-6.97
				c3.07-0.84,6.24-1.48,9.44-1.88c6.17-0.82,12.53-0.83,18.94,0.06c1.58,0.19,3.16,0.47,4.75,0.79c1.59,0.32,3.16,0.69,4.68,1.13
				c6.04,1.65,11.69,4.02,16.89,7.02c2.8,1.6,5.47,3.38,8,5.34c5.06,3.89,9.53,8.43,13.36,13.44c1.95,2.56,3.72,5.23,5.31,8.03
				c3.01,5.29,5.37,10.96,6.97,16.9c0.84,3.07,1.48,6.24,1.88,9.44c0.82,6.17,0.83,12.53-0.06,18.94
				C2818.95,1325.03,2818.68,1326.61,2818.35,1328.21z"/>
			<path class="st32" d="M2770.78,1323.43l31.48,21.04l7.94,5.31c-1.6,2.8-3.38,5.47-5.34,8l-7.94-5.31l-31.99-21.36l26.48,40.03
				c-2.56,1.95-5.23,3.72-8.03,5.31l-5.26-7.95l-20.91-31.58l7.39,37.14l1.87,9.36c-3.07,0.84-6.24,1.48-9.44,1.88l-1.86-9.33
				l-7.51-37.74l-9.57,47.01c-1.58-0.19-3.16-0.47-4.75-0.79c-1.59-0.32-3.16-0.69-4.68-1.13l9.46-46.44l-21.05,31.5l-5.3,7.92
				c-2.8-1.6-5.47-3.38-8-5.34l5.29-7.94l21.38-31.98l-32.08,21.22l-7.95,5.26c-1.95-2.56-3.72-5.23-5.31-8.03l7.93-5.26l31.6-20.9
				l-37.14,7.39l-9.36,1.87c-0.84-3.07-1.48-6.24-1.88-9.44l9.33-1.86l37.74-7.51l-47.01-9.57c0.19-1.58,0.47-3.16,0.79-4.75
				s0.69-3.16,1.13-4.68l46.44,9.46l-31.5-21.05l-7.92-5.3c1.6-2.8,3.38-5.47,5.34-8l7.94,5.29l31.96,21.38l-21.22-32.08l-5.24-7.95
				c2.56-1.95,5.23-3.72,8.03-5.31l26.15,39.52l-7.39-37.14l-1.85-9.35c3.07-0.84,6.24-1.48,9.44-1.88l1.86,9.33l7.51,37.74
				l9.57-47.01c1.58,0.19,3.16,0.47,4.75,0.79c1.59,0.32,3.16,0.69,4.68,1.13l-9.46,46.44l21.05-31.5l5.3-7.92
				c2.8,1.6,5.47,3.38,8,5.34l-5.31,7.94l-21.36,31.99l32.08-21.22l7.95-5.26c1.95,2.56,3.72,5.23,5.31,8.03l-7.95,5.26l-31.6,20.9
				l37.14-7.39l9.38-1.87c0.84,3.07,1.48,6.24,1.88,9.44l-9.36,1.87l-37.71,7.5l47.01,9.57c-0.19,1.58-0.47,3.16-0.79,4.75
				c-0.32,1.59-0.69,3.16-1.13,4.68L2770.78,1323.43z"/>
			
				<ellipse transform="matrix(0.1996 -0.9799 0.9799 0.1996 911.9887 3744.0945)" class="st33" cx="2747.73" cy="1313.82" rx="62.56" ry="62.56"/>
			
				<ellipse transform="matrix(0.1996 -0.9799 0.9799 0.1996 911.9876 3744.0938)" class="st31" cx="2747.73" cy="1313.82" rx="59.04" ry="59.04"/>
			<g>
				<path class="st33" d="M2718.34,1335.15l-10.07,4.28l-5.43-12.79l9.62-4.08c-3.31-9.31-4.6-19.15-3.55-26.02l18.54,0.27
					c-1,7.49,0.13,16.44,3.09,23.43c2.58,6.08,4.78,7.72,6.95,6.79c7.99-3.39-13.37-35.77,10.31-45.83
					c10.25-4.35,22.03-0.57,30.44,13.42l9.89-4.2l5.43,12.79l-9.71,4.12c2.22,6.98,3.27,14.25,2.56,20.65l-18.25,0.15
					c0.52-7.61-0.45-14.16-2.8-19.7c-2.66-6.26-5.32-7.49-7.5-6.56c-7.62,3.24,13.64,35.66-9.77,45.6
					C2738.3,1351.62,2726.76,1348.17,2718.34,1335.15z"/>
			</g>
		</g>
		<path class="st27" d="M2761.15,1173.16c-8.71-7.22-14.23,1.07-14.48,1.23c-2.91,1.95-2.89,8.63-0.32,11.85l61.2,68.83
			c0.87,1.2,2.97-0.25,4.25-1.11c0.43-0.29,0.75-0.67,0.97-1.09c2.21-2.85,2.3-7.52,0.82-10.76
			C2805.9,1225.21,2772.47,1182.54,2761.15,1173.16z"/>
		<path class="st28" d="M2753.53,1298.75c1.93,2.74,2.47,6.23,1.45,9.43c-2.6,8.21-8.03,23.52-12.9,25.6
			c-6.71,2.86-2.34-24.53,10.35-36.59L2753.53,1298.75z"/>
		<g>
			<path class="st27" d="M2756.03,1305.19c16.78-10.75,49.66-39.51,57.03-49.78c6.11-8.51,0.85-12.1,0.68-12.31
				c-1.98-2.53-8.02-2.8-10.83-0.21l-53.18,55.15L2756.03,1305.19z"/>
		</g>
	</g>
	<g>
		<path class="st1" d="M2124.41,1845.47c24.28,0,44.76,16.29,51.11,38.53H2073.3C2079.65,1861.76,2100.12,1845.47,2124.41,1845.47z"
			/>
		<path class="st1" d="M1875.29,1827.24c35.77,0,65.94,23.99,75.29,56.76H1800C1809.35,1851.23,1839.52,1827.24,1875.29,1827.24z"/>
		<path class="st1" d="M2108.94,1884c-11.54-39.95-57.29-69.79-111.98-69.79c-54.69,0-100.43,29.84-111.98,69.79H2108.94z"/>
	</g>
	<g>
		<path class="st15" d="M1821.04,1866.54c11.01,0,20.29,7.38,23.17,17.46h-46.33C1800.75,1873.92,1810.03,1866.54,1821.04,1866.54z"
			/>
		<path class="st15" d="M1708.12,1858.27c16.21,0,29.89,10.87,34.13,25.73h-68.25C1678.23,1869.15,1691.9,1858.27,1708.12,1858.27z"
			/>
		<path class="st15" d="M1814.03,1884c-5.23-18.11-25.97-31.63-50.76-31.63c-24.79,0-45.52,13.52-50.76,31.63H1814.03z"/>
	</g>
	<g>
		<path class="st15" d="M1652.49,1771.28c3.9-1.99,8.67-0.43,10.66,3.47c0.89,1.75,1.06,3.67,0.64,5.43
			c7.6,5.41,14.76,11.31,21.43,17.41c-2.26-7.12-5.09-17.89-5.74-28.84c-2.09-0.56-3.94-1.97-5-4.05c-1.99-3.9-0.43-8.67,3.47-10.66
			c3.9-1.99,8.67-0.43,10.66,3.47c1.99,3.9,0.43,8.67-3.47,10.66c-0.45,0.23-0.91,0.41-1.38,0.54c1.04,16.39,7.26,32.79,8.26,35.31
			c14.32,14.04,26.06,28.58,34.6,40.26c15.34,21,23.97,37.59,24.05,37.75l-3.8,1.96c-0.08-0.16-8.56-16.46-23.71-37.19
			c-4.55-6.23-10.04-13.29-16.34-20.65c-3.06-0.27-14.6-0.87-29.36,3.39c0.37,3.19-1.24,6.42-4.27,7.97
			c-3.9,1.99-8.67,0.43-10.66-3.47c-1.99-3.9-0.43-8.67,3.47-10.66c3.44-1.75,7.54-0.75,9.83,2.18c11.69-3.44,21.43-3.97,27.08-3.88
			c-11.49-12.93-25.41-26.42-41.23-37.75c-0.58,0.58-1.25,1.08-2.01,1.47c-3.9,1.99-8.67,0.43-10.66-3.47
			C1647.04,1778.04,1648.59,1773.27,1652.49,1771.28z"/>
		<path class="st15" d="M1755.52,1814.1c-2.77-1.33-13.35-5.95-28.67-7.17c-0.78,3.12-3.42,5.58-6.8,5.95
			c-4.35,0.48-8.27-2.65-8.75-7s2.65-8.27,7-8.75c3.83-0.43,7.32,1.96,8.43,5.5c12.15,0.9,21.45,3.83,26.72,5.9
			c-6.2-16.15-14.47-33.68-25.3-49.85c-0.74,0.34-1.55,0.57-2.4,0.66c-4.35,0.48-8.27-2.65-8.75-7c-0.48-4.35,2.65-8.27,7-8.75
			c4.35-0.48,8.27,2.65,8.75,7c0.22,1.95-0.3,3.81-1.31,5.31c5.2,7.74,9.83,15.78,13.93,23.84c0.39-7.46,1.54-18.53,4.79-29.01
			c-1.76-1.26-2.99-3.23-3.25-5.55c-0.48-4.35,2.65-8.27,7-8.75c4.35-0.48,8.27,2.65,8.75,7c0.48,4.35-2.65,8.27-7,8.75
			c-0.5,0.06-1,0.06-1.48,0.02c-4.8,15.71-4.75,33.24-4.71,35.96c8.46,18.18,14.33,35.93,18.2,49.87
			c6.96,25.06,9.19,43.62,9.21,43.81l-4.24,0.5c-0.02-0.18-2.21-18.42-9.09-43.16C1761.47,1831.74,1758.82,1823.2,1755.52,1814.1z"
			/>
	</g>
	<g>
		<path class="st34" d="M1702.81,1459.86c0.78-6.07,2.8-9.67,7.62-11.36c5.29-1.85,11.07,1.06,12.73,6.41l46.5,149.32
			c0.73,2.35-0.53,4.87-2.86,5.68c-2.33,0.81-4.88-0.37-5.77-2.66l-2.44-6.3C1715.04,1502.85,1701.6,1481.29,1702.81,1459.86z"/>
		<path class="st34" d="M1567.77,1462.11c-17.39-6.92-18.81-17.08-17.44-23.71c-0.02-0.46-0.02-0.93,0.03-1.41
			c0.56-5.58,5.64-9.58,11.19-8.83l154.98,20.95c2.44,0.33,4.19,2.54,3.94,4.99c-0.08,0.82-0.38,1.57-0.83,2.19
			c-2.43,5.25-7.58,8.84-13.48,9.17C1675.42,1467.22,1590.38,1471.11,1567.77,1462.11z"/>
		<path class="st30" d="M1762.89,1603.77c3.35,0,6.31-0.5,8.07-1.26c11.73,1.64,35.61,7.14,34.86,13.01
			c-0.27,2.16-46.86,0.75-50.1,0.37c-2.28-0.26-1.35-7.01-0.6-10.98c0.21-1.12,1.3-1.83,2.42-1.61
			C1759.08,1603.6,1760.92,1603.77,1762.89,1603.77z"/>
		<path class="st35" d="M1763.92,1579.26l-16.83,5.65c0,0-43.77-82.81-47.32-114.16c0,0-112.08,1.63-135.06-6.51l8.17-39.13
			c0,0,141.74,16.66,147.62,20.8C1726.39,1450.04,1763.92,1579.26,1763.92,1579.26z"/>
		<path class="st34" d="M1538.4,1583.98c4.27-4.38,8.06-6.04,12.92-4.48c5.34,1.71,8.2,7.5,6.31,12.78l-52.71,147.24
			c-0.83,2.32-3.35,3.57-5.7,2.82c-2.35-0.75-3.68-3.23-3.01-5.6l1.84-6.5C1522.3,1625.67,1524.54,1600.37,1538.4,1583.98z"/>
		<path class="st36" d="M1548.71,1441.9c7.38-17.2,17.58-18.34,24.17-16.8c0.46-0.01,0.93,0.01,1.41,0.07
			c5.56,0.71,9.43,5.89,8.53,11.42l-25.09,154.37c-0.4,2.43-2.65,4.12-5.1,3.8c-0.82-0.1-1.56-0.42-2.17-0.89
			c-5.19-2.57-8.63-7.81-8.81-13.72C1540.72,1549.39,1539.11,1464.27,1548.71,1441.9z"/>
		<path class="st30" d="M1501.15,1738.88c3.35,0,6.31-0.5,8.07-1.26c11.72,1.64,35.61,7.14,34.86,13.01
			c-0.27,2.16-46.86,0.75-50.1,0.37c-2.28-0.26-1.35-7.01-0.6-10.98c0.21-1.12,1.3-1.83,2.42-1.61
			C1497.34,1738.7,1499.18,1738.88,1501.15,1738.88z"/>
		<path class="st35" d="M1546.66,1415.81c0,0-10.18,50.91-8.33,162.93c0,0-24.99,26.85-39.81,137.01l17.59,0.93
			c0,0,45.36-124.05,46.29-129.6c0.93-5.55,30.55-174.96,30.55-174.96L1546.66,1415.81z"/>
		<path class="st34" d="M1709.25,1373.89c0.46,3.72,2.63,7.01,5.87,8.9c8.31,4.85,24.29,13.45,29.88,11.52
			c7.7-2.66-16.46-22.06-36.01-22.53L1709.25,1373.89z"/>
		<path class="st1" d="M1540.68,1297.61c-7.37-10.79,2.6-15.88,2.81-16.14c2.5-3.01,10.1-2.07,13.51,1.27l72.36,78.36
			c1.29,1.15,0.48,8.09-0.62,9.41c-0.37,0.44-0.83,0.76-1.34,0.95c-3.46,2.09-10.06-2.87-13.39-5.32
			C1597.72,1354.09,1550.26,1311.65,1540.68,1297.61z"/>
		<g>
			<path class="st1" d="M1714.46,1381.98c-22.18,1.87-70.9-1.28-84.4-5.38c-11.2-3.4-8.97-10.15-8.97-10.46
				c0.03-3.59,5.21-7.94,9.46-7.55l84.64,12.76L1714.46,1381.98z"/>
		</g>
		<g>
			<path class="st1" d="M1516.22,1344.06c-4.33-15.28-7.37-37.91,1.86-55.17c10.23-19.13,28.94-18.54,37.52-11.17
				c6.8,5.24,12.05,13.8,12.05,25.4c0,14.16,4.69,27.27,10.79,41.39c0.37,0.87,8.37,21.89,10.11,26.2
				c1.05,2.6,7.74,18.99,9.69,24.33c0.54,1.49,1.18,3.2,1.78,4.75c0.46,1.2,0.9,2.43,1.36,3.7c1.08,3,2.22,6.4,3.22,9.37
				c0.87,2.59,1.76,5.11,2.6,7.52c1.12,3.24,2.12,6.11,3.24,9.26c-7.11,2.16-13.66,2.08-20.85,0.89
				c-12.09-2.01-22.53-1.96-34.14,1.65c-3.89,1.21-9.11,3.42-12.73,5.08C1533.11,1387.85,1516.76,1345.94,1516.22,1344.06z"/>
		</g>
		<g>
			<path class="st31" d="M1503.38,1511.14c-1.37-0.88-2.7-1.78-3.96-2.74c-5.05-3.71-9.47-7.96-13.24-12.63
				c-2.04-2.5-3.89-5.12-5.54-7.86c-3.32-5.45-5.86-11.29-7.63-17.35c-0.9-3.09-1.59-6.22-2.07-9.4
				c-0.91-6.01-1.06-12.16-0.43-18.28c0.32-3.17,0.86-6.36,1.65-9.49c1.46-6.05,3.73-11.99,6.87-17.65c0.74-1.4,1.57-2.78,2.45-4.15
				s1.78-2.7,2.74-3.96c3.71-5.05,7.96-9.47,12.63-13.24c2.5-2.04,5.12-3.89,7.86-5.54c5.45-3.32,11.29-5.86,17.35-7.63
				c3.09-0.9,6.22-1.59,9.4-2.07c6.01-0.91,12.16-1.06,18.28-0.43c3.17,0.32,6.36,0.86,9.49,1.65c6.05,1.46,11.99,3.73,17.65,6.87
				c1.4,0.74,2.78,1.57,4.15,2.45c1.37,0.88,2.7,1.78,3.96,2.74c5.05,3.71,9.47,7.96,13.24,12.63c2.04,2.5,3.89,5.12,5.54,7.86
				c3.32,5.45,5.86,11.29,7.63,17.35c0.9,3.09,1.59,6.22,2.07,9.4c0.91,6.01,1.07,12.16,0.43,18.28c-0.32,3.17-0.86,6.36-1.65,9.49
				c-1.46,6.05-3.73,11.99-6.87,17.65c-0.74,1.4-1.57,2.78-2.45,4.15c-0.88,1.37-1.78,2.7-2.74,3.96
				c-3.71,5.05-7.96,9.47-12.63,13.24c-2.5,2.04-5.12,3.89-7.86,5.54c-5.45,3.32-11.29,5.86-17.35,7.63
				c-3.09,0.9-6.22,1.59-9.4,2.07c-6.01,0.91-12.16,1.07-18.28,0.43c-3.17-0.32-6.36-0.86-9.49-1.65
				c-6.05-1.46-11.99-3.73-17.65-6.87C1506.12,1512.84,1504.75,1512.01,1503.38,1511.14z"/>
			<path class="st32" d="M1524.94,1468.47l-30.96,21.81l-7.81,5.5c-2.04-2.5-3.89-5.12-5.54-7.86l7.81-5.5l31.44-22.16l-46.87,10.32
				c-0.9-3.09-1.59-6.22-2.07-9.4l9.31-2.05l36.98-8.16l-37.32-6.46l-9.4-1.62c0.32-3.17,0.86-6.36,1.65-9.49l9.37,1.62l37.91,6.56
				l-40.42-25.84c0.74-1.4,1.57-2.78,2.45-4.15s1.78-2.7,2.74-3.96l39.93,25.53l-21.83-30.97l-5.48-7.79
				c2.5-2.04,5.12-3.89,7.86-5.54l5.51,7.79l22.15,31.45l-8.27-37.56l-2.05-9.31c3.09-0.9,6.22-1.59,9.4-2.07l2.06,9.29l8.14,37
				l6.46-37.32l1.62-9.4c3.17,0.32,6.36,0.86,9.49,1.65l-1.62,9.37l-6.56,37.91l25.84-40.42c1.4,0.74,2.78,1.57,4.15,2.45
				c1.37,0.88,2.7,1.78,3.96,2.74l-25.53,39.93l30.97-21.83l7.79-5.48c2.04,2.5,3.89,5.12,5.54,7.86l-7.79,5.51l-31.44,22.13
				l37.56-8.27l9.3-2.03c0.9,3.09,1.59,6.22,2.07,9.4l-46.28,10.19l37.32,6.46l9.39,1.64c-0.32,3.17-0.86,6.36-1.65,9.49l-9.37-1.62
				l-37.91-6.56l40.42,25.84c-0.74,1.4-1.57,2.78-2.45,4.15c-0.88,1.37-1.78,2.7-2.74,3.96l-39.93-25.53l21.83,30.97l5.48,7.79
				c-2.5,2.04-5.12,3.89-7.86,5.54l-5.5-7.81l-22.16-31.44l8.27,37.56l2.05,9.31c-3.09,0.9-6.22,1.59-9.4,2.07l-2.05-9.31l-8.14-37
				l-6.46,37.32l-1.63,9.42c-3.17-0.32-6.36-0.86-9.49-1.65l1.62-9.4l6.57-37.88l-25.84,40.42c-1.4-0.74-2.78-1.57-4.15-2.45
				c-1.37-0.88-2.7-1.78-3.96-2.74L1524.94,1468.47z"/>
			
				<ellipse transform="matrix(0.5386 -0.8426 0.8426 0.5386 -510.4879 1968.6432)" class="st33" cx="1542.19" cy="1450.41" rx="62.56" ry="62.56"/>
			
				<ellipse transform="matrix(0.5386 -0.8426 0.8426 0.5386 -510.488 1968.6426)" class="st31" cx="1542.19" cy="1450.41" rx="59.04" ry="59.04"/>
			<g>
				<path class="st33" d="M1532.87,1415.32l-0.37-10.94l13.89-0.47l0.35,10.44c9.87,0.26,19.52,2.6,25.55,6.04l-6.92,17.2
					c-6.63-3.62-15.39-5.79-22.97-5.54c-6.6,0.22-8.92,1.68-8.84,4.05c0.29,8.67,38.19,0.39,39.05,26.1
					c0.38,11.13-7.39,20.77-23.47,23.58l0.36,10.74l-13.89,0.47l-0.36-10.54c-7.31-0.44-14.47-2.08-20.19-5.04l6.43-17.08
					c6.91,3.22,13.38,4.68,19.39,4.48c6.8-0.23,8.9-2.27,8.82-4.64c-0.28-8.28-38.18-0.09-39.03-25.51
					C1510.31,1428.02,1517.69,1418.5,1532.87,1415.32z"/>
			</g>
		</g>
		<g>
			<path class="st8" d="M1564.13,1255.12c0,0-1.21-7.3-7.02-11.04s-4.18,3.45-4.18,3.45L1564.13,1255.12z"/>
			<path class="st8" d="M1519.28,1263.58c0.63,0.4,11.14,8.8,13.09,7.91c2.67-1.22-3.03-9.16-3.03-9.16L1519.28,1263.58z"/>
			<path class="st8" d="M1544.69,1230.03c0,0-0.59-6.96-4.95-9.61c-4.15-2.52-9.97-4.37-22.56,6.75c-1.8,1.59-2.2,4.23-0.97,6.29
				l3.49,5.83L1544.69,1230.03z"/>
			<path class="st34" d="M1524.07,1256.44c6.25,7.7,12.01,13.62,19.47,14.04c2.62,0.15,5.6-0.16,8.59-1.42
				c1.87-0.78,3.74-1.93,5.53-3.57c4.67-4.26,5.64-8.61,4.34-13.26c-1.48-5.33-5.93-11.06-11.17-17.52
				c-9.82-12.09-20.8-13.38-28.19-7.38C1515.25,1233.34,1514.26,1244.35,1524.07,1256.44z"/>
			<path class="st34" d="M1521.45,1253.82l15.57-5.01c0.69,2.13,6.86,22.51,7.75,30.5c-0.06,2.53-3.79,4.5-8.32,4.39
				c-4.08-0.1-7.4-1.84-7.98-4.04l-0.02,0C1527.91,1274.87,1523.84,1261.27,1521.45,1253.82z"/>
			<path class="st8" d="M1520.19,1264.27c0,0,4.14-1.09,5.2-5.91c1.39-6.34-0.34-17.25-1.84-21.8c-2.63-7.99-5.8-8.63-5.8-8.63
				s-12.79,9.17-12.96,15.38C1504.54,1252.6,1520.19,1264.27,1520.19,1264.27z"/>
			<path class="st8" d="M1523.66,1247.08l14.31,17.65c1.51,1.87,3.98,2.64,6.29,1.98l2.65-0.76c1.63-0.47,2.43-2.31,1.65-3.81
				l-2.12-4.12c-0.48-0.92-0.28-2.05,0.47-2.76l7.49-7.09c0.8-0.76,2.02-0.85,2.93-0.23l3.77,2.61c3.72,2.57,4.3,7.85,1.22,11.16
				l-4.27,4.6c-0.91,0.98-2.05,1.73-3.31,2.17c-0.09,0.04-0.19,0.07-0.29,0.1l-0.17,0.05c0,0-0.01,0-0.01,0l-2.04,0.58l0,0
				l-6.68,1.91c-4.08,1.17-8.46-0.21-11.13-3.51l-14.31-17.65L1523.66,1247.08z"/>
			<path class="st34" d="M1518.91,1261.16c2.11,2.63,7.43,3.89,9.33,2.36c1.9-1.53,0.67-4.05-1.45-6.68
				c-2.11-2.63-5.64-3.85-7.54-2.32C1517.35,1256.06,1516.79,1258.53,1518.91,1261.16z"/>
			<path class="st8" d="M1520.57,1234.45l7.84-6.26c2.63-2.1,5.93-3.18,9.29-3.04l4.57,0.18l-9.52-4.41l-8.2,2.67l-7.53,6.99
				L1520.57,1234.45z"/>
		</g>
		<g>
			<path class="st18" d="M1543.52,1288.39c12.93,30.9,6.42,62,23.18,92.9c5.01,2.5,10.22,4.65,15.36,6.87
				c1.5-5.69,2.93-11.31,3.84-17.12c-20.8-28.23-20.25-56.8-36.36-84.92C1547.52,1286.84,1545.52,1287.63,1543.52,1288.39z"/>
		</g>
		<path class="st1" d="M1535.49,1303.05c5.98-11.62-4.54-15.44-4.78-15.67c-2.86-2.68-10.28-0.81-13.25,2.92l-62.15,86.69
			c-1.13,1.3,0.98,3.22,2.24,4.39c0.42,0.39,0.92,0.65,1.44,0.77c3.69,1.65,8.9,0.47,12.16-2.07
			C1488.13,1366.91,1527.72,1318.16,1535.49,1303.05z"/>
		<path class="st34" d="M1528.99,1433.23c2.09-3.11,5.51-5.07,9.26-5.29c9.6-0.57,27.75-1.03,31.86,3.23
			c5.67,5.86-24.66,12.24-42.31,3.83L1528.99,1433.23z"/>
		<g>
			<path class="st1" d="M1534.88,1428.12c-15.32-16.15-53.81-46.19-66.62-52.1c-10.63-4.91-13.45,1.62-13.65,1.85
				c-2.36,2.7-1.39,9.4,2.05,11.93l71.71,46.75L1534.88,1428.12z"/>
		</g>
	</g>
	<g>
		<path class="st29" d="M2240.63,877.26c-3-2.21-4.78-5.69-4.84-9.41c-0.15-9.55,0.19-27.57,4.59-31.47
			c6.05-5.37,11.07,24.99,1.96,42.13L2240.63,877.26z"/>
		<path class="st13" d="M2271.06,1033.01c10.56,7.53,15.82-2.25,16.08-2.46c3.04-2.42,2.26-9.98-0.98-13.44l-76.29-73.44
			c-1.11-1.3-8.02-0.65-9.35,0.42c-0.45,0.36-0.77,0.81-0.97,1.31c-2.15,3.39,2.64,10.05,5.01,13.4
			C2216.17,975.23,2257.32,1023.22,2271.06,1033.01z"/>
		<g>
			<path class="st13" d="M2236.17,868.81c-12.42,18.28-33.41,61.97-36.44,75.65c-2.51,11.35,4.41,12.71,4.68,12.85
				c3.12,1.72,9.41-0.64,11.14-4.51l30.17-79.45L2236.17,868.81z"/>
		</g>
		<path class="st29" d="M2242.75,1324.11c-4.24-4.35-8-5.99-12.83-4.45c-5.3,1.7-8.14,7.45-6.27,12.69l52.33,146.19
			c0.83,2.31,3.33,3.54,5.66,2.8c2.33-0.75,3.65-3.21,2.99-5.56l-1.83-6.46C2258.74,1365.51,2256.51,1340.39,2242.75,1324.11z"/>
		<path class="st13" d="M2279.37,1189.21c-1.23-18.54-10.41-22.98-17.09-23.71c-0.43-0.16-0.88-0.3-1.34-0.4
			c-5.44-1.17-10.77,2.4-11.76,7.88l-27.47,152.83c-0.43,2.41,1.12,4.73,3.52,5.24c0.8,0.17,1.6,0.12,2.33-0.11
			c5.71-0.69,10.66-4.47,12.78-9.94C2251.36,1292.49,2280.97,1213.32,2279.37,1189.21z"/>
		<path class="st29" d="M2295.03,1324.11c-4.24-4.35-8-5.99-12.83-4.45c-5.3,1.7-8.14,7.45-6.27,12.69l52.33,146.19
			c0.83,2.31,3.33,3.54,5.66,2.8c2.33-0.75,3.65-3.21,2.99-5.56l-1.83-6.46C2311.01,1365.51,2308.79,1340.39,2295.03,1324.11z"/>
		<path class="st13" d="M2310.18,1185.34c-4.21-18.1-13.98-21-20.69-20.64c-0.45-0.09-0.91-0.15-1.39-0.18
			c-5.56-0.28-10.24,4.11-10.33,9.68l-2.42,155.26c-0.04,2.45,1.87,4.49,4.32,4.61c0.82,0.04,1.59-0.14,2.28-0.49
			c5.52-1.61,9.8-6.13,11-11.88C2299.23,1291.78,2315.66,1208.88,2310.18,1185.34z"/>
		<path class="st30" d="M2334.76,1477.9c-3.33,0-6.27-0.5-8.01-1.25c-11.64,1.63-35.35,7.09-34.62,12.91
			c0.27,2.14,46.53,0.74,49.74,0.37c2.26-0.26,1.34-6.96,0.59-10.9c-0.21-1.11-1.29-1.82-2.4-1.6
			C2338.54,1477.73,2336.72,1477.9,2334.76,1477.9z"/>
		<path class="st30" d="M2280.57,1477.9c-3.33,0-6.27-0.5-8.01-1.25c-11.64,1.63-35.35,7.09-34.62,12.91
			c0.27,2.14,46.53,0.74,49.74,0.37c2.26-0.26,1.34-6.96,0.59-10.9c-0.21-1.11-1.29-1.82-2.4-1.6
			C2284.35,1477.73,2282.53,1477.9,2280.57,1477.9z"/>
		<path class="st37" d="M2250.54,1159.21c0,0-30.26,148.64-30.7,159.88c-0.44,11.25,2.31,18.06,5.71,26.38
			c3.4,8.32,39.98,110.96,39.98,110.96l13.9-1.8c0,0-14.88-109.28-35.37-133.9c0,0,51.78-149,51.78-161.52H2250.54z"/>
		<path class="st37" d="M2330.6,1449.8l-12.89,3.22c0,0-44.58-116.09-44.27-121.86s0-171.94,0-171.94l39.08,1.99
			c0,0,7.06,70.55-16.67,159.91C2295.85,1321.12,2312.42,1327.71,2330.6,1449.8z"/>
		<g>
			<path class="st13" d="M2320.07,1145.58c0.74-3.52,1.42-6.98,2.01-10.38c0.4-2.25,0.77-4.47,1.11-6.65
				c0.78-4.96,1.41-9.8,1.9-14.56c0.23-2.26,0.43-4.51,0.61-6.73c0.44-5.5,0.71-10.86,0.81-16.12c0.04-2.27,0.08-4.5,0.06-6.73
				c-0.06-14.56-1.34-28.3-3.44-41.51c-1.23-7.72-2.86-14.49-4.66-20.39c-5.41-17.61-27.5-23.31-40.83-10.61l-2.88,2.74
				c-7.36,6.99-10.19,17.43-7.62,27.27c2.82,10.82,3.51,26.6-0.69,51.01c-0.26,1.5-0.53,3.03-0.83,4.6c-0.43,2.23-0.9,4.5-1.38,6.87
				c-0.71,3.31-1.49,6.78-2.35,10.38c-0.52,2.17-1.08,4.38-1.65,6.65c-1.03,4.02-2.15,8.2-3.39,12.56c-0.35,1.22-0.7,2.45-1.06,3.69
				c-0.28,0.97-0.56,1.94-0.85,2.92c-0.67,2.33-1.4,4.75-2.15,7.19c-0.66,2.13-1.33,4.31-2.04,6.53c-0.95,2.98-1.94,6.04-2.97,9.17
				c6.31,2.59,13.74,3.26,20.65,2.89c11.61-0.63,23.39-3.34,34.72-0.75c3.8,0.87,7.42,2.31,11.07,3.69
				c1.65-5.85,3.12-11.57,4.41-17.16C2319.14,1149.94,2319.61,1147.74,2320.07,1145.58z"/>
		</g>
		<g>
			<path class="st9" d="M2480.5,1226.08c-81.57,4.38-175.02,26.42-255.41,45.21c-8.77-35.8-20.1-69.77-30.7-104.95
				c89.17-28.05,177.16-51.88,268.52-72.1C2472.68,1139.88,2479.02,1179.21,2480.5,1226.08z"/>
			<path class="st10" d="M2228.68,1265.67c-8.08-32.76-18.54-63.85-28.17-96.05c86.08-26.23,170.54-50.1,258.59-69.6
				c8.99,42.04,14.96,78.42,16.33,121.56C2400.35,1223.43,2302.86,1247.53,2228.68,1265.67z"/>
			<path class="st9" d="M2468.06,1201.58c0.43-27-7.02-56.01-12.51-82.51c-6.73,0.77-10.54-1.53-12.71-7.99
				c-74.08,17.33-151.26,33.87-222.8,59.47c1.2,6.64-1.19,10.47-7.27,13.19c7.08,21.14,13.5,42.46,18.92,64.09
				c6.58-0.77,10.4,1.14,12.77,7.45c59.47-10.54,158.48-45.39,213.42-40.89C2458.35,1207.46,2461.13,1203.25,2468.06,1201.58z"/>
			<path class="st11" d="M2401.96,1171.65c1.86,9.39,0.75,18.66-2.77,27.67c-7.43,18.99-25.6,30.36-45.66,35.44
				s-39.99,3.1-54.84-11.08c-7.06-6.74-11.59-13.98-13.95-23.21c-2.37-9.22-2.12-17.47,1.1-26.97
				c6.76-19.99,25.43-34.79,45.78-39.73c20.35-4.93,42.83-0.89,57.73,13.84C2396.41,1154.62,2400.1,1162.26,2401.96,1171.65z"/>
			<path class="st12" d="M2409.76,1169.68c-1.63-8.6,3.44-17.47,12.11-19.61c8.67-2.14,16.7,3.29,18.32,12
				c1.62,8.71-3.77,18.01-12.55,20.04C2418.86,1184.13,2411.39,1178.29,2409.76,1169.68z"/>
			<path class="st12" d="M2241.73,1210.79c-2.38-8.29,3.34-16.04,11.52-18.3s17.31,2.09,19.6,10.67
				c2.29,8.57-3.47,16.32-11.69,18.06C2252.93,1222.96,2244.11,1219.08,2241.73,1210.79z"/>
			<g>
				<path class="st9" d="M2354.92,1212.82c0.5,3.07,1.09,5.67,1.65,8.56c-3.44,0.88-6.88,1.78-10.34,2.63
					c-0.57-2.68-1.13-5.36-1.67-8.04c-6.84,1.13-13.84,1.33-20.53-0.73c1.03-4.78,1.82-9.46,3.06-14.29
					c5.04,2.14,13.69,1.57,18.02,0.83c3.77-0.64,6.99-2.5,6.52-4.51c-1.7-7.36-28.6,6.42-34.25-14.83
					c-2.45-9.2,4.76-19.05,14.6-21.73c-0.75-3.33-1.54-5.86-2.31-8.87c3.61-0.85,7.22-1.77,10.82-2.66
					c0.75,2.82,1.49,5.65,2.22,8.47c5.52-0.75,10.82-0.82,16.28,0.44c-0.7,4.94-1.21,9.81-2.1,14.79
					c-4.05-1.44-11.62-0.59-14.81-0.06c-3.61,0.6-7.06,2.83-6.41,5.04c2.26,7.72,28.4-7.57,32.73,13.48
					C2370.23,1200.13,2363.48,1209.39,2354.92,1212.82z"/>
			</g>
		</g>
		<g>
			<path class="st8" d="M2268.22,957.61c0.63-1.55,2.25-2.58,3.09-3.97c0.86-1.43,1-3.35,2.05-4.6c1.07-1.27,2.93-1.75,4.17-2.82
				c1.25-1.08,1.99-2.86,3.38-3.73c1.4-0.87,3.32-0.75,4.84-1.39c1.51-0.64,2.76-2.11,4.36-2.51c1.59-0.4,3.38,0.31,5.03,0.16
				c1.63-0.14,3.27-1.16,4.92-1.04c1.63,0.11,3.11,1.34,4.73,1.72c1.58,0.37,3.45-0.09,5,0.54c1.55,0.63,2.58,2.25,3.97,3.09
				c1.43,0.86,3.35,1,4.6,2.05c1.27,1.07,1.75,2.93,2.82,4.17c1.08,1.25,2.86,1.99,3.73,3.38c0.87,1.4,0.75,3.32,1.39,4.84
				c0.64,1.51,2.11,2.76,2.51,4.36c0.4,1.59-0.31,3.38-0.16,5.03c0.14,1.63,1.16,3.27,1.04,4.92c-0.11,1.63-1.34,3.11-1.72,4.73
				c-0.37,1.58,0.09,3.45-0.54,5c-0.63,1.55-2.25,2.58-3.09,3.97c-0.86,1.43-1,3.35-2.05,4.6c-1.07,1.27-2.93,1.75-4.17,2.82
				c-1.25,1.08-1.99,2.86-3.38,3.73c-1.4,0.87-3.32,0.75-4.84,1.39s-2.76,2.11-4.36,2.51c-1.59,0.4-3.38-0.31-5.03-0.16
				c-1.63,0.14-3.27,1.16-4.92,1.04c-1.63-0.11-3.11-1.34-4.73-1.72c-1.58-0.37-3.45,0.09-5-0.54s-2.58-2.25-3.97-3.09
				c-1.43-0.86-3.35-1-4.6-2.05c-1.27-1.07-1.75-2.93-2.82-4.17c-1.08-1.25-2.86-1.99-3.73-3.38c-0.87-1.4-0.75-3.32-1.39-4.84
				c-0.64-1.51-2.11-2.76-2.51-4.36c-0.4-1.59,0.31-3.38,0.16-5.03c-0.14-1.63-1.16-3.27-1.04-4.92c0.11-1.63,1.34-3.11,1.72-4.73
				C2268.05,961.03,2267.59,959.16,2268.22,957.61z"/>
			<path class="st8" d="M2263.01,991.14c0,0-0.2-7.35,4.76-12.09c4.95-4.74,4.72,2.57,4.72,2.57L2263.01,991.14z"/>
			<path class="st8" d="M2308.32,990.91c-0.54,0.51-9.19,10.69-11.26,10.18c-2.84-0.69,1.22-9.5,1.22-9.5L2308.32,990.91z"/>
			<path class="st8" d="M2277.21,963.02c0,0-0.74-6.89,3.01-10.3c3.57-3.24,8.89-6.14,23.26,2.32c2.05,1.21,2.95,3.71,2.13,5.95
				l-2.3,6.34L2277.21,963.02z"/>
			<path class="st29" d="M2302.3,984.87c-4.64,8.69-9.13,15.54-16.33,17.36c-2.52,0.64-5.49,0.9-8.64,0.24
				c-1.97-0.41-4.01-1.18-6.06-2.43c-5.35-3.27-7.12-7.33-6.74-12.1c0.44-5.48,3.69-11.9,7.58-19.18
				c7.28-13.64,17.75-16.97,26.08-12.52C2306.53,960.67,2309.59,971.23,2302.3,984.87z"/>
			<path class="st29" d="M2302.17,983.45l-16.2-1.1c-0.15,2.22-1.22,23.33-0.16,31.25c0.67,2.43,4.73,3.43,9.07,2.24
				c3.91-1.07,6.68-3.55,6.73-5.8l0.02,0C2300.99,1005.28,2301.64,991.2,2302.17,983.45z"/>
			<path class="st8" d="M2307.56,991.76c0,0-4.24-0.28-6.18-4.78c-2.56-5.92-2.92-16.88-2.33-21.59c1.05-8.29,4.02-9.51,4.02-9.51
				s14.2,6.52,15.54,12.54C2320.62,977.42,2307.56,991.76,2307.56,991.76z"/>
			<path class="st8" d="M2300.93,975.66l-10.62,19.91c-1.12,2.1-3.38,3.33-5.76,3.12l-2.72-0.24c-1.68-0.15-2.8-1.79-2.33-3.41
				l1.29-4.42c0.29-0.99-0.11-2.05-0.98-2.6l-8.64-5.5c-0.92-0.59-2.13-0.45-2.9,0.33l-3.18,3.25c-3.14,3.21-2.7,8.46,0.92,11.11
				l5.03,3.68c1.08,0.79,2.32,1.3,3.64,1.49c0.1,0.02,0.2,0.03,0.3,0.04l0.18,0.02c0,0,0.01,0,0.01,0l2.1,0.18v0l6.88,0.6
				c4.19,0.37,8.2-1.81,10.18-5.52l10.62-19.91L2300.93,975.66z"/>
			<path class="st29" d="M2308.23,988.48c-1.56,2.96-6.51,5.2-8.65,4.07c-2.15-1.13-1.41-3.82,0.15-6.78
				c1.56-2.96,4.77-4.82,6.91-3.68C2308.78,983.22,2309.79,985.52,2308.23,988.48z"/>
			<path class="st8" d="M2301.56,962.76l-8.83-4.62c-2.96-1.55-6.38-1.98-9.63-1.21l-4.42,1.04l8.45-6.1l8.5,1.06l8.66,5.39
				L2301.56,962.76z"/>
		</g>
		<path class="st13" d="M2316.52,1013.08c-11.18-6.59-15.56,3.62-15.8,3.85c-2.82,2.68-1.39,10.14,2.14,13.3l82.4,66.53
			c1.22,1.2,3.24-0.79,4.48-1.97c0.41-0.39,0.7-0.87,0.85-1.39c1.85-3.56,0.97-8.8-1.36-12.17
			C2377.12,1063.65,2331.05,1021.64,2316.52,1013.08z"/>
		<path class="st29" d="M2394.58,1170.29c2.18,3.01,2.83,6.87,1.75,10.44c-2.77,9.14-8.57,26.2-13.95,28.58
			c-7.4,3.27-2.94-27.17,10.95-40.73L2394.58,1170.29z"/>
		<g>
			<path class="st13" d="M2398.87,1173.45c1.91-22.02-1.12-70.4-5.16-83.81c-3.35-11.13-10.06-8.93-10.36-8.93
				c-3.57,0.03-7.89,5.16-7.51,9.38l12.49,84.07L2398.87,1173.45z"/>
		</g>
		<g>
			<path class="st9" d="M2294.31,1023.38c-5.04,32.87,8.69,61.27-0.04,95.06c-4.23,3.61-8.73,6.94-13.15,10.31
				c-2.81-5.12-5.54-10.19-7.81-15.58c13.26-32.19,5.88-59.58,14.64-90.54C2290.08,1022.85,2292.19,1023.13,2294.31,1023.38z"/>
		</g>
	</g>
	<g>
		<path class="st27" d="M1043.99,1323.69c0,0,13.35-1.51,13.28-4.07l-13.28-58.18l-7.87-47.73l-6.88,39.97L1043.99,1323.69z"/>
		<path class="st28" d="M1040.04,1603.91c0,0-3.16,10.73-1.26,11.36c1.89,0.63,46.07,2.52,49.22,0.63c3.16-1.89-6.31-5.05-6.31-5.05
			s-20.82-5.68-32.81-6.94C1048.87,1603.91,1040.04,1603.28,1040.04,1603.91z"/>
		<path class="st28" d="M1033.92,1458.13c2.52-5.05,5.38-7.57,10.1-7.57c5.17,0,9.32,4.29,9.14,9.46l-4.92,144.22
			c-0.08,2.27-1.94,4.08-4.22,4.08c-2.28,0-4.14-1.8-4.22-4.08l-0.21-6.23C1031.5,1499.3,1026.35,1476.43,1033.92,1458.13z"/>
		<path class="st29" d="M1019.08,1330.53c3.59-16.89,12.62-19.76,18.86-19.54c0.42-0.09,0.85-0.16,1.29-0.19
			c5.16-0.35,9.59,3.64,9.77,8.81l4.98,144.22c0.08,2.27-1.66,4.2-3.93,4.36c-0.76,0.05-1.48-0.1-2.12-0.41
			c-5.16-1.4-9.21-5.52-10.43-10.84C1031.13,1429.25,1014.4,1352.5,1019.08,1330.53z"/>
		<path class="st30" d="M1066.34,1605.98c-4.58,2.01-12.18,3.32-20.79,3.32c-2.75,0-5.4-0.14-7.88-0.38
			c-0.57,3.9-0.83,8.44,1.07,8.66c3.34,0.38,51.36,1.84,51.65-0.38C1090.94,1612.79,1078.06,1608.59,1066.34,1605.98z"/>
		<path class="st28" d="M963.78,1603.91c0,0-3.16,10.73-1.26,11.36c1.89,0.63,46.07,2.52,49.22,0.63c3.16-1.89-6.31-5.05-6.31-5.05
			s-20.82-5.68-32.81-6.94C972.62,1603.91,963.78,1603.28,963.78,1603.91z"/>
		<path class="st28" d="M971.73,1457.73c2.96-4.81,6.03-7.07,10.73-6.65c5.15,0.46,8.9,5.1,8.27,10.23l-17.66,143.22
			c-0.28,2.26-2.3,3.89-4.56,3.69c-2.27-0.2-3.97-2.16-3.84-4.44l0.34-6.23C965.67,1498.52,962.57,1475.29,971.73,1457.73z"/>
		<path class="st29" d="M985.11,1327.91c7.21-15.69,16.65-16.5,22.69-14.92c0.43,0.01,0.86,0.03,1.3,0.1
			c5.11,0.79,8.56,5.66,7.6,10.74l-26.79,141.8c-0.42,2.24-2.54,3.74-4.79,3.39c-0.75-0.12-1.43-0.43-1.98-0.87
			c-4.72-2.49-7.78-7.41-7.8-12.87C975.2,1426.87,975.73,1348.32,985.11,1327.91z"/>
		<path class="st30" d="M990.08,1605.98c-4.58,2.01-12.18,3.32-20.78,3.32c-2.75,0-5.4-0.14-7.88-0.38
			c-0.57,3.9-0.83,8.44,1.07,8.66c3.34,0.38,51.36,1.84,51.65-0.38C1014.69,1612.79,1001.8,1608.59,990.08,1605.98z"/>
		<path class="st30" d="M982.91,1321.62c0,0-14.94,67.39-11.21,130.19c0,0-4.24,5.47-7.04,17.51c0,0,42.84,16.01,92.33,15.55
			c0,0,0.62-18.13,0-36.84c-0.62-18.71-7.99-128.41-7.99-128.41L982.91,1321.62z"/>
		<path class="st8" d="M1011.84,1103.53c19.31-4.96,48.15,12.38,45.95,34.05c-0.21,2.04-0.65,4.1-0.24,6.11
			c0.64,3.15,3.24,5.51,5.86,7.37c5.9,4.18,12.78,7.13,17.72,12.41c7.9,8.46,8.9,22.71,1.83,31.88c-6.53,8.48-18.62,11.6-28.98,8.93
			c-10.37-2.67-18.96-10.39-24.37-19.63c-1.35-2.3-2.56-4.75-4.45-6.63c-3.5-3.5-8.73-4.54-12.96-7.12c-3.95-2.41-7-6.24-8.48-10.63
			c-1.9-5.67-1.17-11.89-2.43-17.73c-1.48-6.85-5.68-13.13-5.64-20.13C995.73,1113.49,1003.21,1105.74,1011.84,1103.53z"/>
		<path class="st28" d="M1075.35,1011.07c-3.34-0.68-6.17-2.89-7.65-5.96c-3.8-7.88-10.45-22.99-8.3-27.92
			c2.97-6.79,18.82,16.51,17.85,34.27L1075.35,1011.07z"/>
		<g>
			<path class="st27" d="M1068.37,1006.15c-3.62,19.92-4.99,64.3-2.45,76.88c2.11,10.44,8.41,9,8.69,9.03
				c3.25,0.28,7.64-4.03,7.65-7.91l-4.21-77.74L1068.37,1006.15z"/>
		</g>
		<path class="st27" d="M1022.55,1167.48c-3.26,11.43,6.8,12.96,7.06,13.12c3.02,1.88,9.31-1.11,11.3-4.97l39.98-88.39
			c0.78-1.36-1.45-2.69-2.78-3.52c-0.44-0.28-0.94-0.42-1.43-0.43c-3.58-0.81-8.02,1.17-10.48,4.01
			C1053.41,1102.09,1026.79,1152.62,1022.55,1167.48z"/>
		<g>
			<path class="st9" d="M981.58,1331.36c-1.79,0.58-0.93-36.19,3.33-62.51c-0.96-22.81,5.16-77.25,10.37-93.74
				c6.55-20.71,16.9-32.06,34.13-23.78c5.43,2.61,10.57,17.86,12.86,34.09c2.29,16.23,5.51,12.97-3.42,36.75
				c-3.17,8.46,4.81,65.72,8.75,80.86c1.13,4.35,2.78,19.14,4.95,23.73c-3.16,2.26-6.13,3.9-9.6,5.16
				C1019.17,1340.56,1005.39,1323.66,981.58,1331.36z"/>
		</g>
		<path class="st8" d="M1015.7,1144.29c0,0-16.12-6.18-17.08-22.53c-1.28-21.95,21.11-32.27,32.99-24.8
			c10.94,6.88,8.85,16.31,7.5,18.62C1037.76,1117.89,1015.7,1144.29,1015.7,1144.29z"/>
		<path class="st28" d="M1010.9,1123.53l17.59-1.24c0.17,2.41,1.39,25.34,0.27,33.93c-0.72,2.64-5.12,3.74-9.85,2.46
			c-4.24-1.15-7.27-3.83-7.32-6.28l-0.02,0C1012.25,1147.24,1011.49,1131.95,1010.9,1123.53z"/>
		<path class="st28" d="M1012.15,1126.09c2.67,13.88,14.5,23.28,22.98,21.65c8.48-1.63,10.41-13.67,7.74-27.55
			c-2.67-13.88-10.9-19.63-19.38-18C1015,1103.82,1009.48,1112.21,1012.15,1126.09z"/>
		<path class="st8" d="M1033.77,1100.75c0,0-3.54,18.59-20.81,24.86c-8.9,3.23-11.75-10.8-11.75-10.8l8.82-13.27
			c0,0,7.18-5.63,12.64-5.03C1023.14,1096.55,1033.77,1100.75,1033.77,1100.75z"/>
		<path class="st8" d="M1040.05,1111.44c0,0-15.47-5.67-17.74-11.07c-2.27-5.41,5.68-4.7,5.68-4.7S1038.24,1099.48,1040.05,1111.44z
			"/>
		<path class="st8" d="M1015.36,1099.42c0,0,7.05-5.41,2.35-11.99c-4.7-6.58-12.9-4.14-14.81,0.94c-2.12,5.64,0.71,9.17,3.06,10.81
			C1008.3,1100.83,1012.54,1101.07,1015.36,1099.42z"/>
		<path class="st28" d="M1005.3,1131.19c1.38,3.23,6.35,5.99,8.69,4.99c2.34-1,1.81-3.87,0.43-7.1c-1.38-3.23-4.56-5.44-6.9-4.44
			C1005.18,1125.64,1003.93,1127.96,1005.3,1131.19z"/>
		<path class="st27" d="M1004.73,1153.94c0,0,6.42,10.1,20.36,12.87c0,0-15.1,134.26-10.78,150.41c0,0-28.69,0.4-34.82,2.4
			c0,0,3.83-88.89,6.32-105.5S994.18,1165.97,1004.73,1153.94z"/>
		<g>
			<path class="st31" d="M976.84,1326.48c-1.63,0.01-3.23-0.01-4.82-0.13c-6.25-0.35-12.27-1.5-17.98-3.35
				c-3.07-0.98-6.05-2.17-8.93-3.56c-5.76-2.75-11.07-6.26-15.86-10.37c-2.44-2.1-4.72-4.35-6.86-6.75
				c-4.04-4.54-7.53-9.61-10.34-15.08c-1.46-2.83-2.75-5.8-3.8-8.85c-2.08-5.87-3.42-12.08-3.88-18.54
				c-0.14-1.58-0.2-3.19-0.21-4.81c-0.01-1.63,0.01-3.23,0.13-4.82c0.35-6.25,1.5-12.27,3.35-17.98c0.98-3.07,2.17-6.05,3.56-8.93
				c2.75-5.76,6.26-11.07,10.37-15.86c2.1-2.44,4.35-4.72,6.75-6.86c4.54-4.04,9.61-7.53,15.08-10.34c2.83-1.46,5.8-2.75,8.85-3.8
				c5.87-2.08,12.08-3.42,18.54-3.88c1.58-0.14,3.19-0.2,4.81-0.21c1.63-0.01,3.23,0.01,4.82,0.13c6.25,0.35,12.27,1.5,17.98,3.35
				c3.07,0.98,6.05,2.17,8.93,3.56c5.76,2.75,11.07,6.26,15.86,10.37c2.44,2.1,4.72,4.35,6.86,6.75c4.04,4.54,7.53,9.61,10.34,15.08
				c1.46,2.83,2.75,5.8,3.8,8.85c2.08,5.87,3.42,12.08,3.88,18.54c0.14,1.58,0.2,3.19,0.21,4.81c0.01,1.63-0.01,3.23-0.13,4.82
				c-0.35,6.25-1.5,12.27-3.35,17.98c-0.98,3.07-2.17,6.05-3.56,8.93c-2.75,5.76-6.26,11.07-10.37,15.86
				c-2.1,2.44-4.35,4.72-6.75,6.86c-4.54,4.04-9.61,7.53-15.08,10.34c-2.83,1.46-5.8,2.75-8.85,3.8
				c-5.87,2.08-12.08,3.42-18.54,3.88C980.07,1326.41,978.47,1326.47,976.84,1326.48z"/>
			<path class="st32" d="M971.61,1278.96l-14.03,35.17l-3.54,8.87c-3.07-0.98-6.05-2.17-8.93-3.56l3.54-8.87l14.24-35.73
				l-33.64,34.23c-2.44-2.1-4.72-4.35-6.86-6.75l6.68-6.8l26.54-27.02l-34.79,14.96l-8.76,3.78c-1.46-2.83-2.75-5.8-3.8-8.85
				l8.74-3.76l35.35-15.2l-47.97,0.42c-0.14-1.58-0.2-3.19-0.21-4.81c-0.01-1.63,0.01-3.23,0.13-4.82l47.39-0.41l-35.19-14.03
				l-8.85-3.54c0.98-3.07,2.17-6.05,3.56-8.93l8.87,3.52l35.73,14.26l-27.43-26.96l-6.8-6.68c2.1-2.44,4.35-4.72,6.75-6.86l6.8,6.66
				l27.02,26.56l-14.96-34.79l-3.78-8.76c2.83-1.46,5.8-2.75,8.85-3.8l3.76,8.74l15.2,35.35l-0.42-47.97
				c1.58-0.14,3.19-0.2,4.81-0.21c1.63-0.01,3.23,0.01,4.82,0.13l0.41,47.39l14.03-35.19l3.54-8.85c3.07,0.98,6.05,2.17,8.93,3.56
				l-3.52,8.87l-14.26,35.71l26.96-27.43l6.68-6.78c2.44,2.1,4.72,4.35,6.86,6.75l-33.22,33.8l34.79-14.96l8.76-3.76
				c1.46,2.83,2.75,5.8,3.8,8.85l-8.74,3.76l-35.35,15.2l47.97-0.42c0.14,1.58,0.2,3.19,0.21,4.81c0.01,1.63-0.01,3.23-0.13,4.82
				l-47.39,0.41l35.19,14.03l8.85,3.54c-0.98,3.07-2.17,6.05-3.56,8.93l-8.87-3.54l-35.73-14.24l27.43,26.96l6.8,6.68
				c-2.1,2.44-4.35,4.72-6.75,6.86l-6.8-6.68l-27.02-26.56l14.96,34.79l3.78,8.78c-2.83,1.46-5.8,2.75-8.85,3.8l-3.78-8.76
				l-15.18-35.33l0.42,47.97c-1.58,0.14-3.19,0.2-4.81,0.21c-1.63,0.01-3.23-0.01-4.82-0.13L971.61,1278.96z"/>
			
				<ellipse transform="matrix(1 -8.664091e-03 8.664091e-03 1 -10.8317 8.5051)" class="st33" cx="976.22" cy="1254.41" rx="62.56" ry="62.56"/>
			
				<ellipse transform="matrix(1 -8.664319e-03 8.664319e-03 1 -10.832 8.5053)" class="st31" cx="976.22" cy="1254.41" rx="59.04" ry="59.04"/>
			<g>
				<path class="st33" d="M949.25,1230.1l-6.28-8.96l11.38-7.98l6,8.56c8.41-5.17,17.77-8.48,24.71-8.89l3.59,18.19
					c-7.53,0.58-16.05,3.54-22.27,7.9c-5.41,3.79-6.55,6.28-5.2,8.22c4.98,7.1,32.21-20.52,46.97,0.55
					c6.39,9.12,5.15,21.43-6.79,32.57l6.17,8.8l-11.38,7.98l-6.05-8.64c-6.37,3.62-13.26,6.16-19.67,6.8l-3.94-17.82
					c7.55-1.08,13.76-3.38,18.69-6.83c5.57-3.9,6.22-6.76,4.86-8.7c-4.75-6.78-32.04,20.76-46.63-0.07
					C937.28,1253.05,938.26,1241.05,949.25,1230.1z"/>
			</g>
		</g>
		<path class="st27" d="M998.88,1163.98c8.35-7.9,14.5,0.14,14.77,0.29c3.08,1.79,3.5,8.56,1.11,11.99l-57.49,73.86
			c-0.8,1.28-3.03-0.06-4.39-0.84c-0.45-0.26-0.81-0.63-1.06-1.04c-2.42-2.74-2.83-7.47-1.55-10.86
			C956.96,1219.74,988.02,1174.25,998.88,1163.98z"/>
		<path class="st28" d="M954.28,1316.87c-3.4,0.29-6.46,2.15-8.28,5.04c-4.68,7.39-13.04,21.62-11.47,26.77
			c2.16,7.09,20.6-14.22,21.69-31.97L954.28,1316.87z"/>
		<g>
			<path class="st27" d="M947.65,1319.13c-2.61-20.08-1.75-64.47,1.42-76.91c2.63-10.32,8.85-8.57,9.13-8.58
				c3.26-0.12,7.43,4.41,7.25,8.29l-8.11,77.43L947.65,1319.13z"/>
		</g>
	</g>
	<g>
		<g>
			<path class="st13" d="M1237,1130.98c10.26-8.25,16.16,1.36,16.43,1.55c3.22,2.28,2.88,9.98-0.2,13.68l-73.01,78.88
				c-1.05,1.38-8.09,1.12-9.5,0.12c-0.47-0.33-0.83-0.78-1.06-1.27c-2.37-3.31,2.09-10.34,4.29-13.87
				C1184.76,1192.73,1223.65,1141.7,1237,1130.98z"/>
			<path class="st38" d="M1292.41,1450.74c1.61-5.95,4.12-9.27,9.16-10.3c5.54-1.12,10.91,2.57,11.84,8.14l26.03,155.43
				c0.41,2.45-1.2,4.79-3.63,5.28s-4.82-1.03-5.4-3.45l-1.58-6.62C1298.75,1495.33,1288.28,1471.97,1292.41,1450.74z"/>
			<path class="st36" d="M1265.1,1309.95c2.45-18.7,12.03-22.6,18.85-22.9c0.45-0.13,0.91-0.25,1.38-0.32
				c5.59-0.83,10.76,3.13,11.4,8.75l17.88,156.58c0.28,2.47-1.44,4.72-3.9,5.08c-0.82,0.12-1.63,0.02-2.35-0.27
				c-5.73-1.07-10.51-5.22-12.3-10.9C1286.74,1416.38,1261.91,1334.27,1265.1,1309.95z"/>
			<path class="st38" d="M1229.35,1448.62c4.31-4.41,8.12-6.08,13.02-4.52c5.38,1.72,8.27,7.56,6.36,12.88l-53.12,148.37
				c-0.84,2.34-3.38,3.59-5.75,2.84c-2.37-0.76-3.71-3.25-3.03-5.65l1.85-6.55C1213.13,1490.63,1215.39,1465.14,1229.35,1448.62z"/>
			<path class="st36" d="M1239.74,1305.45c7.44-17.33,17.71-18.48,24.36-16.93c0.47-0.01,0.94,0.01,1.42,0.07
				c5.61,0.72,9.5,5.93,8.6,11.51l-25.28,155.55c-0.4,2.45-2.67,4.15-5.14,3.83c-0.82-0.11-1.57-0.43-2.19-0.89
				c-5.23-2.59-8.7-7.87-8.88-13.83C1231.69,1413.76,1230.07,1327.99,1239.74,1305.45z"/>
			<path class="st30" d="M1191.04,1604.7c3.38,0,6.36-0.5,8.13-1.27c11.82,1.65,35.88,7.2,35.13,13.11
				c-0.28,2.18-47.22,0.75-50.49,0.38c-2.3-0.27-1.36-7.07-0.6-11.06c0.21-1.13,1.31-1.85,2.44-1.63
				C1187.2,1604.53,1189.05,1604.7,1191.04,1604.7z"/>
			<path class="st30" d="M1335.44,1604.7c3.38,0,6.36-0.5,8.13-1.27c11.82,1.65,35.88,7.2,35.13,13.11
				c-0.28,2.18-47.22,0.75-50.49,0.38c-2.3-0.27-1.36-7.07-0.6-11.06c0.21-1.13,1.31-1.85,2.44-1.63
				C1331.6,1604.53,1333.45,1604.7,1335.44,1604.7z"/>
			<path class="st39" d="M1253.54,1281.03c0,0,10.26,77.42,38.25,162.31c0,0-13.99,32.65,30.78,138.99h16.79
				c0,0-23.32-135.26-24.25-146.45c-0.93-11.19-15.86-152.98-18.66-160.45L1253.54,1281.03z"/>
			<path class="st39" d="M1237.68,1279.16c0,0-10.26,51.31-8.4,164.18c0,0-25.19,27.05-40.11,138.06l17.72,0.93
				c0,0,45.71-125,46.64-130.6c0.93-5.6,30.78-176.3,30.78-176.3L1237.68,1279.16z"/>
			<path class="st38" d="M1405.3,1256.79c0.23,3.77,2.21,7.21,5.35,9.31c8.06,5.39,23.59,15.04,29.34,13.44
				c7.91-2.2-15.19-23.21-34.82-24.9L1405.3,1256.79z"/>
			<path class="st13" d="M1262.27,1148.26c-6.36-11.53,4.12-15.69,4.36-15.92c2.8-2.78,10.33-1.12,13.44,2.55l65.14,85.49
				c1.18,1.27-0.28,8.16-1.51,9.38c-0.41,0.41-0.91,0.68-1.43,0.82c-3.67,1.77-9.82-3.84-12.92-6.61
				C1314.13,1210.34,1270.55,1163.25,1262.27,1148.26z"/>
			<g>
				<path class="st13" d="M1408,1264.69c-21.36-6.87-65.43-28.73-76.39-37.78c-9.1-7.51-4.4-12.92-4.28-13.21
					c1.43-3.33,7.93-5.36,11.73-3.34l73.75,44.73L1408,1264.69z"/>
			</g>
			<g>
				<path class="st13" d="M1232.19,1262.81c-0.29-3.95-0.55-7.97-0.78-11.92c-0.15-2.61-0.27-5.31-0.41-7.87
					c-0.31-5.82-0.6-11.71-0.88-17.44c-0.13-2.71-0.22-5.55-0.31-8.08c-0.22-6.26-0.42-13.1-0.51-18.99
					c-0.04-2.55-0.19-5.29-0.16-7.02c0.25-11.25,0.02-22.35,0.94-32.99c0.54-6.22-0.1-9.07,1.98-15.37
					c6.22-18.81,22.07-25.71,39.66-14.39c0.95,0.61,2.47,1.74,3.14,2.49c6.79,7.63,12.2,11.98,11.23,23.91
					c-1.06,13.11,2.2,31.51,4.34,45.86c0.13,0.88,0.46,4.26,0.7,6.18c0.34,2.72,0.76,6.17,1.14,9.44c0.53,4.59,1.17,9.73,1.69,14.63
					c0.31,2.96,0.68,6.29,1.05,9.43c0.65,5.55,1.29,11.34,1.95,16.95c0.18,1.56,0.38,3.19,0.6,4.75c0.17,1.2,0.31,2.39,0.48,3.58
					c0.39,2.83,0.79,5.82,1.23,8.6c0.38,2.43,0.83,4.63,1.31,6.99c0.64,3.18,1.3,6.33,1.99,9.5c-7,1.38-14.09,1.37-21.07,0.11
					c-11.74-2.12-22.96-5.58-34.93-5.08c-4.01,0.17-7.69,1.32-11.57,2.12c-0.89-6.02-1.61-12.08-2.21-18.16
					C1232.55,1267.68,1232.37,1265.24,1232.19,1262.81z"/>
			</g>
			<g>
				<path class="st40" d="M1261.55,1143.27c7.04,32.5-4.92,61.69,5.86,94.88c4.44,3.35,9.13,6.39,13.76,9.48
					c2.49-5.28,4.91-10.51,6.84-16.02c-15.21-31.32-9.52-59.11-20.17-89.47C1265.74,1142.48,1263.65,1142.88,1261.55,1143.27z"/>
			</g>
			<g>
				<path class="st8" d="M1288.1,1112.72c0,0,0.45-7.45-4.41-12.42c-4.86-4.98-4.88,2.44-4.88,2.44L1288.1,1112.72z"/>
				<path class="st8" d="M1242.15,1110.93c0.53,0.53,8.96,11.16,11.07,10.72c2.9-0.6-0.91-9.68-0.91-9.68L1242.15,1110.93z"/>
				<path class="st8" d="M1274.66,1083.71c0,0,0.99-6.97-2.7-10.56c-3.5-3.41-8.81-6.54-23.68,1.55c-2.12,1.15-3.12,3.66-2.37,5.96
					l2.12,6.51L1274.66,1083.71z"/>
				<path class="st41" d="M1248.46,1105c4.41,8.97,8.72,16.08,15.96,18.17c2.54,0.74,5.53,1.1,8.75,0.54
					c2.01-0.35,4.11-1.06,6.23-2.26c5.54-3.13,7.47-7.19,7.25-12.05c-0.25-5.57-3.33-12.2-7.02-19.72
					c-6.92-14.09-17.42-17.83-26.03-13.6C1245,1080.32,1241.54,1090.92,1248.46,1105z"/>
				<path class="st41" d="M1245.96,1102.68l16.28-2.56c0.35,2.23,3.32,23.48,2.96,31.58c-0.46,2.51-4.47,3.89-8.97,3.07
					c-4.04-0.73-7.07-2.99-7.32-5.26l-0.02,0C1249.11,1124.65,1247.19,1110.47,1245.96,1102.68z"/>
				<path class="st8" d="M1242.88,1111.81c0,0,4.31-0.14,6.44-4.63c2.8-5.92,3.55-17.02,3.1-21.82c-0.78-8.44-3.75-9.79-3.75-9.79
					s-14.63,6.12-16.2,12.18C1230.14,1096.82,1242.88,1111.81,1242.88,1111.81z"/>
				<path class="st8" d="M1250.16,1095.71l10.08,20.56c1.07,2.17,3.31,3.49,5.73,3.36l2.77-0.15c1.71-0.09,2.9-1.72,2.48-3.38
					l-1.16-4.52c-0.26-1.01,0.18-2.07,1.08-2.61l8.95-5.28c0.96-0.56,2.18-0.38,2.93,0.44l3.11,3.41c3.07,3.37,2.45,8.67-1.32,11.24
					l-5.23,3.56c-1.12,0.76-2.4,1.23-3.74,1.38c-0.1,0.02-0.2,0.03-0.3,0.03l-0.18,0.01c0,0-0.01,0-0.01,0l-2.14,0.11v0l-6.99,0.37
					c-4.27,0.23-8.26-2.12-10.14-5.96l-10.08-20.56L1250.16,1095.71z"/>
				<path class="st41" d="M1242.32,1108.47c1.48,3.06,6.42,5.5,8.63,4.42c2.22-1.07,1.57-3.82,0.08-6.88s-4.67-5.05-6.88-3.98
					C1241.94,1103.11,1240.84,1105.41,1242.32,1108.47z"/>
				<path class="st8" d="M1249.97,1082.61l9.11-4.38c3.06-1.47,6.54-1.79,9.81-0.9l4.44,1.21l-8.36-6.48l-8.65,0.78l-8.97,5.17
					L1249.97,1082.61z"/>
				<path class="st42" d="M1252.95,1088.18c0,0,31.67-18.88,27.46-23.33s-16.67,1.61-16.67,1.61L1252.95,1088.18z"/>
				<path class="st43" d="M1267.54,1066.27l-28.71,43.12c0,0-11.6-13.37-11.35-22.02c0.25-8.66,15.63-19.83,30.75-24.26
					C1266.67,1060.63,1267.54,1066.27,1267.54,1066.27z"/>
			</g>
			<g>
				<path class="st9" d="M1384.7,1329.43c-81.57,4.38-175.02,26.42-255.41,45.22c-8.77-35.8-20.1-69.77-30.7-104.95
					c89.17-28.05,177.16-51.88,268.52-72.1C1376.88,1243.23,1383.22,1282.56,1384.7,1329.43z"/>
				<path class="st10" d="M1132.88,1369.02c-8.08-32.76-18.54-63.85-28.17-96.05c86.08-26.23,170.54-50.1,258.59-69.6
					c8.99,42.04,14.96,78.42,16.33,121.56C1304.55,1326.78,1207.06,1350.88,1132.88,1369.02z"/>
				<path class="st9" d="M1372.26,1304.93c0.43-27-7.02-56.01-12.51-82.51c-6.73,0.77-10.54-1.53-12.71-7.99
					c-74.08,17.33-151.26,33.87-222.8,59.47c1.2,6.64-1.19,10.47-7.27,13.19c7.08,21.14,13.5,42.46,18.92,64.09
					c6.58-0.77,10.4,1.14,12.77,7.45c59.47-10.54,158.48-45.39,213.42-40.89C1362.55,1310.81,1365.34,1306.6,1372.26,1304.93z"/>
				<path class="st11" d="M1306.16,1275c1.86,9.39,0.75,18.66-2.77,27.67c-7.43,18.99-25.6,30.36-45.66,35.44
					s-39.99,3.1-54.84-11.08c-7.06-6.74-11.59-13.98-13.95-23.21c-2.37-9.22-2.12-17.47,1.1-26.97
					c6.76-19.99,25.43-34.79,45.78-39.73s42.83-0.89,57.73,13.84C1300.61,1257.97,1304.3,1265.62,1306.16,1275z"/>
				<path class="st12" d="M1313.97,1273.03c-1.63-8.6,3.44-17.47,12.11-19.61c8.67-2.14,16.7,3.29,18.32,12
					c1.62,8.71-3.77,18.01-12.55,20.04C1323.06,1287.48,1315.59,1281.64,1313.97,1273.03z"/>
				<path class="st12" d="M1145.93,1314.14c-2.38-8.29,3.34-16.04,11.52-18.3c8.17-2.25,17.31,2.09,19.6,10.67
					c2.29,8.57-3.47,16.32-11.69,18.06C1157.14,1326.31,1148.31,1322.43,1145.93,1314.14z"/>
				<g>
					<path class="st9" d="M1259.12,1316.17c0.5,3.07,1.09,5.67,1.65,8.56c-3.44,0.88-6.88,1.78-10.34,2.63
						c-0.57-2.68-1.13-5.36-1.67-8.04c-6.84,1.13-13.84,1.33-20.53-0.73c1.03-4.78,1.82-9.46,3.06-14.29
						c5.04,2.14,13.69,1.57,18.02,0.83c3.77-0.64,6.98-2.5,6.52-4.51c-1.7-7.36-28.6,6.42-34.25-14.83
						c-2.45-9.2,4.77-19.05,14.6-21.73c-0.75-3.33-1.54-5.86-2.31-8.87c3.61-0.85,7.22-1.77,10.82-2.66
						c0.75,2.82,1.49,5.65,2.22,8.47c5.52-0.75,10.82-0.82,16.28,0.44c-0.7,4.94-1.21,9.81-2.1,14.79
						c-4.05-1.44-11.62-0.59-14.81-0.06c-3.61,0.6-7.06,2.83-6.41,5.04c2.26,7.72,28.4-7.57,32.73,13.48
						C1274.43,1303.48,1267.68,1312.74,1259.12,1316.17z"/>
				</g>
			</g>
			<path class="st38" d="M1228.97,1284.62c-1.21,3.58-0.68,7.51,1.44,10.64c5.43,8.03,16.17,22.83,22.1,23.52
				c8.16,0.95-5.3-27.23-22.85-36.2L1228.97,1284.62z"/>
			<g>
				<path class="st13" d="M1228.49,1292.95c-17.18-14.42-49.75-51.29-56.48-63.82c-5.59-10.39,0.8-13.63,1.02-13.85
					c2.58-2.54,9.37-1.97,12.13,1.33l51.41,69.26L1228.49,1292.95z"/>
			</g>
		</g>
	</g>
	<g>
		<path class="st44" d="M2395.33,1400.34c-2.82,2.4-6.6,3.34-10.22,2.55c-9.29-2.03-26.67-6.46-29.45-11.61
			c-3.82-7.09,26.74-5.04,41.28,7.7L2395.33,1400.34z"/>
		<g>
			<path class="st13" d="M2388.9,1403.67c21.98,1.12,70-3.59,83.21-8.08c10.96-3.73,8.53-10.32,8.52-10.63
				c-0.15-3.55-5.41-7.67-9.6-7.15l-83.21,15.38L2388.9,1403.67z"/>
		</g>
		<path class="st13" d="M2553.09,1277.12c-10.63-7.34-15.71,2.48-15.97,2.69c-2.99,2.46-2.11,9.97,1.17,13.37l77.05,71.98
			c1.13,1.28,3.28-0.55,4.59-1.63c0.44-0.36,0.75-0.82,0.94-1.32c2.09-3.41,1.59-8.67-0.47-12.19
			C2609.65,1331.69,2566.91,1286.66,2553.09,1277.12z"/>
		<path class="st3" d="M2495.04,1588.26c-1.58-5.84-4.04-9.1-8.99-10.1c-5.43-1.1-10.7,2.52-11.61,7.99l-25.53,152.47
			c-0.4,2.4,1.17,4.7,3.56,5.18c2.39,0.48,4.73-1.01,5.3-3.38l1.55-6.5C2488.83,1632,2499.1,1609.09,2495.04,1588.26z"/>
		<path class="st36" d="M2521.83,1450.15c-2.41-18.34-11.81-22.17-18.49-22.46c-0.44-0.13-0.89-0.24-1.36-0.31
			c-5.48-0.82-10.55,3.07-11.18,8.58l-17.54,153.6c-0.28,2.42,1.42,4.63,3.83,4.99c0.81,0.12,1.59,0.02,2.3-0.26
			c5.62-1.05,10.31-5.12,12.06-10.69C2500.6,1554.55,2524.96,1474,2521.83,1450.15z"/>
		<path class="st3" d="M2555.13,1588.12c-5.64-2.19-9.72-2.14-13.46,1.25c-4.11,3.72-4.31,10.11-0.45,14.09l107.64,110.96
			c1.7,1.75,4.48,1.84,6.28,0.2s1.99-4.41,0.42-6.27l-4.31-5.1C2586.67,1619.06,2574.3,1597.21,2555.13,1588.12z"/>
		<path class="st36" d="M2546.71,1445.73c-7.29-17-17.38-18.13-23.89-16.6c-0.46-0.01-0.92,0.01-1.39,0.07
			c-5.5,0.7-9.32,5.82-8.43,11.29l24.8,152.59c0.39,2.41,2.62,4.07,5.04,3.76c0.81-0.1,1.54-0.42,2.15-0.88
			c5.13-2.54,8.53-7.72,8.71-13.57C2554.6,1551.98,2556.2,1467.84,2546.71,1445.73z"/>
		<path class="st23" d="M2653.48,1710.69c-1.91,2.71-4,4.81-5.62,5.8c-5.37,10.4-14.55,32.82-9.4,35.56
			c1.9,1.01,27.35-37.4,28.89-40.22c1.09-1.99-4.89-5.09-8.52-6.75c-1.02-0.47-2.22,0-2.68,1.03
			C2655.51,1707.51,2654.6,1709.09,2653.48,1710.69z"/>
		<path class="st23" d="M2452.83,1739.29c-3.32,0-6.24-0.49-7.98-1.25c-11.59,1.62-35.2,7.06-34.46,12.86
			c0.27,2.14,46.33,0.74,49.52,0.37c2.25-0.26,1.33-6.93,0.59-10.85c-0.21-1.11-1.28-1.81-2.39-1.6
			C2456.6,1739.12,2454.78,1739.29,2452.83,1739.29z"/>
		<path class="st16" d="M2533.18,1421.77c0,0-10.07,75.95-37.52,159.22c0,0,13.73,32.03-30.2,136.35h-16.47
			c0,0,22.88-132.69,23.79-143.67s15.56-150.07,18.3-157.39L2533.18,1421.77z"/>
		<path class="st16" d="M2639.26,1682.78l-12.93,14.07c0,0-89.66-85.68-93.89-99.96s-23.95-169.87-23.95-169.87l39.69-3.85
			c0,0,15.31,38.66,8.93,160.74C2557.1,1583.9,2570.78,1579.52,2639.26,1682.78z"/>
		<path class="st13" d="M2524.72,1292.42c2.58-12.66-8.45-13.48-8.74-13.63c-3.43-1.79-10,1.98-11.83,6.32l-35.97,99.11
			c-0.73,1.54,2.65,7.56,4.16,8.34c0.5,0.26,1.05,0.37,1.58,0.35c3.95,0.58,8.07-6.47,10.16-9.97
			C2494.34,1365.73,2521.36,1308.88,2524.72,1292.42z"/>
		<g>
			<path class="st13" d="M2554.12,1403.91c0.29-3.87,0.54-7.82,0.76-11.69c0.15-2.56,0.26-5.21,0.4-7.72
				c0.3-5.71,0.59-11.49,0.86-17.1c0.13-2.66,0.22-5.44,0.31-7.92c0.22-6.14,0.41-12.85,0.5-18.63c0.04-2.5,0.19-5.19,0.15-6.88
				c-0.24-11.04-0.02-21.92-0.92-32.36c-0.53-6.1,0.1-8.9-1.94-15.08c-6.1-18.45-21.65-25.22-38.9-14.11
				c-0.93,0.6-2.43,1.71-3.08,2.44c-6.66,7.48-11.97,11.75-11.02,23.45c1.04,12.86-2.16,30.91-4.26,44.99
				c-0.13,0.86-0.45,4.18-0.68,6.06c-0.33,2.67-0.74,6.05-1.11,9.26c-0.52,4.5-1.15,9.55-1.66,14.35c-0.31,2.9-0.67,6.17-1.03,9.25
				c-0.64,5.45-1.27,11.13-1.91,16.63c-0.18,1.53-0.37,3.13-0.58,4.66c-0.16,1.18-0.31,2.34-0.47,3.51
				c-0.38,2.78-0.77,5.71-1.2,8.44c-0.37,2.38-0.81,4.54-1.28,6.86c-0.63,3.12-1.27,6.21-1.96,9.32c6.87,1.35,13.83,1.34,20.67,0.11
				c11.52-2.08,22.53-5.48,34.26-4.98c3.93,0.17,7.55,1.3,11.35,2.08c0.87-5.9,1.57-11.85,2.17-17.81
				C2553.77,1408.68,2553.94,1406.29,2554.12,1403.91z"/>
		</g>
		<g>
			<path class="st9" d="M2631.01,1571.2c-70.64-41.04-160.88-73.81-238.42-102.14c12.28-34.75,21.42-69.38,31.83-104.61
				c89.96,25.4,176.62,53.69,264.13,86.84C2671.71,1494.81,2655.45,1531.19,2631.01,1571.2z"/>
			<path class="st10" d="M2398.67,1466.33c11.19-31.83,19.48-63.56,29.07-95.79c86.38,25.23,170.11,51.55,254.45,83.49
				c-15.52,40.09-30.46,73.79-52.96,110.63C2565.42,1525.07,2470.66,1491.8,2398.67,1466.33z"/>
			<path class="st9" d="M2634.03,1543.9c15.16-22.35,24.82-50.7,34.75-75.87c-6.05-3.05-7.98-7.06-6.25-13.65
				c-71.46-26.1-145.08-54.56-218.96-72.35c-2.63,6.22-6.74,8.1-13.31,7.05c-5.66,21.56-11.98,42.92-19.29,63.98
				c5.93,2.96,8.08,6.66,6.6,13.23c55.52,23.77,157.44,48.88,200.93,82.75C2622.69,1543.49,2627.32,1541.5,2634.03,1543.9z"/>
			<path class="st11" d="M2595.14,1482.64c-3.59,8.87-9.59,16.02-17.48,21.63c-16.62,11.82-38.05,11.37-57.62,4.63
				s-35.15-19.32-39.8-39.32c-2.21-9.51-2.03-18.04,1.05-27.06s7.8-15.77,15.7-21.96c16.61-13.01,40.34-15.17,60.07-8.14
				c19.72,7.03,36.31,22.72,40.7,43.21C2599.83,1465.35,2598.72,1473.77,2595.14,1482.64z"/>
			<path class="st12" d="M2602.75,1485.27c3.35-8.09,12.45-12.73,20.88-9.77c8.43,2.96,12.17,11.9,8.75,20.08
				c-3.41,8.18-13.02,13-21.48,9.88C2602.44,1502.34,2599.39,1493.36,2602.75,1485.27z"/>
			<path class="st12" d="M2439.66,1427.57c2.55-8.24,11.59-11.59,19.66-8.99c8.07,2.59,13.33,11.23,10.55,19.66
				c-2.78,8.43-11.85,11.75-19.67,8.7C2442.36,1443.89,2437.11,1435.81,2439.66,1427.57z"/>
			<g>
				<path class="st9" d="M2533.23,1491.29c-1.26,2.84-2.2,5.34-3.31,8.06c-3.36-1.15-6.73-2.29-10.09-3.47
					c0.99-2.55,1.99-5.1,3.01-7.64c-6.34-2.81-12.3-6.47-16.77-11.86c3.48-3.44,6.7-6.91,10.39-10.28
					c3.05,4.55,10.59,8.82,14.62,10.58c3.5,1.53,7.21,1.73,7.93-0.2c2.61-7.09-27.44-10.3-20.52-31.18
					c3-9.04,14.43-13.33,24.12-10.18c1.2-3.19,1.92-5.74,2.93-8.69c3.49,1.27,7.01,2.48,10.51,3.71c-0.92,2.77-1.85,5.54-2.78,8.31
					c5.03,2.4,9.5,5.25,13.38,9.29c-3.3,3.75-6.38,7.54-9.86,11.22c-2.6-3.42-9.4-6.86-12.36-8.16c-3.35-1.47-7.45-1.5-8.12,0.7
					c-2.34,7.69,27.9,9.23,20,29.21C2552.99,1489.07,2542.27,1493.12,2533.23,1491.29z"/>
			</g>
		</g>
		<g>
			<path class="st8" d="M2499.27,1256.67c0,0-0.45-7.31,4.32-12.19c4.77-4.88,4.79,2.4,4.79,2.4L2499.27,1256.67z"/>
			<path class="st8" d="M2544.35,1254.91c-0.52,0.52-8.79,10.94-10.86,10.51c-2.85-0.59,0.9-9.49,0.9-9.49L2544.35,1254.91z"/>
			<path class="st8" d="M2512.45,1228.21c0,0-0.97-6.83,2.65-10.35c3.44-3.35,8.64-6.41,23.23,1.52c2.08,1.13,3.06,3.59,2.32,5.85
				l-2.08,6.39L2512.45,1228.21z"/>
			<path class="st3" d="M2538.16,1249.1c-4.32,8.8-8.56,15.77-15.66,17.83c-2.49,0.72-5.43,1.08-8.59,0.53
				c-1.97-0.34-4.03-1.04-6.12-2.21c-5.44-3.07-7.33-7.05-7.11-11.82c0.25-5.46,3.27-11.97,6.89-19.35
				c6.79-13.82,17.09-17.49,25.53-13.34C2541.55,1224.88,2544.94,1235.28,2538.16,1249.1z"/>
			<path class="st3" d="M2540.61,1246.82l-15.97-2.51c-0.35,2.19-3.25,23.03-2.9,30.97c0.45,2.47,4.39,3.82,8.8,3.02
				c3.97-0.72,6.94-2.93,7.18-5.16l0.02,0C2537.52,1268.37,2539.41,1254.46,2540.61,1246.82z"/>
			<path class="st8" d="M2543.63,1255.78c0,0-4.23-0.14-6.31-4.55c-2.74-5.8-3.48-16.7-3.05-21.41c0.77-8.28,3.68-9.6,3.68-9.6
				s14.35,6.01,15.89,11.95C2556.13,1241.07,2543.63,1255.78,2543.63,1255.78z"/>
			<path class="st8" d="M2536.48,1239.98l-9.89,20.17c-1.05,2.13-3.25,3.43-5.62,3.3l-2.72-0.14c-1.67-0.09-2.85-1.69-2.43-3.31
				l1.14-4.44c0.25-0.99-0.18-2.03-1.06-2.56l-8.78-5.18c-0.94-0.55-2.14-0.37-2.87,0.43l-3.05,3.34c-3.01,3.3-2.4,8.51,1.29,11.02
				l5.13,3.49c1.1,0.75,2.36,1.21,3.67,1.36c0.1,0.02,0.2,0.03,0.3,0.03l0.18,0.01c0,0,0.01,0,0.01,0l2.1,0.11v0l6.86,0.36
				c4.19,0.22,8.1-2.07,9.95-5.84l9.89-20.17L2536.48,1239.98z"/>
			<path class="st3" d="M2544.18,1252.49c-1.46,3-6.3,5.39-8.47,4.34s-1.54-3.75-0.08-6.75c1.46-3,4.58-4.95,6.75-3.9
				C2544.55,1247.24,2545.63,1249.49,2544.18,1252.49z"/>
			<path class="st8" d="M2536.67,1227.13l-8.94-4.29c-3-1.44-6.41-1.75-9.62-0.88l-4.36,1.19l8.2-6.35l8.49,0.76l8.8,5.07
				L2536.67,1227.13z"/>
		</g>
		<g>
			<path class="st15" d="M2520.51,1284.04c-5.89,11.47-8.38,21.27-7.47,34.58c0.91,13.31-3.43,30.21-10.35,42.07
				c2.02,3.08,4.05,5.96,6.15,8.91c4.12-1.65,8.1-3.62,12.08-5.43c3.9-15.38,4.27-29.19,1.33-45.55c-1.6-8.91,0.06-23.63,2.56-33.29
				C2523.37,1284.69,2521.96,1284.59,2520.51,1284.04z"/>
		</g>
		<path class="st3" d="M2559.63,1418.58c2.11,3.05,2.66,6.91,1.51,10.43c-2.96,9.04-9.11,25.89-14.52,28.13
			c-7.44,3.09-2.32-27.11,11.82-40.3L2559.63,1418.58z"/>
		<g>
			<path class="st13" d="M2562.01,1425.03c17.51-13.33,51.15-47.93,58.34-59.88c5.96-9.92-0.15-13.39-0.35-13.62
				c-2.41-2.61-9.08-2.37-11.94,0.74l-53.63,65.45L2562.01,1425.03z"/>
		</g>
	</g>
	<g>
		<path class="st1" d="M1981.19,1621.12c7.69,18.68,27.42,28.26,27.42,28.26s7.27-20.7-0.42-39.38
			c-7.69-18.68-27.42-28.26-27.42-28.26S1973.5,1602.44,1981.19,1621.12z"/>
		<path class="st1" d="M1938.45,1701.57c10.68,17.14,31.73,23.32,31.73,23.32s3.74-21.62-6.94-38.76
			c-10.68-17.14-31.73-23.32-31.73-23.32S1927.77,1684.42,1938.45,1701.57z"/>
		<path class="st1" d="M2062.2,1566.41c-14.13,14.43-15.15,36.35-15.15,36.35s21.89-1.49,36.02-15.92s15.15-36.35,15.15-36.35
			S2076.33,1551.98,2062.2,1566.41z"/>
		<path class="st1" d="M2044.34,1635.71c-20.2,0.01-36.56,14.62-36.56,14.62s16.38,14.59,36.58,14.58
			c20.2-0.01,36.56-14.62,36.56-14.62S2064.54,1635.7,2044.34,1635.71z"/>
		<path class="st1" d="M2006.92,1709.81c-20.2,0.01-36.56,14.62-36.56,14.62s16.38,14.59,36.58,14.58s36.56-14.62,36.56-14.62
			S2027.12,1709.8,2006.92,1709.81z"/>
		<g>
			<path class="st1" d="M1930.74,1883.78l4.11,0.22c0.03-0.48,2.7-48.32,19.34-107.82c9.76-34.91,22.35-66.94,37.42-95.2
				c18.8-35.27,41.54-64.74,67.57-87.59l-2.71-3.09c-26.42,23.19-49.47,53.06-68.52,88.8c-15.21,28.54-27.91,60.87-37.75,96.08
				C1933.45,1835.09,1930.76,1883.3,1930.74,1883.78z"/>
		</g>
	</g>
	<g>
		<path class="st1" d="M2155.4,1677.98c-1.49,16.85,9.49,31.59,9.49,31.59s13.39-12.59,14.87-29.44
			c1.49-16.85-9.49-31.59-9.49-31.59S2156.89,1661.12,2155.4,1677.98z"/>
		<path class="st1" d="M2092.6,1721.32c1.33,16.87,14.6,29.58,14.6,29.58s11.12-14.63,9.79-31.5c-1.33-16.87-14.6-29.58-14.6-29.58
			S2091.27,1704.45,2092.6,1721.32z"/>
		<path class="st1" d="M2236.74,1668.54c-16.07,5.28-25.28,21.19-25.28,21.19s16.85,7.34,32.92,2.05
			c16.07-5.28,25.28-21.19,25.28-21.19S2252.81,1663.26,2236.74,1668.54z"/>
		<path class="st1" d="M2196.74,1713.18c-15.02-7.78-32.83-3.23-32.83-3.23s6.55,17.17,21.58,24.95
			c15.02,7.78,32.83,3.23,32.83,3.23S2211.76,1720.96,2196.74,1713.18z"/>
		<path class="st1" d="M2140.34,1753.86c-15.02-7.78-32.83-3.23-32.83-3.23s6.55,17.17,21.58,24.95
			c15.02,7.78,32.83,3.23,32.83,3.23S2155.36,1761.64,2140.34,1753.86z"/>
		<g>
			<path class="st1" d="M2016.59,1853.84l2.97,1.74c0.2-0.34,20.64-34.89,55.96-72.72c20.72-22.19,42.44-41.16,64.54-56.36
				c27.58-18.98,55.85-32.12,84.03-39.07l-0.83-3.35c-28.59,7.05-57.25,20.38-85.19,39.61c-22.32,15.36-44.23,34.5-65.12,56.88
				C2037.39,1818.68,2016.8,1853.5,2016.59,1853.84z"/>
		</g>
	</g>
	<path class="st13" d="M2010.11,721.1c9.17,0,16.61-7.44,16.61-16.61c0,9.17,7.44,16.61,16.61,16.61c-9.17,0-16.61,7.44-16.61,16.61
		C2026.72,728.54,2019.29,721.1,2010.11,721.1z"/>
	<path class="st13" d="M1285.96,1258.4c9.17,0,16.61-7.44,16.61-16.61c0,9.17,7.44,16.61,16.61,16.61
		c-9.17,0-16.61,7.44-16.61,16.61C1302.57,1265.84,1295.13,1258.4,1285.96,1258.4z"/>
	<path class="st13" d="M1641.22,1307.41c9.17,0,16.61-7.44,16.61-16.61c0,9.17,7.44,16.61,16.61,16.61
		c-9.17,0-16.61,7.44-16.61,16.61C1657.83,1314.85,1650.39,1307.41,1641.22,1307.41z"/>
	<path class="st13" d="M907.52,1408.46c9.17,0,16.61-7.44,16.61-16.61c0,9.17,7.44,16.61,16.61,16.61
		c-9.17,0-16.61,7.44-16.61,16.61C924.13,1415.9,916.7,1408.46,907.52,1408.46z"/>
	<path class="st13" d="M1900.95,588.37c16.53,0,29.93-13.4,29.93-29.93c0,16.53,13.4,29.93,29.93,29.93
		c-16.53,0-29.93,13.4-29.93,29.93C1930.88,601.77,1917.48,588.37,1900.95,588.37z"/>
	<path class="st13" d="M1468.6,1499.35c16.53,0,29.93-13.4,29.93-29.93c0,16.53,13.4,29.93,29.93,29.93
		c-16.53,0-29.93,13.4-29.93,29.93C1498.52,1512.75,1485.12,1499.35,1468.6,1499.35z"/>
	<path class="st13" d="M2086.3,1421.17c16.53,0,29.93-13.4,29.93-29.93c0,16.53,13.4,29.93,29.93,29.93
		c-16.53,0-29.93,13.4-29.93,29.93C2116.23,1434.57,2102.83,1421.17,2086.3,1421.17z"/>
	<path class="st13" d="M2827.44,1124.93c16.53,0,29.93-13.4,29.93-29.93c0,16.53,13.4,29.93,29.93,29.93
		c-16.53,0-29.93,13.4-29.93,29.93C2857.37,1138.32,2843.97,1124.93,2827.44,1124.93z"/>
</g>
</svg>
